M48
;Layer_Color=9474304
;FILE_FORMAT=2:4
INCH,TZ
;TYPE=PLATED
T1F00S00C0.0157
T2F00S00C0.0276
T3F00S00C0.0315
T4F00S00C0.0354
T5F00S00C0.0394
T6F00S00C0.0402
T7F00S00C0.0520
T8F00S00C0.0591
T9F00S00C0.1260
;TYPE=NON_PLATED
T10F00S00C0.1181
%
T01
X1388Y1388
X1134Y2000
X1388Y2612
X2000Y2866
X2632Y2622
X2886Y2010
X2612Y1388
X2000Y1134
X34938Y1388
X34684Y2000
X34938Y2612
X35550Y2866
Y1134
X36162Y1388
X36436Y2010
X36182Y2622
X2562Y34888
X1950Y34634
X1338Y34888
X1084Y35500
X1338Y36112
X1950Y36366
X2582Y36122
X2836Y35510
X34684Y35500
X34938Y34888
X35550Y34634
X36162Y34888
X35550Y36366
X34938Y36112
X36182Y36122
X36436Y35510
T02
X11450Y22100
X14450
X17400Y28950
X20400
X25900Y22000
X28900
T03
X32400Y8800
Y9800
X33400
Y8800
X15650Y11100
X14700
X13700
Y14100
X14700
X15650
X6350Y13150
Y10150
X10300Y19150
Y20850
X11250Y20000
X2869Y32200
X900
X16650Y27650
X18350
X19450Y27850
Y24850
X17500Y26700
X14450Y21050
X11450
X23450
X25150
X24300Y22000
X23000Y22350
Y25350
T04
X5000Y1500
Y2500
X21300Y18800
X24100
X25100
X20300
X17350
X16350
T05
X10300Y1900
Y2900
Y3900
X13050Y3900
Y2900
Y1900
X15850Y1900
Y2900
Y3900
X18650
Y2900
Y1900
X21350
Y2900
Y3900
X24050
Y2900
Y1900
X26800
Y2900
Y3900
X29500
Y2900
Y1900
X32200
Y2900
Y3900
X34050Y18700
Y19700
Y20700
X7600Y17500
X1537
X3584Y29075
X5553
X34300Y28700
Y29700
X34000Y27050
Y26050
Y25050
X34300Y23400
Y22400
T06
X21350Y5700
X22350
X23350
X24350
X25350
X26350
X27350
X28350
X29350
X30350
X31350
X32350
Y15700
X31350
X30350
X29350
X28350
X27350
X26350
X25350
X24350
X23350
X22350
X21350
X20350
X19350
X18350
Y5700
X19350
X20350
T07
X10650Y24300
X12850Y23500
X15150Y24300
Y29100
X17150Y31200
X19350Y30400
X17150Y36000
X10650Y29100
X21650Y31200
Y36000
X24750Y29050
X29250
Y24250
X26950Y23450
X24750Y24250
T08
X5100Y6150
Y8150
Y11750
Y13750
X9100Y13700
Y11700
X12100
Y13700
Y8100
Y6100
X9100
Y8100
X2100Y8150
Y6150
Y11750
Y13750
X6250Y32600
X8250
Y35600
X6250
X11850
X13850
Y32600
X11850
X24650
X26650
Y35600
X24650
X30300Y35650
X32300
Y32650
X30300
T09
X2000Y2000
X35550
X1950Y35500
X35550
T10
X35484Y5885
Y15535
X17000
Y5885
M30
