G04*
G04 #@! TF.GenerationSoftware,Altium Limited,Altium Designer,20.0.13 (296)*
G04*
G04 Layer_Color=65535*
%FSLAX25Y25*%
%MOIN*%
G70*
G01*
G75*
%ADD10C,0.00787*%
%ADD11C,0.01000*%
%ADD12C,0.00984*%
%ADD13C,0.02362*%
%ADD14C,0.00500*%
%ADD15C,0.01200*%
%ADD16C,0.00984*%
%ADD17R,0.03000X0.08000*%
G36*
X305110Y92990D02*
X304348D01*
Y132360D01*
X305110D01*
Y92990D01*
D02*
G37*
G36*
X303586D02*
X302062D01*
Y132360D01*
X303586D01*
Y92990D01*
D02*
G37*
G36*
X301300D02*
X299776D01*
Y132360D01*
X301300D01*
Y92990D01*
D02*
G37*
G36*
X299014D02*
X298252D01*
Y132360D01*
X299014D01*
Y92990D01*
D02*
G37*
G36*
X296728D02*
X295966D01*
Y132360D01*
X296728D01*
Y92990D01*
D02*
G37*
G36*
X295204D02*
X293680D01*
Y132360D01*
X295204D01*
Y92990D01*
D02*
G37*
G36*
X292918D02*
X292156D01*
Y132360D01*
X292918D01*
Y92990D01*
D02*
G37*
G36*
X291394D02*
X290632D01*
Y132360D01*
X291394D01*
Y92990D01*
D02*
G37*
G36*
X289108D02*
X288346D01*
Y132360D01*
X289108D01*
Y92990D01*
D02*
G37*
G36*
X287584D02*
X286060D01*
Y132360D01*
X287584D01*
Y92990D01*
D02*
G37*
G36*
X285298D02*
X284536D01*
Y132360D01*
X285298D01*
Y92990D01*
D02*
G37*
G36*
X283774D02*
X283012D01*
Y132360D01*
X283774D01*
Y92990D01*
D02*
G37*
G36*
X282250D02*
X280726D01*
Y132360D01*
X282250D01*
Y92990D01*
D02*
G37*
G36*
X279202D02*
X278440D01*
Y132360D01*
X279202D01*
Y92990D01*
D02*
G37*
G36*
X277678D02*
X276154D01*
Y132360D01*
X277678D01*
Y92990D01*
D02*
G37*
G36*
X275392D02*
X273868D01*
Y132360D01*
X275392D01*
Y92990D01*
D02*
G37*
G36*
X273106D02*
X272344D01*
Y132360D01*
X273106D01*
Y92990D01*
D02*
G37*
G36*
X271582D02*
X270820D01*
Y132360D01*
X271582D01*
Y92990D01*
D02*
G37*
G36*
X269296D02*
X268534D01*
Y132360D01*
X269296D01*
Y92990D01*
D02*
G37*
G36*
X267772D02*
X266248D01*
Y132360D01*
X267772D01*
Y92990D01*
D02*
G37*
G36*
X265486D02*
X263962D01*
Y132360D01*
X265486D01*
Y92990D01*
D02*
G37*
G36*
X263200D02*
X262438D01*
Y132360D01*
X263200D01*
Y92990D01*
D02*
G37*
G36*
X261676D02*
X260914D01*
Y132360D01*
X261676D01*
Y92990D01*
D02*
G37*
G36*
X259390D02*
X258628D01*
Y132360D01*
X259390D01*
Y92990D01*
D02*
G37*
G36*
X257866D02*
X256342D01*
Y132360D01*
X257866D01*
Y92990D01*
D02*
G37*
G36*
X255580D02*
X254818D01*
Y132360D01*
X255580D01*
Y92990D01*
D02*
G37*
G36*
X254056D02*
X252532D01*
Y132360D01*
X254056D01*
Y92990D01*
D02*
G37*
G36*
X251770D02*
X251008D01*
Y132360D01*
X251770D01*
Y92990D01*
D02*
G37*
G36*
X249484D02*
X248722D01*
Y132360D01*
X249484D01*
Y92990D01*
D02*
G37*
G36*
X247960D02*
X246436D01*
Y132360D01*
X247960D01*
Y92990D01*
D02*
G37*
G36*
X245674D02*
X244912D01*
Y132360D01*
X245674D01*
Y92990D01*
D02*
G37*
G36*
X244150D02*
X243388D01*
Y132360D01*
X244150D01*
Y92990D01*
D02*
G37*
G36*
X242626D02*
X241102D01*
Y132360D01*
X242626D01*
Y92990D01*
D02*
G37*
G36*
X239578D02*
X238054D01*
Y132360D01*
X239578D01*
Y92990D01*
D02*
G37*
G36*
X237292D02*
X236530D01*
Y132360D01*
X237292D01*
Y92990D01*
D02*
G37*
G36*
X235768D02*
X235006D01*
Y132360D01*
X235768D01*
Y92990D01*
D02*
G37*
G36*
X234244D02*
X232720D01*
Y132360D01*
X234244D01*
Y92990D01*
D02*
G37*
G36*
X231958D02*
X230434D01*
Y132360D01*
X231958D01*
Y92990D01*
D02*
G37*
G36*
X228910D02*
X228148D01*
Y132360D01*
X228910D01*
Y92990D01*
D02*
G37*
G36*
X227386D02*
X226624D01*
Y132360D01*
X227386D01*
Y92990D01*
D02*
G37*
G36*
X225862D02*
X225100D01*
Y132360D01*
X225862D01*
Y92990D01*
D02*
G37*
G36*
X224338D02*
X222814D01*
Y132360D01*
X224338D01*
Y92990D01*
D02*
G37*
G36*
X222052D02*
X220528D01*
Y132360D01*
X222052D01*
Y92990D01*
D02*
G37*
G36*
X219004D02*
X218242D01*
Y132360D01*
X219004D01*
Y92990D01*
D02*
G37*
G36*
X217480D02*
X216718D01*
Y132360D01*
X217480D01*
Y92990D01*
D02*
G37*
G36*
X215956D02*
X215194D01*
Y132360D01*
X215956D01*
Y92990D01*
D02*
G37*
G36*
X214432D02*
X212908D01*
Y132360D01*
X214432D01*
Y92990D01*
D02*
G37*
G36*
X212146D02*
X211384D01*
Y132360D01*
X212146D01*
Y92990D01*
D02*
G37*
G36*
X209860D02*
X209098D01*
Y132360D01*
X209860D01*
Y92990D01*
D02*
G37*
G36*
X208336D02*
X206812D01*
Y132360D01*
X208336D01*
Y92990D01*
D02*
G37*
G36*
X206050D02*
X205288D01*
Y132360D01*
X206050D01*
Y92990D01*
D02*
G37*
G36*
X204526D02*
X203002D01*
Y132360D01*
X204526D01*
Y92990D01*
D02*
G37*
G36*
X202240D02*
X200716D01*
Y132360D01*
X202240D01*
Y92990D01*
D02*
G37*
G36*
X199192D02*
X198430D01*
Y132360D01*
X199192D01*
Y92990D01*
D02*
G37*
G36*
X197668D02*
X196906D01*
Y132360D01*
X197668D01*
Y92990D01*
D02*
G37*
G36*
X196144D02*
X195382D01*
Y132360D01*
X196144D01*
Y92990D01*
D02*
G37*
G36*
X194620D02*
X193096D01*
Y132360D01*
X194620D01*
Y92990D01*
D02*
G37*
G36*
X192334D02*
X190810D01*
Y132360D01*
X192334D01*
Y92990D01*
D02*
G37*
G36*
X190048D02*
X189286D01*
Y132360D01*
X190048D01*
Y92990D01*
D02*
G37*
G36*
X187762D02*
X187000D01*
Y132360D01*
X187762D01*
Y92990D01*
D02*
G37*
G36*
X239935Y92918D02*
X239974D01*
X240018Y92913D01*
X240124Y92891D01*
X240240Y92863D01*
X240362Y92818D01*
X240484Y92752D01*
X240546Y92713D01*
X240601Y92669D01*
X240607Y92663D01*
X240612Y92657D01*
X240629Y92641D01*
X240646Y92624D01*
X240673Y92596D01*
X240695Y92563D01*
X240757Y92485D01*
X240817Y92386D01*
X240873Y92263D01*
X240923Y92125D01*
X240956Y91969D01*
X240484Y91930D01*
Y91936D01*
X240479Y91941D01*
X240473Y91975D01*
X240457Y92025D01*
X240435Y92086D01*
X240412Y92152D01*
X240379Y92219D01*
X240340Y92280D01*
X240301Y92330D01*
X240290Y92341D01*
X240268Y92363D01*
X240229Y92397D01*
X240174Y92435D01*
X240102Y92469D01*
X240024Y92502D01*
X239930Y92524D01*
X239830Y92535D01*
X239791D01*
X239746Y92530D01*
X239696Y92519D01*
X239630Y92502D01*
X239563Y92480D01*
X239497Y92452D01*
X239430Y92408D01*
X239419Y92402D01*
X239391Y92380D01*
X239352Y92341D01*
X239302Y92286D01*
X239247Y92219D01*
X239186Y92141D01*
X239130Y92041D01*
X239075Y91930D01*
Y91925D01*
X239069Y91914D01*
X239064Y91897D01*
X239053Y91875D01*
X239047Y91842D01*
X239036Y91803D01*
X239025Y91758D01*
X239014Y91703D01*
X238997Y91642D01*
X238986Y91575D01*
X238975Y91503D01*
X238969Y91425D01*
X238958Y91337D01*
X238953Y91248D01*
X238947Y91148D01*
Y91048D01*
X238953Y91053D01*
X238975Y91087D01*
X239014Y91131D01*
X239064Y91187D01*
X239119Y91253D01*
X239191Y91314D01*
X239269Y91375D01*
X239358Y91431D01*
X239363D01*
X239369Y91436D01*
X239402Y91453D01*
X239452Y91470D01*
X239519Y91497D01*
X239597Y91520D01*
X239685Y91536D01*
X239780Y91553D01*
X239880Y91559D01*
X239924D01*
X239957Y91553D01*
X240002Y91548D01*
X240046Y91542D01*
X240102Y91531D01*
X240157Y91514D01*
X240285Y91475D01*
X240351Y91448D01*
X240418Y91409D01*
X240484Y91370D01*
X240557Y91325D01*
X240623Y91270D01*
X240684Y91209D01*
X240690Y91203D01*
X240701Y91192D01*
X240718Y91176D01*
X240734Y91148D01*
X240762Y91109D01*
X240790Y91070D01*
X240817Y91020D01*
X240851Y90965D01*
X240884Y90904D01*
X240912Y90837D01*
X240940Y90759D01*
X240967Y90682D01*
X240984Y90598D01*
X241001Y90504D01*
X241012Y90410D01*
X241017Y90310D01*
Y90304D01*
Y90293D01*
Y90276D01*
Y90249D01*
X241012Y90215D01*
Y90182D01*
X240995Y90093D01*
X240979Y89988D01*
X240951Y89877D01*
X240912Y89755D01*
X240856Y89638D01*
Y89633D01*
X240851Y89627D01*
X240840Y89610D01*
X240829Y89588D01*
X240795Y89533D01*
X240745Y89461D01*
X240684Y89383D01*
X240612Y89305D01*
X240523Y89227D01*
X240429Y89161D01*
X240423D01*
X240418Y89155D01*
X240401Y89144D01*
X240379Y89139D01*
X240324Y89111D01*
X240251Y89083D01*
X240157Y89050D01*
X240052Y89028D01*
X239935Y89006D01*
X239807Y89000D01*
X239780D01*
X239752Y89006D01*
X239707D01*
X239658Y89011D01*
X239602Y89022D01*
X239535Y89039D01*
X239469Y89056D01*
X239391Y89078D01*
X239314Y89105D01*
X239236Y89139D01*
X239153Y89183D01*
X239075Y89233D01*
X238997Y89289D01*
X238919Y89355D01*
X238847Y89433D01*
X238842Y89438D01*
X238831Y89455D01*
X238814Y89477D01*
X238792Y89516D01*
X238758Y89566D01*
X238731Y89622D01*
X238697Y89694D01*
X238664Y89771D01*
X238625Y89866D01*
X238592Y89971D01*
X238564Y90088D01*
X238537Y90215D01*
X238509Y90360D01*
X238492Y90515D01*
X238481Y90682D01*
X238475Y90859D01*
Y90865D01*
Y90870D01*
Y90887D01*
Y90909D01*
X238481Y90965D01*
Y91042D01*
X238487Y91131D01*
X238498Y91237D01*
X238509Y91353D01*
X238525Y91481D01*
X238548Y91609D01*
X238575Y91747D01*
X238609Y91880D01*
X238648Y92014D01*
X238697Y92141D01*
X238753Y92263D01*
X238814Y92380D01*
X238886Y92480D01*
X238892Y92485D01*
X238903Y92497D01*
X238925Y92519D01*
X238953Y92552D01*
X238986Y92585D01*
X239030Y92619D01*
X239086Y92663D01*
X239141Y92702D01*
X239208Y92741D01*
X239280Y92785D01*
X239363Y92818D01*
X239447Y92857D01*
X239541Y92885D01*
X239641Y92907D01*
X239746Y92918D01*
X239857Y92924D01*
X239902D01*
X239935Y92918D01*
D02*
G37*
G36*
X288106Y92408D02*
X286569D01*
X286363Y91370D01*
X286369Y91375D01*
X286380Y91381D01*
X286397Y91392D01*
X286424Y91409D01*
X286458Y91425D01*
X286496Y91448D01*
X286585Y91492D01*
X286696Y91536D01*
X286818Y91575D01*
X286952Y91603D01*
X287018Y91614D01*
X287140D01*
X287174Y91609D01*
X287218Y91603D01*
X287268Y91597D01*
X287323Y91586D01*
X287385Y91570D01*
X287518Y91531D01*
X287590Y91503D01*
X287662Y91464D01*
X287734Y91425D01*
X287806Y91381D01*
X287873Y91325D01*
X287940Y91264D01*
X287945Y91259D01*
X287956Y91248D01*
X287973Y91231D01*
X287995Y91203D01*
X288023Y91164D01*
X288051Y91126D01*
X288084Y91076D01*
X288117Y91020D01*
X288145Y90959D01*
X288178Y90893D01*
X288206Y90815D01*
X288234Y90737D01*
X288256Y90654D01*
X288273Y90560D01*
X288284Y90465D01*
X288289Y90365D01*
Y90360D01*
Y90343D01*
Y90315D01*
X288284Y90276D01*
X288278Y90232D01*
X288273Y90182D01*
X288261Y90121D01*
X288250Y90060D01*
X288217Y89916D01*
X288161Y89766D01*
X288128Y89688D01*
X288084Y89616D01*
X288039Y89538D01*
X287984Y89466D01*
X287978Y89461D01*
X287967Y89444D01*
X287945Y89422D01*
X287917Y89394D01*
X287878Y89361D01*
X287834Y89316D01*
X287779Y89277D01*
X287718Y89233D01*
X287651Y89189D01*
X287573Y89150D01*
X287490Y89111D01*
X287401Y89072D01*
X287307Y89044D01*
X287201Y89022D01*
X287090Y89006D01*
X286974Y89000D01*
X286924D01*
X286885Y89006D01*
X286841Y89011D01*
X286791Y89017D01*
X286730Y89022D01*
X286669Y89039D01*
X286530Y89072D01*
X286391Y89122D01*
X286319Y89155D01*
X286247Y89194D01*
X286180Y89239D01*
X286114Y89289D01*
X286108Y89294D01*
X286097Y89300D01*
X286086Y89322D01*
X286064Y89344D01*
X286036Y89372D01*
X286008Y89405D01*
X285975Y89450D01*
X285947Y89499D01*
X285914Y89549D01*
X285880Y89610D01*
X285819Y89744D01*
X285770Y89899D01*
X285753Y89982D01*
X285742Y90071D01*
X286236Y90110D01*
Y90104D01*
Y90093D01*
X286241Y90077D01*
X286247Y90049D01*
X286263Y89988D01*
X286286Y89905D01*
X286319Y89821D01*
X286363Y89727D01*
X286419Y89644D01*
X286485Y89566D01*
X286496Y89561D01*
X286519Y89538D01*
X286563Y89511D01*
X286624Y89477D01*
X286691Y89444D01*
X286774Y89416D01*
X286868Y89394D01*
X286974Y89389D01*
X287007D01*
X287029Y89394D01*
X287096Y89400D01*
X287174Y89422D01*
X287268Y89450D01*
X287362Y89494D01*
X287462Y89561D01*
X287507Y89599D01*
X287551Y89644D01*
X287557Y89649D01*
X287562Y89655D01*
X287573Y89672D01*
X287590Y89688D01*
X287629Y89749D01*
X287673Y89827D01*
X287712Y89921D01*
X287751Y90038D01*
X287779Y90177D01*
X287790Y90249D01*
Y90326D01*
Y90332D01*
Y90343D01*
Y90365D01*
X287784Y90393D01*
Y90426D01*
X287779Y90465D01*
X287762Y90554D01*
X287734Y90659D01*
X287695Y90765D01*
X287640Y90865D01*
X287562Y90959D01*
Y90965D01*
X287551Y90970D01*
X287523Y90998D01*
X287473Y91037D01*
X287407Y91081D01*
X287318Y91120D01*
X287218Y91159D01*
X287102Y91187D01*
X287035Y91198D01*
X286929D01*
X286885Y91192D01*
X286829Y91187D01*
X286763Y91170D01*
X286696Y91153D01*
X286624Y91126D01*
X286552Y91092D01*
X286546Y91087D01*
X286524Y91076D01*
X286491Y91048D01*
X286447Y91020D01*
X286402Y90981D01*
X286358Y90931D01*
X286308Y90881D01*
X286269Y90820D01*
X285825Y90881D01*
X286197Y92857D01*
X288106D01*
Y92408D01*
D02*
G37*
G36*
X299329Y89067D02*
X298857D01*
Y92069D01*
X298851Y92064D01*
X298824Y92041D01*
X298790Y92008D01*
X298735Y91969D01*
X298674Y91919D01*
X298596Y91864D01*
X298507Y91803D01*
X298407Y91742D01*
X298402D01*
X298396Y91736D01*
X298363Y91714D01*
X298307Y91686D01*
X298241Y91653D01*
X298163Y91614D01*
X298080Y91575D01*
X297997Y91536D01*
X297914Y91503D01*
Y91958D01*
X297919D01*
X297930Y91969D01*
X297952Y91975D01*
X297980Y91991D01*
X298013Y92008D01*
X298052Y92030D01*
X298147Y92086D01*
X298258Y92147D01*
X298369Y92225D01*
X298485Y92313D01*
X298602Y92408D01*
X298607Y92413D01*
X298613Y92419D01*
X298629Y92435D01*
X298652Y92452D01*
X298702Y92508D01*
X298768Y92574D01*
X298835Y92652D01*
X298907Y92741D01*
X298968Y92830D01*
X299024Y92924D01*
X299329D01*
Y89067D01*
D02*
G37*
G36*
X275707D02*
X275235D01*
Y92069D01*
X275229Y92064D01*
X275202Y92041D01*
X275168Y92008D01*
X275113Y91969D01*
X275052Y91919D01*
X274974Y91864D01*
X274885Y91803D01*
X274785Y91742D01*
X274780D01*
X274774Y91736D01*
X274741Y91714D01*
X274686Y91686D01*
X274619Y91653D01*
X274541Y91614D01*
X274458Y91575D01*
X274375Y91536D01*
X274291Y91503D01*
Y91958D01*
X274297D01*
X274308Y91969D01*
X274330Y91975D01*
X274358Y91991D01*
X274391Y92008D01*
X274430Y92030D01*
X274524Y92086D01*
X274636Y92147D01*
X274746Y92225D01*
X274863Y92313D01*
X274980Y92408D01*
X274985Y92413D01*
X274991Y92419D01*
X275007Y92435D01*
X275030Y92452D01*
X275080Y92508D01*
X275146Y92574D01*
X275213Y92652D01*
X275285Y92741D01*
X275346Y92830D01*
X275401Y92924D01*
X275707D01*
Y89067D01*
D02*
G37*
G36*
X263896D02*
X263424D01*
Y92069D01*
X263418Y92064D01*
X263391Y92041D01*
X263357Y92008D01*
X263302Y91969D01*
X263241Y91919D01*
X263163Y91864D01*
X263074Y91803D01*
X262974Y91742D01*
X262969D01*
X262963Y91736D01*
X262930Y91714D01*
X262875Y91686D01*
X262808Y91653D01*
X262730Y91614D01*
X262647Y91575D01*
X262564Y91536D01*
X262480Y91503D01*
Y91958D01*
X262486D01*
X262497Y91969D01*
X262519Y91975D01*
X262547Y91991D01*
X262580Y92008D01*
X262619Y92030D01*
X262714Y92086D01*
X262825Y92147D01*
X262935Y92225D01*
X263052Y92313D01*
X263169Y92408D01*
X263174Y92413D01*
X263180Y92419D01*
X263196Y92435D01*
X263219Y92452D01*
X263268Y92508D01*
X263335Y92574D01*
X263402Y92652D01*
X263474Y92741D01*
X263535Y92830D01*
X263590Y92924D01*
X263896D01*
Y89067D01*
D02*
G37*
G36*
X251641Y92918D02*
X251685Y92913D01*
X251735Y92907D01*
X251790Y92902D01*
X251846Y92885D01*
X251979Y92852D01*
X252112Y92802D01*
X252179Y92768D01*
X252246Y92730D01*
X252307Y92680D01*
X252368Y92630D01*
X252373Y92624D01*
X252379Y92619D01*
X252396Y92602D01*
X252418Y92580D01*
X252440Y92546D01*
X252468Y92513D01*
X252523Y92430D01*
X252579Y92325D01*
X252629Y92202D01*
X252667Y92064D01*
X252673Y91991D01*
X252678Y91914D01*
Y91908D01*
Y91903D01*
Y91869D01*
X252673Y91819D01*
X252662Y91758D01*
X252645Y91681D01*
X252618Y91603D01*
X252584Y91525D01*
X252534Y91448D01*
X252529Y91436D01*
X252506Y91414D01*
X252473Y91381D01*
X252429Y91337D01*
X252368Y91287D01*
X252296Y91237D01*
X252212Y91187D01*
X252112Y91142D01*
X252118D01*
X252129Y91137D01*
X252146Y91131D01*
X252168Y91120D01*
X252235Y91092D01*
X252312Y91053D01*
X252396Y90998D01*
X252484Y90937D01*
X252568Y90859D01*
X252645Y90771D01*
Y90765D01*
X252651Y90759D01*
X252673Y90726D01*
X252706Y90671D01*
X252740Y90598D01*
X252773Y90510D01*
X252806Y90404D01*
X252828Y90288D01*
X252834Y90160D01*
Y90154D01*
Y90138D01*
Y90110D01*
X252828Y90077D01*
X252823Y90038D01*
X252817Y89988D01*
X252806Y89932D01*
X252789Y89871D01*
X252751Y89744D01*
X252723Y89672D01*
X252684Y89605D01*
X252645Y89533D01*
X252601Y89466D01*
X252545Y89400D01*
X252484Y89333D01*
X252479Y89327D01*
X252468Y89316D01*
X252451Y89300D01*
X252423Y89283D01*
X252384Y89255D01*
X252345Y89227D01*
X252296Y89200D01*
X252240Y89166D01*
X252179Y89133D01*
X252107Y89105D01*
X252029Y89078D01*
X251952Y89050D01*
X251863Y89033D01*
X251768Y89017D01*
X251674Y89006D01*
X251569Y89000D01*
X251513D01*
X251474Y89006D01*
X251424Y89011D01*
X251369Y89017D01*
X251308Y89028D01*
X251241Y89044D01*
X251091Y89083D01*
X251013Y89111D01*
X250941Y89139D01*
X250864Y89178D01*
X250786Y89222D01*
X250714Y89272D01*
X250647Y89333D01*
X250642Y89338D01*
X250631Y89350D01*
X250614Y89366D01*
X250592Y89394D01*
X250570Y89427D01*
X250536Y89466D01*
X250508Y89511D01*
X250475Y89566D01*
X250442Y89622D01*
X250414Y89688D01*
X250359Y89827D01*
X250336Y89910D01*
X250320Y89993D01*
X250309Y90082D01*
X250303Y90171D01*
Y90177D01*
Y90188D01*
Y90210D01*
X250309Y90232D01*
Y90265D01*
X250314Y90304D01*
X250325Y90393D01*
X250347Y90493D01*
X250381Y90593D01*
X250431Y90698D01*
X250492Y90798D01*
Y90804D01*
X250503Y90809D01*
X250525Y90837D01*
X250570Y90881D01*
X250631Y90937D01*
X250708Y90992D01*
X250803Y91053D01*
X250908Y91103D01*
X251036Y91142D01*
X251030D01*
X251025Y91148D01*
X251008Y91153D01*
X250986Y91164D01*
X250936Y91187D01*
X250869Y91220D01*
X250797Y91264D01*
X250725Y91320D01*
X250658Y91381D01*
X250597Y91448D01*
X250592Y91459D01*
X250575Y91481D01*
X250553Y91525D01*
X250531Y91581D01*
X250503Y91653D01*
X250481Y91736D01*
X250464Y91830D01*
X250459Y91930D01*
Y91936D01*
Y91947D01*
Y91969D01*
X250464Y92002D01*
X250470Y92036D01*
X250475Y92080D01*
X250497Y92175D01*
X250531Y92286D01*
X250586Y92402D01*
X250620Y92463D01*
X250658Y92524D01*
X250708Y92580D01*
X250758Y92635D01*
X250764Y92641D01*
X250775Y92646D01*
X250792Y92663D01*
X250814Y92680D01*
X250841Y92702D01*
X250880Y92724D01*
X250925Y92752D01*
X250969Y92779D01*
X251025Y92807D01*
X251086Y92835D01*
X251152Y92857D01*
X251224Y92879D01*
X251380Y92913D01*
X251469Y92918D01*
X251557Y92924D01*
X251607D01*
X251641Y92918D01*
D02*
G37*
G36*
X228052D02*
X228124Y92907D01*
X228207Y92891D01*
X228296Y92868D01*
X228391Y92841D01*
X228479Y92796D01*
X228485D01*
X228490Y92791D01*
X228518Y92774D01*
X228562Y92746D01*
X228618Y92707D01*
X228679Y92652D01*
X228746Y92591D01*
X228807Y92519D01*
X228868Y92435D01*
X228873Y92424D01*
X228895Y92397D01*
X228918Y92347D01*
X228957Y92274D01*
X228990Y92191D01*
X229034Y92097D01*
X229073Y91986D01*
X229106Y91864D01*
Y91858D01*
X229112Y91847D01*
X229117Y91830D01*
X229123Y91803D01*
X229129Y91769D01*
X229134Y91731D01*
X229145Y91681D01*
X229151Y91625D01*
X229162Y91564D01*
X229168Y91497D01*
X229173Y91420D01*
X229184Y91342D01*
X229190Y91253D01*
Y91164D01*
X229195Y91065D01*
Y90959D01*
Y90954D01*
Y90931D01*
Y90893D01*
Y90848D01*
X229190Y90787D01*
Y90720D01*
X229184Y90648D01*
X229179Y90571D01*
X229162Y90393D01*
X229134Y90210D01*
X229101Y90032D01*
X229079Y89949D01*
X229051Y89866D01*
Y89860D01*
X229045Y89849D01*
X229034Y89827D01*
X229023Y89799D01*
X229012Y89760D01*
X228990Y89722D01*
X228945Y89627D01*
X228890Y89527D01*
X228818Y89416D01*
X228735Y89316D01*
X228635Y89222D01*
X228629D01*
X228624Y89211D01*
X228607Y89200D01*
X228585Y89189D01*
X228557Y89172D01*
X228529Y89150D01*
X228446Y89111D01*
X228346Y89072D01*
X228229Y89033D01*
X228091Y89011D01*
X227941Y89000D01*
X227885D01*
X227847Y89006D01*
X227802Y89011D01*
X227747Y89022D01*
X227686Y89033D01*
X227619Y89050D01*
X227552Y89072D01*
X227480Y89094D01*
X227408Y89128D01*
X227336Y89166D01*
X227264Y89211D01*
X227192Y89266D01*
X227125Y89327D01*
X227064Y89394D01*
X227059Y89400D01*
X227047Y89416D01*
X227031Y89444D01*
X227003Y89488D01*
X226975Y89538D01*
X226947Y89605D01*
X226909Y89683D01*
X226875Y89771D01*
X226842Y89871D01*
X226809Y89988D01*
X226775Y90115D01*
X226748Y90260D01*
X226720Y90415D01*
X226703Y90582D01*
X226692Y90765D01*
X226687Y90959D01*
Y90965D01*
Y90987D01*
Y91026D01*
Y91070D01*
X226692Y91131D01*
Y91198D01*
X226698Y91270D01*
X226703Y91353D01*
X226720Y91525D01*
X226748Y91708D01*
X226781Y91891D01*
X226803Y91975D01*
X226825Y92058D01*
Y92064D01*
X226831Y92075D01*
X226842Y92097D01*
X226853Y92125D01*
X226864Y92163D01*
X226886Y92202D01*
X226931Y92297D01*
X226986Y92397D01*
X227059Y92502D01*
X227142Y92607D01*
X227242Y92696D01*
X227247D01*
X227253Y92707D01*
X227269Y92718D01*
X227292Y92730D01*
X227319Y92752D01*
X227353Y92768D01*
X227436Y92813D01*
X227536Y92852D01*
X227652Y92891D01*
X227791Y92913D01*
X227941Y92924D01*
X227991D01*
X228052Y92918D01*
D02*
G37*
G36*
X216241D02*
X216313Y92907D01*
X216396Y92891D01*
X216485Y92868D01*
X216579Y92841D01*
X216668Y92796D01*
X216674D01*
X216679Y92791D01*
X216707Y92774D01*
X216752Y92746D01*
X216807Y92707D01*
X216868Y92652D01*
X216935Y92591D01*
X216996Y92519D01*
X217057Y92435D01*
X217062Y92424D01*
X217085Y92397D01*
X217107Y92347D01*
X217146Y92274D01*
X217179Y92191D01*
X217223Y92097D01*
X217262Y91986D01*
X217295Y91864D01*
Y91858D01*
X217301Y91847D01*
X217306Y91830D01*
X217312Y91803D01*
X217318Y91769D01*
X217323Y91731D01*
X217334Y91681D01*
X217340Y91625D01*
X217351Y91564D01*
X217356Y91497D01*
X217362Y91420D01*
X217373Y91342D01*
X217379Y91253D01*
Y91164D01*
X217384Y91065D01*
Y90959D01*
Y90954D01*
Y90931D01*
Y90893D01*
Y90848D01*
X217379Y90787D01*
Y90720D01*
X217373Y90648D01*
X217368Y90571D01*
X217351Y90393D01*
X217323Y90210D01*
X217290Y90032D01*
X217268Y89949D01*
X217240Y89866D01*
Y89860D01*
X217234Y89849D01*
X217223Y89827D01*
X217212Y89799D01*
X217201Y89760D01*
X217179Y89722D01*
X217134Y89627D01*
X217079Y89527D01*
X217007Y89416D01*
X216923Y89316D01*
X216824Y89222D01*
X216818D01*
X216813Y89211D01*
X216796Y89200D01*
X216774Y89189D01*
X216746Y89172D01*
X216718Y89150D01*
X216635Y89111D01*
X216535Y89072D01*
X216419Y89033D01*
X216280Y89011D01*
X216130Y89000D01*
X216074D01*
X216036Y89006D01*
X215991Y89011D01*
X215936Y89022D01*
X215875Y89033D01*
X215808Y89050D01*
X215741Y89072D01*
X215669Y89094D01*
X215597Y89128D01*
X215525Y89166D01*
X215453Y89211D01*
X215381Y89266D01*
X215314Y89327D01*
X215253Y89394D01*
X215247Y89400D01*
X215236Y89416D01*
X215220Y89444D01*
X215192Y89488D01*
X215164Y89538D01*
X215137Y89605D01*
X215098Y89683D01*
X215064Y89771D01*
X215031Y89871D01*
X214998Y89988D01*
X214964Y90115D01*
X214937Y90260D01*
X214909Y90415D01*
X214892Y90582D01*
X214881Y90765D01*
X214876Y90959D01*
Y90965D01*
Y90987D01*
Y91026D01*
Y91070D01*
X214881Y91131D01*
Y91198D01*
X214887Y91270D01*
X214892Y91353D01*
X214909Y91525D01*
X214937Y91708D01*
X214970Y91891D01*
X214992Y91975D01*
X215014Y92058D01*
Y92064D01*
X215020Y92075D01*
X215031Y92097D01*
X215042Y92125D01*
X215053Y92163D01*
X215075Y92202D01*
X215120Y92297D01*
X215175Y92397D01*
X215247Y92502D01*
X215331Y92607D01*
X215431Y92696D01*
X215436D01*
X215442Y92707D01*
X215458Y92718D01*
X215480Y92730D01*
X215508Y92752D01*
X215542Y92768D01*
X215625Y92813D01*
X215725Y92852D01*
X215841Y92891D01*
X215980Y92913D01*
X216130Y92924D01*
X216180D01*
X216241Y92918D01*
D02*
G37*
G36*
X204397D02*
X204441Y92913D01*
X204491Y92907D01*
X204546Y92902D01*
X204602Y92885D01*
X204735Y92852D01*
X204868Y92802D01*
X204935Y92768D01*
X205001Y92730D01*
X205063Y92680D01*
X205124Y92630D01*
X205129Y92624D01*
X205135Y92619D01*
X205151Y92602D01*
X205174Y92580D01*
X205196Y92546D01*
X205223Y92513D01*
X205279Y92430D01*
X205334Y92325D01*
X205384Y92202D01*
X205423Y92064D01*
X205429Y91991D01*
X205434Y91914D01*
Y91908D01*
Y91903D01*
Y91869D01*
X205429Y91819D01*
X205418Y91758D01*
X205401Y91681D01*
X205373Y91603D01*
X205340Y91525D01*
X205290Y91448D01*
X205285Y91436D01*
X205262Y91414D01*
X205229Y91381D01*
X205185Y91337D01*
X205124Y91287D01*
X205051Y91237D01*
X204968Y91187D01*
X204868Y91142D01*
X204874D01*
X204885Y91137D01*
X204902Y91131D01*
X204924Y91120D01*
X204990Y91092D01*
X205068Y91053D01*
X205151Y90998D01*
X205240Y90937D01*
X205323Y90859D01*
X205401Y90771D01*
Y90765D01*
X205407Y90759D01*
X205429Y90726D01*
X205462Y90671D01*
X205496Y90598D01*
X205529Y90510D01*
X205562Y90404D01*
X205584Y90288D01*
X205590Y90160D01*
Y90154D01*
Y90138D01*
Y90110D01*
X205584Y90077D01*
X205579Y90038D01*
X205573Y89988D01*
X205562Y89932D01*
X205545Y89871D01*
X205507Y89744D01*
X205479Y89672D01*
X205440Y89605D01*
X205401Y89533D01*
X205357Y89466D01*
X205301Y89400D01*
X205240Y89333D01*
X205235Y89327D01*
X205223Y89316D01*
X205207Y89300D01*
X205179Y89283D01*
X205140Y89255D01*
X205101Y89227D01*
X205051Y89200D01*
X204996Y89166D01*
X204935Y89133D01*
X204863Y89105D01*
X204785Y89078D01*
X204707Y89050D01*
X204619Y89033D01*
X204524Y89017D01*
X204430Y89006D01*
X204324Y89000D01*
X204269D01*
X204230Y89006D01*
X204180Y89011D01*
X204125Y89017D01*
X204064Y89028D01*
X203997Y89044D01*
X203847Y89083D01*
X203769Y89111D01*
X203697Y89139D01*
X203620Y89178D01*
X203542Y89222D01*
X203470Y89272D01*
X203403Y89333D01*
X203398Y89338D01*
X203386Y89350D01*
X203370Y89366D01*
X203348Y89394D01*
X203325Y89427D01*
X203292Y89466D01*
X203264Y89511D01*
X203231Y89566D01*
X203198Y89622D01*
X203170Y89688D01*
X203115Y89827D01*
X203092Y89910D01*
X203076Y89993D01*
X203065Y90082D01*
X203059Y90171D01*
Y90177D01*
Y90188D01*
Y90210D01*
X203065Y90232D01*
Y90265D01*
X203070Y90304D01*
X203081Y90393D01*
X203103Y90493D01*
X203137Y90593D01*
X203187Y90698D01*
X203248Y90798D01*
Y90804D01*
X203259Y90809D01*
X203281Y90837D01*
X203325Y90881D01*
X203386Y90937D01*
X203464Y90992D01*
X203558Y91053D01*
X203664Y91103D01*
X203792Y91142D01*
X203786D01*
X203781Y91148D01*
X203764Y91153D01*
X203742Y91164D01*
X203692Y91187D01*
X203625Y91220D01*
X203553Y91264D01*
X203481Y91320D01*
X203414Y91381D01*
X203353Y91448D01*
X203348Y91459D01*
X203331Y91481D01*
X203309Y91525D01*
X203287Y91581D01*
X203259Y91653D01*
X203237Y91736D01*
X203220Y91830D01*
X203214Y91930D01*
Y91936D01*
Y91947D01*
Y91969D01*
X203220Y92002D01*
X203225Y92036D01*
X203231Y92080D01*
X203253Y92175D01*
X203287Y92286D01*
X203342Y92402D01*
X203375Y92463D01*
X203414Y92524D01*
X203464Y92580D01*
X203514Y92635D01*
X203520Y92641D01*
X203531Y92646D01*
X203547Y92663D01*
X203570Y92680D01*
X203597Y92702D01*
X203636Y92724D01*
X203681Y92752D01*
X203725Y92779D01*
X203781Y92807D01*
X203842Y92835D01*
X203908Y92857D01*
X203980Y92879D01*
X204136Y92913D01*
X204224Y92918D01*
X204313Y92924D01*
X204363D01*
X204397Y92918D01*
D02*
G37*
G36*
X192619D02*
X192691Y92907D01*
X192774Y92891D01*
X192863Y92868D01*
X192957Y92841D01*
X193046Y92796D01*
X193052D01*
X193057Y92791D01*
X193085Y92774D01*
X193130Y92746D01*
X193185Y92707D01*
X193246Y92652D01*
X193313Y92591D01*
X193374Y92519D01*
X193435Y92435D01*
X193440Y92424D01*
X193463Y92397D01*
X193485Y92347D01*
X193524Y92274D01*
X193557Y92191D01*
X193601Y92097D01*
X193640Y91986D01*
X193673Y91864D01*
Y91858D01*
X193679Y91847D01*
X193684Y91830D01*
X193690Y91803D01*
X193696Y91769D01*
X193701Y91731D01*
X193712Y91681D01*
X193718Y91625D01*
X193729Y91564D01*
X193734Y91497D01*
X193740Y91420D01*
X193751Y91342D01*
X193757Y91253D01*
Y91164D01*
X193762Y91065D01*
Y90959D01*
Y90954D01*
Y90931D01*
Y90893D01*
Y90848D01*
X193757Y90787D01*
Y90720D01*
X193751Y90648D01*
X193746Y90571D01*
X193729Y90393D01*
X193701Y90210D01*
X193668Y90032D01*
X193646Y89949D01*
X193618Y89866D01*
Y89860D01*
X193612Y89849D01*
X193601Y89827D01*
X193590Y89799D01*
X193579Y89760D01*
X193557Y89722D01*
X193512Y89627D01*
X193457Y89527D01*
X193385Y89416D01*
X193301Y89316D01*
X193202Y89222D01*
X193196D01*
X193191Y89211D01*
X193174Y89200D01*
X193152Y89189D01*
X193124Y89172D01*
X193096Y89150D01*
X193013Y89111D01*
X192913Y89072D01*
X192797Y89033D01*
X192658Y89011D01*
X192508Y89000D01*
X192452D01*
X192413Y89006D01*
X192369Y89011D01*
X192314Y89022D01*
X192253Y89033D01*
X192186Y89050D01*
X192119Y89072D01*
X192047Y89094D01*
X191975Y89128D01*
X191903Y89166D01*
X191831Y89211D01*
X191759Y89266D01*
X191692Y89327D01*
X191631Y89394D01*
X191625Y89400D01*
X191614Y89416D01*
X191598Y89444D01*
X191570Y89488D01*
X191542Y89538D01*
X191514Y89605D01*
X191476Y89683D01*
X191442Y89771D01*
X191409Y89871D01*
X191376Y89988D01*
X191342Y90115D01*
X191315Y90260D01*
X191287Y90415D01*
X191270Y90582D01*
X191259Y90765D01*
X191254Y90959D01*
Y90965D01*
Y90987D01*
Y91026D01*
Y91070D01*
X191259Y91131D01*
Y91198D01*
X191265Y91270D01*
X191270Y91353D01*
X191287Y91525D01*
X191315Y91708D01*
X191348Y91891D01*
X191370Y91975D01*
X191392Y92058D01*
Y92064D01*
X191398Y92075D01*
X191409Y92097D01*
X191420Y92125D01*
X191431Y92163D01*
X191453Y92202D01*
X191498Y92297D01*
X191553Y92397D01*
X191625Y92502D01*
X191709Y92607D01*
X191809Y92696D01*
X191814D01*
X191820Y92707D01*
X191836Y92718D01*
X191858Y92730D01*
X191886Y92752D01*
X191920Y92768D01*
X192003Y92813D01*
X192103Y92852D01*
X192219Y92891D01*
X192358Y92913D01*
X192508Y92924D01*
X192558D01*
X192619Y92918D01*
D02*
G37*
%LPC*%
G36*
X239785Y91142D02*
X239752D01*
X239730Y91137D01*
X239674Y91131D01*
X239597Y91114D01*
X239513Y91087D01*
X239419Y91042D01*
X239330Y90987D01*
X239241Y90909D01*
X239230Y90898D01*
X239208Y90870D01*
X239169Y90820D01*
X239130Y90748D01*
X239091Y90665D01*
X239053Y90560D01*
X239030Y90443D01*
X239019Y90310D01*
Y90299D01*
Y90271D01*
X239025Y90221D01*
X239030Y90160D01*
X239041Y90088D01*
X239064Y90010D01*
X239086Y89927D01*
X239119Y89844D01*
X239125Y89833D01*
X239141Y89805D01*
X239164Y89766D01*
X239197Y89716D01*
X239236Y89666D01*
X239286Y89605D01*
X239341Y89555D01*
X239408Y89505D01*
X239419Y89499D01*
X239441Y89488D01*
X239480Y89466D01*
X239530Y89450D01*
X239585Y89427D01*
X239652Y89405D01*
X239724Y89394D01*
X239802Y89389D01*
X239830D01*
X239852Y89394D01*
X239907Y89400D01*
X239980Y89416D01*
X240057Y89450D01*
X240146Y89488D01*
X240235Y89549D01*
X240279Y89583D01*
X240318Y89627D01*
Y89633D01*
X240329Y89638D01*
X240351Y89672D01*
X240385Y89727D01*
X240429Y89799D01*
X240468Y89894D01*
X240501Y90004D01*
X240523Y90132D01*
X240534Y90282D01*
Y90288D01*
Y90299D01*
Y90321D01*
X240529Y90349D01*
Y90382D01*
X240523Y90421D01*
X240507Y90510D01*
X240484Y90610D01*
X240446Y90715D01*
X240390Y90815D01*
X240318Y90909D01*
X240307Y90920D01*
X240279Y90948D01*
X240235Y90981D01*
X240174Y91026D01*
X240096Y91070D01*
X240007Y91103D01*
X239902Y91131D01*
X239785Y91142D01*
D02*
G37*
G36*
X251569Y92535D02*
X251524D01*
X251474Y92524D01*
X251408Y92513D01*
X251335Y92491D01*
X251258Y92463D01*
X251186Y92419D01*
X251113Y92358D01*
X251108Y92352D01*
X251086Y92330D01*
X251058Y92291D01*
X251030Y92241D01*
X250997Y92180D01*
X250969Y92108D01*
X250947Y92030D01*
X250941Y91941D01*
Y91936D01*
Y91930D01*
X250947Y91897D01*
X250953Y91847D01*
X250964Y91786D01*
X250986Y91714D01*
X251013Y91642D01*
X251058Y91564D01*
X251113Y91497D01*
X251119Y91492D01*
X251147Y91470D01*
X251186Y91442D01*
X251236Y91414D01*
X251302Y91381D01*
X251380Y91353D01*
X251469Y91331D01*
X251569Y91325D01*
X251580D01*
X251613Y91331D01*
X251663Y91337D01*
X251729Y91348D01*
X251802Y91370D01*
X251874Y91398D01*
X251952Y91442D01*
X252018Y91497D01*
X252024Y91503D01*
X252046Y91531D01*
X252074Y91564D01*
X252107Y91614D01*
X252140Y91675D01*
X252168Y91747D01*
X252190Y91830D01*
X252196Y91919D01*
Y91925D01*
Y91930D01*
Y91964D01*
X252185Y92014D01*
X252173Y92075D01*
X252151Y92141D01*
X252118Y92213D01*
X252074Y92286D01*
X252012Y92358D01*
X252007Y92363D01*
X251979Y92386D01*
X251940Y92413D01*
X251890Y92447D01*
X251824Y92480D01*
X251752Y92508D01*
X251663Y92530D01*
X251569Y92535D01*
D02*
G37*
G36*
X251552Y90943D02*
X251519D01*
X251496Y90937D01*
X251435Y90931D01*
X251358Y90915D01*
X251269Y90887D01*
X251180Y90848D01*
X251086Y90793D01*
X251002Y90720D01*
X250991Y90709D01*
X250969Y90682D01*
X250936Y90632D01*
X250897Y90571D01*
X250853Y90487D01*
X250819Y90393D01*
X250797Y90288D01*
X250786Y90171D01*
Y90160D01*
Y90138D01*
X250792Y90099D01*
X250797Y90049D01*
X250808Y89988D01*
X250825Y89921D01*
X250847Y89855D01*
X250875Y89783D01*
X250880Y89777D01*
X250891Y89749D01*
X250914Y89716D01*
X250947Y89677D01*
X250986Y89627D01*
X251036Y89577D01*
X251091Y89533D01*
X251158Y89488D01*
X251169Y89483D01*
X251191Y89472D01*
X251230Y89455D01*
X251280Y89438D01*
X251341Y89422D01*
X251413Y89405D01*
X251491Y89394D01*
X251569Y89389D01*
X251602D01*
X251624Y89394D01*
X251691Y89400D01*
X251768Y89416D01*
X251857Y89444D01*
X251952Y89477D01*
X252040Y89533D01*
X252129Y89605D01*
X252140Y89616D01*
X252162Y89644D01*
X252201Y89694D01*
X252240Y89755D01*
X252279Y89833D01*
X252318Y89927D01*
X252340Y90038D01*
X252351Y90154D01*
Y90160D01*
Y90171D01*
Y90188D01*
X252345Y90210D01*
X252340Y90271D01*
X252323Y90354D01*
X252296Y90438D01*
X252257Y90532D01*
X252201Y90626D01*
X252123Y90715D01*
X252112Y90726D01*
X252085Y90748D01*
X252035Y90787D01*
X251968Y90832D01*
X251885Y90870D01*
X251785Y90909D01*
X251674Y90931D01*
X251552Y90943D01*
D02*
G37*
G36*
X227935Y92535D02*
X227902D01*
X227880Y92530D01*
X227819Y92519D01*
X227747Y92502D01*
X227663Y92469D01*
X227575Y92419D01*
X227530Y92386D01*
X227486Y92352D01*
X227447Y92308D01*
X227408Y92258D01*
Y92252D01*
X227397Y92241D01*
X227386Y92219D01*
X227369Y92191D01*
X227353Y92147D01*
X227330Y92097D01*
X227314Y92036D01*
X227292Y91964D01*
X227269Y91880D01*
X227247Y91786D01*
X227225Y91681D01*
X227208Y91564D01*
X227192Y91431D01*
X227181Y91287D01*
X227175Y91131D01*
X227169Y90959D01*
Y90948D01*
Y90920D01*
Y90870D01*
X227175Y90804D01*
Y90732D01*
X227181Y90643D01*
X227186Y90548D01*
X227197Y90449D01*
X227225Y90232D01*
X227242Y90127D01*
X227264Y90027D01*
X227286Y89932D01*
X227319Y89844D01*
X227353Y89766D01*
X227392Y89699D01*
Y89694D01*
X227403Y89688D01*
X227430Y89649D01*
X227480Y89599D01*
X227541Y89544D01*
X227625Y89488D01*
X227719Y89438D01*
X227824Y89400D01*
X227880Y89394D01*
X227941Y89389D01*
X227974D01*
X227996Y89394D01*
X228052Y89405D01*
X228130Y89427D01*
X228213Y89466D01*
X228307Y89522D01*
X228352Y89555D01*
X228396Y89599D01*
X228440Y89644D01*
X228485Y89699D01*
Y89705D01*
X228496Y89716D01*
X228507Y89733D01*
X228518Y89760D01*
X228540Y89799D01*
X228557Y89849D01*
X228579Y89905D01*
X228601Y89971D01*
X228618Y90055D01*
X228640Y90143D01*
X228662Y90249D01*
X228679Y90360D01*
X228690Y90493D01*
X228701Y90632D01*
X228712Y90787D01*
Y90959D01*
Y90965D01*
Y90970D01*
Y90998D01*
Y91048D01*
X228707Y91114D01*
Y91187D01*
X228701Y91276D01*
X228696Y91370D01*
X228685Y91475D01*
X228657Y91686D01*
X228640Y91792D01*
X228618Y91891D01*
X228596Y91986D01*
X228562Y92075D01*
X228529Y92152D01*
X228490Y92219D01*
Y92225D01*
X228479Y92230D01*
X228468Y92247D01*
X228451Y92269D01*
X228402Y92319D01*
X228341Y92380D01*
X228257Y92435D01*
X228163Y92485D01*
X228113Y92508D01*
X228058Y92524D01*
X227996Y92530D01*
X227935Y92535D01*
D02*
G37*
G36*
X216124D02*
X216091D01*
X216069Y92530D01*
X216008Y92519D01*
X215936Y92502D01*
X215852Y92469D01*
X215764Y92419D01*
X215719Y92386D01*
X215675Y92352D01*
X215636Y92308D01*
X215597Y92258D01*
Y92252D01*
X215586Y92241D01*
X215575Y92219D01*
X215558Y92191D01*
X215542Y92147D01*
X215519Y92097D01*
X215503Y92036D01*
X215480Y91964D01*
X215458Y91880D01*
X215436Y91786D01*
X215414Y91681D01*
X215397Y91564D01*
X215381Y91431D01*
X215370Y91287D01*
X215364Y91131D01*
X215358Y90959D01*
Y90948D01*
Y90920D01*
Y90870D01*
X215364Y90804D01*
Y90732D01*
X215370Y90643D01*
X215375Y90548D01*
X215386Y90449D01*
X215414Y90232D01*
X215431Y90127D01*
X215453Y90027D01*
X215475Y89932D01*
X215508Y89844D01*
X215542Y89766D01*
X215581Y89699D01*
Y89694D01*
X215592Y89688D01*
X215619Y89649D01*
X215669Y89599D01*
X215730Y89544D01*
X215813Y89488D01*
X215908Y89438D01*
X216013Y89400D01*
X216069Y89394D01*
X216130Y89389D01*
X216163D01*
X216185Y89394D01*
X216241Y89405D01*
X216319Y89427D01*
X216402Y89466D01*
X216496Y89522D01*
X216541Y89555D01*
X216585Y89599D01*
X216629Y89644D01*
X216674Y89699D01*
Y89705D01*
X216685Y89716D01*
X216696Y89733D01*
X216707Y89760D01*
X216729Y89799D01*
X216746Y89849D01*
X216768Y89905D01*
X216790Y89971D01*
X216807Y90055D01*
X216829Y90143D01*
X216851Y90249D01*
X216868Y90360D01*
X216879Y90493D01*
X216890Y90632D01*
X216901Y90787D01*
Y90959D01*
Y90965D01*
Y90970D01*
Y90998D01*
Y91048D01*
X216896Y91114D01*
Y91187D01*
X216890Y91276D01*
X216885Y91370D01*
X216874Y91475D01*
X216846Y91686D01*
X216829Y91792D01*
X216807Y91891D01*
X216785Y91986D01*
X216752Y92075D01*
X216718Y92152D01*
X216679Y92219D01*
Y92225D01*
X216668Y92230D01*
X216657Y92247D01*
X216640Y92269D01*
X216590Y92319D01*
X216529Y92380D01*
X216446Y92435D01*
X216352Y92485D01*
X216302Y92508D01*
X216247Y92524D01*
X216185Y92530D01*
X216124Y92535D01*
D02*
G37*
G36*
X204324D02*
X204280D01*
X204230Y92524D01*
X204164Y92513D01*
X204091Y92491D01*
X204014Y92463D01*
X203941Y92419D01*
X203869Y92358D01*
X203864Y92352D01*
X203842Y92330D01*
X203814Y92291D01*
X203786Y92241D01*
X203753Y92180D01*
X203725Y92108D01*
X203703Y92030D01*
X203697Y91941D01*
Y91936D01*
Y91930D01*
X203703Y91897D01*
X203708Y91847D01*
X203719Y91786D01*
X203742Y91714D01*
X203769Y91642D01*
X203814Y91564D01*
X203869Y91497D01*
X203875Y91492D01*
X203903Y91470D01*
X203941Y91442D01*
X203991Y91414D01*
X204058Y91381D01*
X204136Y91353D01*
X204224Y91331D01*
X204324Y91325D01*
X204335D01*
X204369Y91331D01*
X204419Y91337D01*
X204485Y91348D01*
X204557Y91370D01*
X204630Y91398D01*
X204707Y91442D01*
X204774Y91497D01*
X204780Y91503D01*
X204802Y91531D01*
X204830Y91564D01*
X204863Y91614D01*
X204896Y91675D01*
X204924Y91747D01*
X204946Y91830D01*
X204952Y91919D01*
Y91925D01*
Y91930D01*
Y91964D01*
X204941Y92014D01*
X204929Y92075D01*
X204907Y92141D01*
X204874Y92213D01*
X204830Y92286D01*
X204768Y92358D01*
X204763Y92363D01*
X204735Y92386D01*
X204696Y92413D01*
X204646Y92447D01*
X204580Y92480D01*
X204508Y92508D01*
X204419Y92530D01*
X204324Y92535D01*
D02*
G37*
G36*
X204308Y90943D02*
X204275D01*
X204252Y90937D01*
X204191Y90931D01*
X204114Y90915D01*
X204025Y90887D01*
X203936Y90848D01*
X203842Y90793D01*
X203758Y90720D01*
X203747Y90709D01*
X203725Y90682D01*
X203692Y90632D01*
X203653Y90571D01*
X203608Y90487D01*
X203575Y90393D01*
X203553Y90288D01*
X203542Y90171D01*
Y90160D01*
Y90138D01*
X203547Y90099D01*
X203553Y90049D01*
X203564Y89988D01*
X203581Y89921D01*
X203603Y89855D01*
X203631Y89783D01*
X203636Y89777D01*
X203647Y89749D01*
X203670Y89716D01*
X203703Y89677D01*
X203742Y89627D01*
X203792Y89577D01*
X203847Y89533D01*
X203914Y89488D01*
X203925Y89483D01*
X203947Y89472D01*
X203986Y89455D01*
X204036Y89438D01*
X204097Y89422D01*
X204169Y89405D01*
X204247Y89394D01*
X204324Y89389D01*
X204358D01*
X204380Y89394D01*
X204447Y89400D01*
X204524Y89416D01*
X204613Y89444D01*
X204707Y89477D01*
X204796Y89533D01*
X204885Y89605D01*
X204896Y89616D01*
X204918Y89644D01*
X204957Y89694D01*
X204996Y89755D01*
X205035Y89833D01*
X205074Y89927D01*
X205096Y90038D01*
X205107Y90154D01*
Y90160D01*
Y90171D01*
Y90188D01*
X205101Y90210D01*
X205096Y90271D01*
X205079Y90354D01*
X205051Y90438D01*
X205013Y90532D01*
X204957Y90626D01*
X204879Y90715D01*
X204868Y90726D01*
X204841Y90748D01*
X204791Y90787D01*
X204724Y90832D01*
X204641Y90870D01*
X204541Y90909D01*
X204430Y90931D01*
X204308Y90943D01*
D02*
G37*
G36*
X192502Y92535D02*
X192469D01*
X192447Y92530D01*
X192386Y92519D01*
X192314Y92502D01*
X192230Y92469D01*
X192142Y92419D01*
X192097Y92386D01*
X192053Y92352D01*
X192014Y92308D01*
X191975Y92258D01*
Y92252D01*
X191964Y92241D01*
X191953Y92219D01*
X191936Y92191D01*
X191920Y92147D01*
X191897Y92097D01*
X191881Y92036D01*
X191858Y91964D01*
X191836Y91880D01*
X191814Y91786D01*
X191792Y91681D01*
X191775Y91564D01*
X191759Y91431D01*
X191747Y91287D01*
X191742Y91131D01*
X191736Y90959D01*
Y90948D01*
Y90920D01*
Y90870D01*
X191742Y90804D01*
Y90732D01*
X191747Y90643D01*
X191753Y90548D01*
X191764Y90449D01*
X191792Y90232D01*
X191809Y90127D01*
X191831Y90027D01*
X191853Y89932D01*
X191886Y89844D01*
X191920Y89766D01*
X191958Y89699D01*
Y89694D01*
X191970Y89688D01*
X191997Y89649D01*
X192047Y89599D01*
X192108Y89544D01*
X192192Y89488D01*
X192286Y89438D01*
X192391Y89400D01*
X192447Y89394D01*
X192508Y89389D01*
X192541D01*
X192563Y89394D01*
X192619Y89405D01*
X192697Y89427D01*
X192780Y89466D01*
X192874Y89522D01*
X192919Y89555D01*
X192963Y89599D01*
X193007Y89644D01*
X193052Y89699D01*
Y89705D01*
X193063Y89716D01*
X193074Y89733D01*
X193085Y89760D01*
X193107Y89799D01*
X193124Y89849D01*
X193146Y89905D01*
X193168Y89971D01*
X193185Y90055D01*
X193207Y90143D01*
X193229Y90249D01*
X193246Y90360D01*
X193257Y90493D01*
X193268Y90632D01*
X193279Y90787D01*
Y90959D01*
Y90965D01*
Y90970D01*
Y90998D01*
Y91048D01*
X193274Y91114D01*
Y91187D01*
X193268Y91276D01*
X193263Y91370D01*
X193252Y91475D01*
X193224Y91686D01*
X193207Y91792D01*
X193185Y91891D01*
X193163Y91986D01*
X193130Y92075D01*
X193096Y92152D01*
X193057Y92219D01*
Y92225D01*
X193046Y92230D01*
X193035Y92247D01*
X193018Y92269D01*
X192968Y92319D01*
X192908Y92380D01*
X192824Y92435D01*
X192730Y92485D01*
X192680Y92508D01*
X192624Y92524D01*
X192563Y92530D01*
X192502Y92535D01*
D02*
G37*
%LPD*%
D10*
X323894Y165465D02*
X323106D01*
X323894D01*
X201461Y234500D02*
X202417Y234690D01*
X203228Y235232D01*
X203770Y236043D01*
X203961Y237000D01*
X203770Y237957D01*
X203228Y238768D01*
X202417Y239310D01*
X201461Y239500D01*
X250795Y204594D02*
X251362Y205429D01*
X251840Y206318D01*
X252224Y207251D01*
X252510Y208218D01*
X252694Y209210D01*
X252776Y210216D01*
X252753Y211225D01*
X252626Y212226D01*
X252397Y213208D01*
X252068Y214162D01*
X251642Y215077D01*
X251125Y215943D01*
X250521Y216751D01*
X249837Y217493D01*
X249080Y218160D01*
X248258Y218746D01*
X247381Y219244D01*
X246457Y219648D01*
X245496Y219956D01*
X244508Y220163D01*
X243505Y220267D01*
X242495D01*
X241492Y220163D01*
X240504Y219956D01*
X239543Y219648D01*
X238619Y219244D01*
X237742Y218746D01*
X236920Y218160D01*
X236163Y217493D01*
X235479Y216751D01*
X234875Y215943D01*
X234358Y215077D01*
X233932Y214162D01*
X233603Y213208D01*
X233374Y212226D01*
X233247Y211225D01*
X233225Y210216D01*
X233306Y209210D01*
X233490Y208218D01*
X233776Y207251D01*
X234160Y206318D01*
X234638Y205429D01*
X235205Y204594D01*
X165961Y234000D02*
X166917Y234190D01*
X167728Y234732D01*
X168270Y235543D01*
X168461Y236500D01*
X168270Y237457D01*
X167728Y238268D01*
X166917Y238810D01*
X165961Y239000D01*
X167205Y282405D02*
X166638Y281571D01*
X166160Y280682D01*
X165776Y279749D01*
X165490Y278782D01*
X165306Y277790D01*
X165225Y276784D01*
X165247Y275775D01*
X165374Y274774D01*
X165603Y273792D01*
X165932Y272838D01*
X166358Y271923D01*
X166875Y271057D01*
X167479Y270249D01*
X168163Y269507D01*
X168920Y268840D01*
X169742Y268254D01*
X170619Y267756D01*
X171543Y267352D01*
X172504Y267044D01*
X173492Y266837D01*
X174495Y266733D01*
X175505D01*
X176508Y266837D01*
X177496Y267044D01*
X178457Y267352D01*
X179381Y267757D01*
X180258Y268254D01*
X181080Y268840D01*
X181837Y269507D01*
X182521Y270249D01*
X183125Y271057D01*
X183642Y271923D01*
X184068Y272838D01*
X184397Y273792D01*
X184626Y274774D01*
X184753Y275775D01*
X184775Y276784D01*
X184694Y277790D01*
X184510Y278782D01*
X184224Y279749D01*
X183840Y280682D01*
X183362Y281571D01*
X182795Y282405D01*
X118961Y178000D02*
X119917Y178190D01*
X120728Y178732D01*
X121270Y179543D01*
X121461Y180500D01*
X121270Y181457D01*
X120728Y182268D01*
X119917Y182810D01*
X118961Y183000D01*
X97095Y192205D02*
X97929Y191638D01*
X98818Y191160D01*
X99751Y190776D01*
X100718Y190490D01*
X101710Y190306D01*
X102716Y190225D01*
X103725Y190247D01*
X104726Y190374D01*
X105708Y190603D01*
X106662Y190932D01*
X107577Y191358D01*
X108443Y191875D01*
X109251Y192479D01*
X109993Y193163D01*
X110660Y193920D01*
X111246Y194742D01*
X111744Y195619D01*
X112148Y196543D01*
X112456Y197504D01*
X112663Y198492D01*
X112767Y199495D01*
Y200504D01*
X112663Y201508D01*
X112456Y202496D01*
X112148Y203457D01*
X111743Y204381D01*
X111246Y205258D01*
X110660Y206080D01*
X109993Y206837D01*
X109251Y207521D01*
X108443Y208125D01*
X107577Y208643D01*
X106662Y209068D01*
X105708Y209397D01*
X104726Y209626D01*
X103725Y209753D01*
X102716Y209775D01*
X101710Y209694D01*
X100718Y209510D01*
X99751Y209224D01*
X98818Y208840D01*
X97929Y208362D01*
X97095Y207795D01*
X187634Y70472D02*
Y79528D01*
X171886Y70472D02*
Y79528D01*
X181335Y70472D02*
X187634D01*
X171886D02*
X178185D01*
X181335Y79528D02*
X187634D01*
X171886D02*
X178185D01*
X201461Y226567D02*
X221539D01*
X201461Y247433D02*
X221539D01*
X201461Y226567D02*
Y234500D01*
Y239500D02*
Y247433D01*
X221539Y226567D02*
Y247433D01*
X235205Y204594D02*
X250795D01*
X165961Y226067D02*
X186039D01*
X165961Y246933D02*
X186039D01*
X165961Y226067D02*
Y234000D01*
Y239000D02*
Y246933D01*
X186039Y226067D02*
Y246933D01*
X167205Y282405D02*
X182795D01*
X118961Y170067D02*
X139039D01*
X118961Y190933D02*
X139039D01*
X118961Y170067D02*
Y178000D01*
Y183000D02*
Y190933D01*
X139039Y170067D02*
Y190933D01*
X97095Y192205D02*
Y207795D01*
X353000Y282039D02*
Y302118D01*
X330402D02*
X353000D01*
X330402Y282039D02*
X353000D01*
X332764Y289717D02*
Y294244D01*
X330402Y282039D02*
Y289667D01*
Y294244D02*
Y302118D01*
Y294244D02*
X332764D01*
X330402Y289717D02*
X332764D01*
Y294244D02*
Y301921D01*
Y282138D02*
Y289717D01*
X353000Y219039D02*
Y239118D01*
X330402D02*
X353000D01*
X330402Y219039D02*
X353000D01*
X332764Y226716D02*
Y231244D01*
X330402Y219039D02*
Y226667D01*
Y231244D02*
Y239118D01*
Y231244D02*
X332764D01*
X330402Y226716D02*
X332764D01*
Y231244D02*
Y238921D01*
Y219138D02*
Y226716D01*
D11*
X60000Y20000D02*
X59950Y20996D01*
X59802Y21982D01*
X59556Y22948D01*
X59215Y23884D01*
X58782Y24782D01*
X58262Y25633D01*
X57660Y26428D01*
X56982Y27159D01*
X56235Y27818D01*
X55426Y28400D01*
X54562Y28899D01*
X53653Y29309D01*
X52708Y29626D01*
X51736Y29848D01*
X50747Y29972D01*
X49751Y29997D01*
X48757Y29922D01*
X47775Y29749D01*
X46815Y29479D01*
X45887Y29115D01*
X45000Y28660D01*
X44163Y28119D01*
X43383Y27498D01*
X42669Y26802D01*
X42029Y26038D01*
X41467Y25214D01*
X40990Y24339D01*
X40603Y23420D01*
X40309Y22468D01*
X40112Y21490D01*
X40012Y20498D01*
Y19502D01*
X40112Y18510D01*
X40309Y17532D01*
X40603Y16580D01*
X40990Y15661D01*
X41467Y14786D01*
X42029Y13962D01*
X42669Y13198D01*
X43383Y12502D01*
X44162Y11881D01*
X45000Y11340D01*
X45887Y10885D01*
X46815Y10521D01*
X47775Y10251D01*
X48757Y10078D01*
X49751Y10003D01*
X50747Y10028D01*
X51736Y10152D01*
X52708Y10374D01*
X53653Y10691D01*
X54562Y11101D01*
X55426Y11600D01*
X56235Y12182D01*
X56982Y12841D01*
X57660Y13572D01*
X58262Y14367D01*
X58782Y15217D01*
X59215Y16116D01*
X59556Y17052D01*
X59802Y18019D01*
X59950Y19004D01*
X60000Y20000D01*
X256000Y188000D02*
X255950Y188996D01*
X255802Y189981D01*
X255556Y190948D01*
X255215Y191884D01*
X254782Y192782D01*
X254262Y193633D01*
X253660Y194428D01*
X252982Y195159D01*
X252235Y195818D01*
X251426Y196400D01*
X250562Y196899D01*
X249653Y197309D01*
X248708Y197626D01*
X247737Y197848D01*
X246747Y197972D01*
X245751Y197997D01*
X244757Y197922D01*
X243775Y197749D01*
X242815Y197479D01*
X241887Y197115D01*
X241000Y196660D01*
X240163Y196119D01*
X239383Y195498D01*
X238669Y194802D01*
X238029Y194038D01*
X237467Y193214D01*
X236990Y192339D01*
X236603Y191420D01*
X236309Y190468D01*
X236112Y189490D01*
X236012Y188498D01*
Y187502D01*
X236112Y186510D01*
X236309Y185532D01*
X236603Y184580D01*
X236990Y183661D01*
X237467Y182786D01*
X238029Y181962D01*
X238669Y181198D01*
X239383Y180502D01*
X240163Y179881D01*
X241000Y179340D01*
X241887Y178885D01*
X242815Y178521D01*
X243775Y178251D01*
X244757Y178078D01*
X245751Y178003D01*
X246747Y178028D01*
X247737Y178152D01*
X248708Y178374D01*
X249653Y178691D01*
X250562Y179101D01*
X251426Y179600D01*
X252235Y180182D01*
X252982Y180841D01*
X253660Y181572D01*
X254262Y182367D01*
X254782Y183218D01*
X255215Y184116D01*
X255556Y185052D01*
X255802Y186019D01*
X255950Y187004D01*
X256000Y188000D01*
X218000D02*
X217950Y188996D01*
X217802Y189981D01*
X217556Y190948D01*
X217215Y191884D01*
X216782Y192782D01*
X216262Y193633D01*
X215660Y194428D01*
X214982Y195159D01*
X214235Y195818D01*
X213425Y196400D01*
X212562Y196899D01*
X211653Y197309D01*
X210708Y197626D01*
X209736Y197848D01*
X208747Y197972D01*
X207751Y197997D01*
X206757Y197922D01*
X205775Y197749D01*
X204815Y197479D01*
X203887Y197115D01*
X203000Y196660D01*
X202163Y196119D01*
X201383Y195498D01*
X200670Y194802D01*
X200029Y194038D01*
X199467Y193214D01*
X198990Y192339D01*
X198603Y191420D01*
X198309Y190468D01*
X198112Y189490D01*
X198012Y188498D01*
Y187502D01*
X198112Y186510D01*
X198309Y185532D01*
X198603Y184580D01*
X198990Y183661D01*
X199467Y182786D01*
X200029Y181962D01*
X200670Y181198D01*
X201383Y180502D01*
X202163Y179881D01*
X203000Y179340D01*
X203887Y178885D01*
X204815Y178521D01*
X205775Y178251D01*
X206756Y178078D01*
X207751Y178003D01*
X208747Y178028D01*
X209736Y178152D01*
X210708Y178374D01*
X211653Y178691D01*
X212562Y179101D01*
X213425Y179600D01*
X214235Y180182D01*
X214982Y180841D01*
X215660Y181572D01*
X216262Y182367D01*
X216782Y183218D01*
X217215Y184116D01*
X217556Y185052D01*
X217802Y186019D01*
X217950Y187004D01*
X218000Y188000D01*
X178500D02*
X178450Y188996D01*
X178302Y189981D01*
X178056Y190948D01*
X177715Y191884D01*
X177282Y192782D01*
X176762Y193633D01*
X176160Y194428D01*
X175482Y195159D01*
X174735Y195818D01*
X173925Y196400D01*
X173062Y196899D01*
X172153Y197309D01*
X171208Y197626D01*
X170237Y197848D01*
X169247Y197972D01*
X168251Y197997D01*
X167257Y197922D01*
X166275Y197749D01*
X165315Y197479D01*
X164387Y197115D01*
X163500Y196660D01*
X162663Y196119D01*
X161883Y195498D01*
X161170Y194802D01*
X160529Y194038D01*
X159967Y193214D01*
X159490Y192339D01*
X159103Y191420D01*
X158809Y190468D01*
X158612Y189490D01*
X158512Y188498D01*
Y187502D01*
X158612Y186510D01*
X158809Y185532D01*
X159103Y184580D01*
X159490Y183661D01*
X159967Y182786D01*
X160529Y181962D01*
X161170Y181198D01*
X161883Y180502D01*
X162663Y179881D01*
X163500Y179340D01*
X164387Y178885D01*
X165315Y178521D01*
X166275Y178251D01*
X167256Y178078D01*
X168251Y178003D01*
X169247Y178028D01*
X170237Y178152D01*
X171208Y178374D01*
X172153Y178691D01*
X173062Y179101D01*
X173925Y179600D01*
X174735Y180182D01*
X175482Y180841D01*
X176160Y181572D01*
X176762Y182367D01*
X177282Y183218D01*
X177715Y184116D01*
X178056Y185052D01*
X178302Y186019D01*
X178450Y187004D01*
X178500Y188000D01*
X298090Y242500D02*
X298000Y243498D01*
X297734Y244464D01*
X297299Y245367D01*
X296710Y246178D01*
X295985Y246871D01*
X295149Y247423D01*
X294228Y247817D01*
X293250Y248040D01*
X292249Y248085D01*
X291256Y247950D01*
X290303Y247640D01*
X289420Y247165D01*
X288637Y246541D01*
X287977Y245786D01*
X287463Y244925D01*
X287111Y243987D01*
X286932Y243001D01*
Y241999D01*
X287111Y241013D01*
X287463Y240074D01*
X287977Y239214D01*
X288637Y238459D01*
X289420Y237835D01*
X290303Y237360D01*
X291256Y237050D01*
X292249Y236915D01*
X293250Y236960D01*
X294228Y237183D01*
X295149Y237577D01*
X295985Y238129D01*
X296710Y238822D01*
X297299Y239633D01*
X297734Y240536D01*
X298000Y241502D01*
X298090Y242500D01*
X275331Y234500D02*
X275247Y235485D01*
X274998Y236442D01*
X274590Y237344D01*
X274037Y238163D01*
X273352Y238877D01*
X272557Y239465D01*
X271674Y239910D01*
X270728Y240200D01*
X269747Y240326D01*
X268759Y240284D01*
X267793Y240075D01*
X266875Y239707D01*
X266033Y239188D01*
X265290Y238535D01*
X264669Y237765D01*
X264187Y236902D01*
X263857Y235969D01*
X263690Y234995D01*
Y234005D01*
X263857Y233031D01*
X264187Y232098D01*
X264669Y231235D01*
X265290Y230465D01*
X266033Y229812D01*
X266875Y229293D01*
X267793Y228925D01*
X268759Y228716D01*
X269747Y228674D01*
X270728Y228800D01*
X271674Y229090D01*
X272557Y229535D01*
X273352Y230123D01*
X274037Y230837D01*
X274590Y231656D01*
X274998Y232558D01*
X275247Y233515D01*
X275331Y234500D01*
X253201Y242500D02*
X253114Y243490D01*
X252857Y244450D01*
X252437Y245351D01*
X251867Y246164D01*
X251165Y246867D01*
X250350Y247437D01*
X249450Y247857D01*
X248490Y248114D01*
X247500Y248201D01*
X246510Y248114D01*
X245550Y247857D01*
X244650Y247437D01*
X243835Y246867D01*
X243133Y246164D01*
X242563Y245351D01*
X242143Y244450D01*
X241886Y243490D01*
X241799Y242500D01*
X241886Y241510D01*
X242143Y240550D01*
X242563Y239650D01*
X243133Y238836D01*
X243835Y238133D01*
X244650Y237563D01*
X245550Y237143D01*
X246510Y236886D01*
X247500Y236799D01*
X248490Y236886D01*
X249450Y237143D01*
X250350Y237563D01*
X251165Y238133D01*
X251867Y238836D01*
X252437Y239650D01*
X252857Y240550D01*
X253114Y241510D01*
X253201Y242500D01*
X298331Y290500D02*
X298247Y291485D01*
X297998Y292442D01*
X297590Y293344D01*
X297037Y294163D01*
X296352Y294877D01*
X295557Y295465D01*
X294674Y295910D01*
X293728Y296200D01*
X292747Y296326D01*
X291759Y296284D01*
X290793Y296075D01*
X289875Y295707D01*
X289033Y295188D01*
X288290Y294535D01*
X287669Y293765D01*
X287187Y292902D01*
X286857Y291969D01*
X286690Y290995D01*
Y290005D01*
X286857Y289031D01*
X287187Y288098D01*
X287669Y287235D01*
X288290Y286465D01*
X289033Y285812D01*
X289875Y285293D01*
X290793Y284925D01*
X291759Y284716D01*
X292747Y284674D01*
X293728Y284800D01*
X294674Y285090D01*
X295557Y285535D01*
X296352Y286123D01*
X297037Y286837D01*
X297590Y287656D01*
X297998Y288558D01*
X298247Y289515D01*
X298331Y290500D01*
X253157D02*
X253071Y291482D01*
X252816Y292435D01*
X252399Y293328D01*
X251833Y294136D01*
X251136Y294833D01*
X250328Y295399D01*
X249435Y295816D01*
X248482Y296071D01*
X247500Y296157D01*
X246518Y296071D01*
X245565Y295816D01*
X244672Y295399D01*
X243864Y294833D01*
X243167Y294136D01*
X242601Y293328D01*
X242184Y292435D01*
X241929Y291482D01*
X241843Y290500D01*
X241929Y289518D01*
X242184Y288565D01*
X242601Y287671D01*
X243167Y286864D01*
X243864Y286167D01*
X244672Y285601D01*
X245565Y285184D01*
X246518Y284929D01*
X247500Y284843D01*
X248482Y284929D01*
X249435Y285184D01*
X250328Y285601D01*
X251136Y286167D01*
X251833Y286864D01*
X252399Y287671D01*
X252816Y288565D01*
X253071Y289518D01*
X253157Y290500D01*
X249500Y261500D02*
X248500Y261232D01*
X247768Y260500D01*
X247500Y259500D01*
X251500D02*
X251232Y260500D01*
X250500Y261232D01*
X249500Y261500D01*
X253500D02*
X252500Y261232D01*
X251768Y260500D01*
X251500Y259500D01*
X255500D02*
X255232Y260500D01*
X254500Y261232D01*
X253500Y261500D01*
X257500D02*
X256500Y261232D01*
X255768Y260500D01*
X255500Y259500D01*
X259500D02*
X259232Y260500D01*
X258500Y261232D01*
X257500Y261500D01*
X261500D02*
X260500Y261232D01*
X259768Y260500D01*
X259500Y259500D01*
X263500D02*
X263232Y260500D01*
X262500Y261232D01*
X261500Y261500D01*
X265500D02*
X264500Y261232D01*
X263768Y260500D01*
X263500Y259500D01*
X267500D02*
X267232Y260500D01*
X266500Y261232D01*
X265500Y261500D01*
X269500D02*
X268500Y261232D01*
X267768Y260500D01*
X267500Y259500D01*
X271500D02*
X271232Y260500D01*
X270500Y261232D01*
X269500Y261500D01*
X273500D02*
X272500Y261232D01*
X271768Y260500D01*
X271500Y259500D01*
X275500D02*
X275232Y260500D01*
X274500Y261232D01*
X273500Y261500D01*
X277500D02*
X276500Y261232D01*
X275768Y260500D01*
X275500Y259500D01*
X279500D02*
X279232Y260500D01*
X278500Y261232D01*
X277500Y261500D01*
X281500D02*
X280500Y261232D01*
X279768Y260500D01*
X279500Y259500D01*
X283500D02*
X283232Y260500D01*
X282500Y261232D01*
X281500Y261500D01*
X285500D02*
X284500Y261232D01*
X283768Y260500D01*
X283500Y259500D01*
X287500D02*
X287232Y260500D01*
X286500Y261232D01*
X285500Y261500D01*
X289500D02*
X288500Y261232D01*
X287768Y260500D01*
X287500Y259500D01*
X291500D02*
X291232Y260500D01*
X290500Y261232D01*
X289500Y261500D01*
X157090Y243000D02*
X157000Y243998D01*
X156734Y244964D01*
X156299Y245867D01*
X155710Y246678D01*
X154985Y247371D01*
X154149Y247923D01*
X153227Y248317D01*
X152250Y248540D01*
X151249Y248585D01*
X150256Y248450D01*
X149303Y248140D01*
X148420Y247665D01*
X147637Y247041D01*
X146977Y246286D01*
X146463Y245426D01*
X146111Y244487D01*
X145932Y243501D01*
Y242499D01*
X146111Y241513D01*
X146463Y240575D01*
X146977Y239714D01*
X147637Y238959D01*
X148420Y238335D01*
X149303Y237860D01*
X150256Y237550D01*
X151249Y237415D01*
X152250Y237460D01*
X153227Y237683D01*
X154149Y238077D01*
X154985Y238629D01*
X155710Y239322D01*
X156299Y240133D01*
X156734Y241036D01*
X157000Y242002D01*
X157090Y243000D01*
X134331Y235000D02*
X134247Y235985D01*
X133998Y236943D01*
X133590Y237844D01*
X133037Y238663D01*
X132352Y239377D01*
X131557Y239965D01*
X130674Y240410D01*
X129728Y240700D01*
X128747Y240826D01*
X127759Y240784D01*
X126793Y240575D01*
X125875Y240207D01*
X125033Y239688D01*
X124290Y239035D01*
X123669Y238265D01*
X123187Y237402D01*
X122857Y236469D01*
X122690Y235494D01*
Y234506D01*
X122857Y233531D01*
X123187Y232598D01*
X123669Y231735D01*
X124290Y230965D01*
X125033Y230312D01*
X125875Y229793D01*
X126793Y229425D01*
X127759Y229216D01*
X128747Y229174D01*
X129728Y229300D01*
X130674Y229590D01*
X131557Y230035D01*
X132352Y230623D01*
X133037Y231337D01*
X133590Y232156D01*
X133998Y233057D01*
X134247Y234015D01*
X134331Y235000D01*
X112201Y243000D02*
X112114Y243990D01*
X111857Y244950D01*
X111437Y245850D01*
X110867Y246665D01*
X110164Y247367D01*
X109351Y247937D01*
X108450Y248357D01*
X107490Y248614D01*
X106500Y248701D01*
X105510Y248614D01*
X104550Y248357D01*
X103649Y247937D01*
X102836Y247367D01*
X102133Y246665D01*
X101563Y245850D01*
X101143Y244950D01*
X100886Y243990D01*
X100799Y243000D01*
X100886Y242010D01*
X101143Y241050D01*
X101563Y240149D01*
X102133Y239335D01*
X102836Y238633D01*
X103649Y238063D01*
X104550Y237643D01*
X105510Y237386D01*
X106500Y237299D01*
X107490Y237386D01*
X108450Y237643D01*
X109351Y238063D01*
X110164Y238633D01*
X110867Y239335D01*
X111437Y240149D01*
X111857Y241050D01*
X112114Y242010D01*
X112201Y243000D01*
X157331Y291000D02*
X157247Y291985D01*
X156998Y292943D01*
X156590Y293844D01*
X156037Y294663D01*
X155352Y295377D01*
X154557Y295965D01*
X153674Y296410D01*
X152728Y296700D01*
X151748Y296826D01*
X150759Y296784D01*
X149793Y296575D01*
X148875Y296207D01*
X148033Y295688D01*
X147290Y295035D01*
X146669Y294265D01*
X146187Y293402D01*
X145857Y292469D01*
X145690Y291494D01*
Y290506D01*
X145857Y289531D01*
X146187Y288598D01*
X146669Y287735D01*
X147290Y286965D01*
X148033Y286312D01*
X148875Y285793D01*
X149793Y285425D01*
X150759Y285216D01*
X151748Y285174D01*
X152728Y285300D01*
X153674Y285590D01*
X154557Y286035D01*
X155352Y286623D01*
X156037Y287337D01*
X156590Y288156D01*
X156998Y289057D01*
X157247Y290015D01*
X157331Y291000D01*
X112157D02*
X112071Y291982D01*
X111816Y292935D01*
X111399Y293829D01*
X110833Y294636D01*
X110136Y295333D01*
X109328Y295899D01*
X108435Y296316D01*
X107482Y296571D01*
X106500Y296657D01*
X105518Y296571D01*
X104565Y296316D01*
X103672Y295899D01*
X102864Y295333D01*
X102167Y294636D01*
X101601Y293829D01*
X101184Y292935D01*
X100929Y291982D01*
X100843Y291000D01*
X100929Y290018D01*
X101184Y289065D01*
X101601Y288172D01*
X102167Y287364D01*
X102864Y286667D01*
X103672Y286101D01*
X104565Y285684D01*
X105518Y285429D01*
X106500Y285343D01*
X107482Y285429D01*
X108435Y285684D01*
X109328Y286101D01*
X110136Y286667D01*
X110833Y287364D01*
X111399Y288172D01*
X111816Y289065D01*
X112071Y290018D01*
X112157Y291000D01*
X108500Y262000D02*
X107500Y261732D01*
X106768Y261000D01*
X106500Y260000D01*
X110500D02*
X110232Y261000D01*
X109500Y261732D01*
X108500Y262000D01*
X112500D02*
X111500Y261732D01*
X110768Y261000D01*
X110500Y260000D01*
X114500D02*
X114232Y261000D01*
X113500Y261732D01*
X112500Y262000D01*
X116500D02*
X115500Y261732D01*
X114768Y261000D01*
X114500Y260000D01*
X118500D02*
X118232Y261000D01*
X117500Y261732D01*
X116500Y262000D01*
X120500D02*
X119500Y261732D01*
X118768Y261000D01*
X118500Y260000D01*
X122500D02*
X122232Y261000D01*
X121500Y261732D01*
X120500Y262000D01*
X124500D02*
X123500Y261732D01*
X122768Y261000D01*
X122500Y260000D01*
X126500D02*
X126232Y261000D01*
X125500Y261732D01*
X124500Y262000D01*
X128500D02*
X127500Y261732D01*
X126768Y261000D01*
X126500Y260000D01*
X130500D02*
X130232Y261000D01*
X129500Y261732D01*
X128500Y262000D01*
X132500D02*
X131500Y261732D01*
X130768Y261000D01*
X130500Y260000D01*
X134500D02*
X134232Y261000D01*
X133500Y261732D01*
X132500Y262000D01*
X136500D02*
X135500Y261732D01*
X134768Y261000D01*
X134500Y260000D01*
X138500D02*
X138232Y261000D01*
X137500Y261732D01*
X136500Y262000D01*
X140500D02*
X139500Y261732D01*
X138768Y261000D01*
X138500Y260000D01*
X142500D02*
X142232Y261000D01*
X141500Y261732D01*
X140500Y262000D01*
X144500D02*
X143500Y261732D01*
X142768Y261000D01*
X142500Y260000D01*
X146500D02*
X146232Y261000D01*
X145500Y261732D01*
X144500Y262000D01*
X148500D02*
X147500Y261732D01*
X146768Y261000D01*
X146500Y260000D01*
X150500D02*
X150232Y261000D01*
X149500Y261732D01*
X148500Y262000D01*
X222090Y312000D02*
X222000Y312998D01*
X221734Y313964D01*
X221299Y314867D01*
X220710Y315678D01*
X219985Y316371D01*
X219149Y316923D01*
X218228Y317317D01*
X217250Y317540D01*
X216249Y317585D01*
X215256Y317450D01*
X214303Y317140D01*
X213420Y316665D01*
X212637Y316041D01*
X211977Y315286D01*
X211463Y314425D01*
X211111Y313487D01*
X210932Y312501D01*
Y311499D01*
X211111Y310513D01*
X211463Y309575D01*
X211977Y308714D01*
X212637Y307959D01*
X213420Y307335D01*
X214303Y306860D01*
X215256Y306550D01*
X216249Y306415D01*
X217250Y306460D01*
X218228Y306683D01*
X219149Y307077D01*
X219985Y307629D01*
X220710Y308322D01*
X221299Y309133D01*
X221734Y310036D01*
X222000Y311002D01*
X222090Y312000D01*
X199331Y304000D02*
X199247Y304985D01*
X198998Y305943D01*
X198591Y306844D01*
X198037Y307663D01*
X197352Y308377D01*
X196557Y308965D01*
X195674Y309410D01*
X194728Y309700D01*
X193747Y309826D01*
X192759Y309784D01*
X191793Y309575D01*
X190875Y309207D01*
X190033Y308688D01*
X189290Y308035D01*
X188669Y307265D01*
X188187Y306402D01*
X187857Y305469D01*
X187690Y304495D01*
Y303505D01*
X187857Y302531D01*
X188187Y301598D01*
X188669Y300735D01*
X189290Y299965D01*
X190033Y299312D01*
X190875Y298793D01*
X191793Y298425D01*
X192759Y298216D01*
X193747Y298174D01*
X194729Y298300D01*
X195674Y298590D01*
X196557Y299035D01*
X197352Y299623D01*
X198037Y300337D01*
X198591Y301156D01*
X198998Y302058D01*
X199247Y303015D01*
X199331Y304000D01*
X177201Y312000D02*
X177114Y312990D01*
X176857Y313950D01*
X176437Y314850D01*
X175867Y315665D01*
X175164Y316367D01*
X174351Y316937D01*
X173450Y317357D01*
X172490Y317614D01*
X171500Y317701D01*
X170510Y317614D01*
X169550Y317357D01*
X168649Y316937D01*
X167835Y316367D01*
X167133Y315665D01*
X166563Y314850D01*
X166143Y313950D01*
X165886Y312990D01*
X165799Y312000D01*
X165886Y311010D01*
X166143Y310050D01*
X166563Y309150D01*
X167133Y308335D01*
X167835Y307633D01*
X168649Y307063D01*
X169550Y306643D01*
X170510Y306386D01*
X171500Y306299D01*
X172490Y306386D01*
X173450Y306643D01*
X174351Y307063D01*
X175164Y307633D01*
X175867Y308335D01*
X176437Y309150D01*
X176857Y310050D01*
X177114Y311010D01*
X177201Y312000D01*
X222331Y360000D02*
X222247Y360985D01*
X221998Y361943D01*
X221590Y362844D01*
X221037Y363663D01*
X220352Y364377D01*
X219557Y364965D01*
X218674Y365410D01*
X217728Y365700D01*
X216747Y365826D01*
X215759Y365784D01*
X214793Y365575D01*
X213875Y365207D01*
X213033Y364688D01*
X212290Y364035D01*
X211669Y363265D01*
X211187Y362402D01*
X210857Y361469D01*
X210690Y360494D01*
Y359506D01*
X210857Y358531D01*
X211187Y357598D01*
X211669Y356735D01*
X212290Y355965D01*
X213033Y355312D01*
X213875Y354793D01*
X214793Y354425D01*
X215759Y354216D01*
X216747Y354174D01*
X217728Y354300D01*
X218674Y354590D01*
X219557Y355035D01*
X220352Y355623D01*
X221037Y356337D01*
X221590Y357156D01*
X221998Y358057D01*
X222247Y359015D01*
X222331Y360000D01*
X177157D02*
X177071Y360982D01*
X176816Y361935D01*
X176399Y362828D01*
X175833Y363636D01*
X175136Y364333D01*
X174328Y364899D01*
X173435Y365316D01*
X172482Y365571D01*
X171500Y365657D01*
X170518Y365571D01*
X169565Y365316D01*
X168672Y364899D01*
X167864Y364333D01*
X167167Y363636D01*
X166601Y362828D01*
X166184Y361935D01*
X165929Y360982D01*
X165843Y360000D01*
X165929Y359018D01*
X166184Y358065D01*
X166601Y357172D01*
X167167Y356364D01*
X167864Y355667D01*
X168672Y355101D01*
X169565Y354684D01*
X170518Y354429D01*
X171500Y354343D01*
X172482Y354429D01*
X173435Y354684D01*
X174328Y355101D01*
X175136Y355667D01*
X175833Y356364D01*
X176399Y357172D01*
X176816Y358065D01*
X177071Y359018D01*
X177157Y360000D01*
X173500Y331000D02*
X172500Y330732D01*
X171768Y330000D01*
X171500Y329000D01*
X175500D02*
X175232Y330000D01*
X174500Y330732D01*
X173500Y331000D01*
X177500D02*
X176500Y330732D01*
X175768Y330000D01*
X175500Y329000D01*
X179500D02*
X179232Y330000D01*
X178500Y330732D01*
X177500Y331000D01*
X181500D02*
X180500Y330732D01*
X179768Y330000D01*
X179500Y329000D01*
X183500D02*
X183232Y330000D01*
X182500Y330732D01*
X181500Y331000D01*
X185500D02*
X184500Y330732D01*
X183768Y330000D01*
X183500Y329000D01*
X187500D02*
X187232Y330000D01*
X186500Y330732D01*
X185500Y331000D01*
X189500D02*
X188500Y330732D01*
X187768Y330000D01*
X187500Y329000D01*
X191500D02*
X191232Y330000D01*
X190500Y330732D01*
X189500Y331000D01*
X193500D02*
X192500Y330732D01*
X191768Y330000D01*
X191500Y329000D01*
X195500D02*
X195232Y330000D01*
X194500Y330732D01*
X193500Y331000D01*
X197500D02*
X196500Y330732D01*
X195768Y330000D01*
X195500Y329000D01*
X199500D02*
X199232Y330000D01*
X198500Y330732D01*
X197500Y331000D01*
X201500D02*
X200500Y330732D01*
X199768Y330000D01*
X199500Y329000D01*
X203500D02*
X203232Y330000D01*
X202500Y330732D01*
X201500Y331000D01*
X205500D02*
X204500Y330732D01*
X203768Y330000D01*
X203500Y329000D01*
X207500D02*
X207232Y330000D01*
X206500Y330732D01*
X205500Y331000D01*
X209500D02*
X208500Y330732D01*
X207768Y330000D01*
X207500Y329000D01*
X211500D02*
X211232Y330000D01*
X210500Y330732D01*
X209500Y331000D01*
X213500D02*
X212500Y330732D01*
X211768Y330000D01*
X211500Y329000D01*
X215500D02*
X215232Y330000D01*
X214500Y330732D01*
X213500Y331000D01*
X31311Y355000D02*
X31269Y356002D01*
X31141Y356996D01*
X30930Y357976D01*
X30636Y358935D01*
X30263Y359865D01*
X29811Y360760D01*
X29285Y361614D01*
X28689Y362420D01*
X28027Y363173D01*
X27303Y363866D01*
X26523Y364496D01*
X25693Y365057D01*
X24817Y365546D01*
X23904Y365959D01*
X22959Y366293D01*
X21988Y366546D01*
X21000Y366715D01*
X20001Y366800D01*
X18999D01*
X18000Y366715D01*
X17012Y366546D01*
X16041Y366293D01*
X15096Y365959D01*
X14183Y365546D01*
X13307Y365057D01*
X12477Y364496D01*
X11697Y363866D01*
X10973Y363173D01*
X10311Y362420D01*
X9714Y361614D01*
X9189Y360760D01*
X8738Y359865D01*
X8364Y358935D01*
X8070Y357976D01*
X7859Y356996D01*
X7732Y356002D01*
X7689Y355000D01*
X7732Y353998D01*
X7859Y353004D01*
X8070Y352024D01*
X8364Y351065D01*
X8738Y350135D01*
X9189Y349240D01*
X9714Y348386D01*
X10311Y347580D01*
X10973Y346828D01*
X11697Y346134D01*
X12477Y345504D01*
X13307Y344943D01*
X14183Y344454D01*
X15096Y344041D01*
X16041Y343707D01*
X17012Y343454D01*
X18000Y343285D01*
X18999Y343200D01*
X20001D01*
X21000Y343285D01*
X21988Y343454D01*
X22959Y343707D01*
X23904Y344041D01*
X24817Y344454D01*
X25693Y344943D01*
X26523Y345504D01*
X27303Y346134D01*
X28027Y346828D01*
X28689Y347580D01*
X29286Y348386D01*
X29811Y349240D01*
X30263Y350135D01*
X30636Y351065D01*
X30930Y352024D01*
X31141Y353004D01*
X31269Y353998D01*
X31311Y355000D01*
X31811Y20000D02*
X31769Y21002D01*
X31641Y21996D01*
X31430Y22976D01*
X31136Y23935D01*
X30762Y24865D01*
X30311Y25760D01*
X29785Y26614D01*
X29189Y27420D01*
X28527Y28172D01*
X27803Y28866D01*
X27023Y29496D01*
X26193Y30057D01*
X25317Y30546D01*
X24404Y30959D01*
X23459Y31293D01*
X22488Y31546D01*
X21500Y31715D01*
X20501Y31800D01*
X19499D01*
X18500Y31715D01*
X17512Y31546D01*
X16542Y31293D01*
X15596Y30959D01*
X14683Y30546D01*
X13807Y30057D01*
X12977Y29496D01*
X12197Y28866D01*
X11473Y28172D01*
X10811Y27420D01*
X10214Y26614D01*
X9689Y25760D01*
X9238Y24865D01*
X8864Y23935D01*
X8570Y22976D01*
X8359Y21996D01*
X8231Y21002D01*
X8189Y20000D01*
X8231Y18998D01*
X8359Y18004D01*
X8570Y17024D01*
X8864Y16065D01*
X9238Y15135D01*
X9689Y14240D01*
X10215Y13386D01*
X10811Y12580D01*
X11473Y11828D01*
X12197Y11134D01*
X12977Y10504D01*
X13807Y9943D01*
X14683Y9454D01*
X15596Y9041D01*
X16542Y8707D01*
X17512Y8454D01*
X18500Y8285D01*
X19499Y8200D01*
X20501D01*
X21500Y8285D01*
X22488Y8454D01*
X23459Y8707D01*
X24404Y9041D01*
X25317Y9454D01*
X26193Y9943D01*
X27023Y10504D01*
X27803Y11134D01*
X28527Y11828D01*
X29189Y12580D01*
X29786Y13386D01*
X30311Y14240D01*
X30762Y15135D01*
X31136Y16065D01*
X31430Y17024D01*
X31641Y18004D01*
X31769Y18998D01*
X31811Y20000D01*
X367311D02*
X367268Y21002D01*
X367141Y21996D01*
X366930Y22976D01*
X366636Y23935D01*
X366263Y24865D01*
X365811Y25760D01*
X365285Y26614D01*
X364689Y27420D01*
X364027Y28172D01*
X363303Y28866D01*
X362523Y29496D01*
X361693Y30057D01*
X360817Y30546D01*
X359904Y30959D01*
X358959Y31293D01*
X357988Y31546D01*
X357000Y31715D01*
X356001Y31800D01*
X354999D01*
X354000Y31715D01*
X353012Y31546D01*
X352042Y31293D01*
X351096Y30959D01*
X350183Y30546D01*
X349307Y30057D01*
X348477Y29496D01*
X347697Y28866D01*
X346973Y28172D01*
X346311Y27420D01*
X345714Y26614D01*
X345189Y25760D01*
X344738Y24865D01*
X344364Y23935D01*
X344070Y22976D01*
X343859Y21996D01*
X343731Y21002D01*
X343689Y20000D01*
X343731Y18998D01*
X343859Y18004D01*
X344070Y17024D01*
X344364Y16065D01*
X344738Y15135D01*
X345189Y14240D01*
X345714Y13386D01*
X346311Y12580D01*
X346973Y11828D01*
X347697Y11134D01*
X348477Y10504D01*
X349307Y9943D01*
X350183Y9454D01*
X351096Y9041D01*
X352042Y8707D01*
X353012Y8454D01*
X354000Y8285D01*
X354999Y8200D01*
X356001D01*
X357000Y8285D01*
X357988Y8454D01*
X358959Y8707D01*
X359904Y9041D01*
X360817Y9454D01*
X361693Y9943D01*
X362523Y10504D01*
X363303Y11134D01*
X364027Y11828D01*
X364689Y12580D01*
X365286Y13386D01*
X365811Y14240D01*
X366263Y15135D01*
X366636Y16065D01*
X366930Y17024D01*
X367141Y18004D01*
X367268Y18998D01*
X367311Y20000D01*
Y355000D02*
X367268Y356002D01*
X367141Y356996D01*
X366930Y357976D01*
X366636Y358935D01*
X366263Y359865D01*
X365811Y360760D01*
X365285Y361614D01*
X364689Y362420D01*
X364027Y363173D01*
X363303Y363866D01*
X362523Y364496D01*
X361693Y365057D01*
X360817Y365546D01*
X359904Y365959D01*
X358959Y366293D01*
X357988Y366546D01*
X357000Y366715D01*
X356001Y366800D01*
X354999D01*
X354000Y366715D01*
X353012Y366546D01*
X352042Y366293D01*
X351096Y365959D01*
X350183Y365546D01*
X349307Y365057D01*
X348477Y364496D01*
X347697Y363866D01*
X346973Y363173D01*
X346311Y362420D01*
X345714Y361614D01*
X345189Y360760D01*
X344738Y359865D01*
X344364Y358935D01*
X344070Y357976D01*
X343859Y356996D01*
X343731Y356002D01*
X343689Y355000D01*
X343731Y353998D01*
X343859Y353004D01*
X344070Y352024D01*
X344364Y351065D01*
X344738Y350135D01*
X345189Y349240D01*
X345714Y348386D01*
X346311Y347580D01*
X346973Y346828D01*
X347697Y346134D01*
X348477Y345504D01*
X349307Y344943D01*
X350183Y344454D01*
X351096Y344041D01*
X352042Y343707D01*
X353012Y343454D01*
X354000Y343285D01*
X354999Y343200D01*
X356001D01*
X357000Y343285D01*
X357988Y343454D01*
X358959Y343707D01*
X359904Y344041D01*
X360817Y344454D01*
X361693Y344943D01*
X362523Y345504D01*
X363303Y346134D01*
X364027Y346828D01*
X364689Y347580D01*
X365286Y348386D01*
X365811Y349240D01*
X366263Y350135D01*
X366636Y351065D01*
X366930Y352024D01*
X367141Y353004D01*
X367268Y353998D01*
X367311Y355000D01*
X47500Y32500D02*
X52500D01*
X50000Y30000D02*
Y35000D01*
Y25000D02*
X56250D01*
Y15000D02*
Y25000D01*
X50000Y15000D02*
X56250D01*
X53750Y22500D02*
X58750D01*
X53750D02*
X56250Y17500D01*
X58750Y22500D01*
X53750Y17500D02*
X58750D01*
X54144Y21711D02*
X58278Y21555D01*
X55304Y19392D02*
X55450Y21662D01*
X57063Y21601D02*
X57118Y19236D01*
X110874Y9157D02*
Y48528D01*
X88039D02*
X112843D01*
X88039Y9157D02*
X112843D01*
X88039D02*
Y48528D01*
X112843Y9157D02*
Y48528D01*
X88236Y24000D02*
X110874D01*
X138374Y9157D02*
Y48528D01*
X115539D02*
X140342D01*
X115539Y9157D02*
X140342D01*
X115539D02*
Y48528D01*
X140342Y9157D02*
Y48528D01*
X115736Y24000D02*
X138374D01*
X166374Y9157D02*
Y48528D01*
X143539D02*
X168342D01*
X143539Y9157D02*
X168342D01*
X143539D02*
Y48528D01*
X168342Y9157D02*
Y48528D01*
X143736Y24000D02*
X166374D01*
X77000Y108500D02*
Y124500D01*
X72000Y108500D02*
Y124500D01*
X74500Y108500D02*
Y124500D01*
X72000Y108500D02*
X77000D01*
X72000Y124500D02*
X84500D01*
X72000D02*
Y127000D01*
X84780D01*
X74500Y111000D02*
Y117500D01*
X72000Y111000D02*
Y117500D01*
X77000Y128500D02*
Y144500D01*
X72000Y128500D02*
Y144500D01*
X74500Y128500D02*
Y144500D01*
X72000Y128500D02*
X77000D01*
X72000Y144500D02*
X84500D01*
X72000D02*
Y147000D01*
X84780D01*
X74500Y131000D02*
Y137500D01*
X84780Y157000D02*
X127000D01*
X84780Y147000D02*
Y157000D01*
X127000Y147000D02*
Y157000D01*
X84780Y127000D02*
X127000D01*
Y107000D02*
Y147000D01*
X84780D02*
X127000D01*
X84780Y107000D02*
Y147000D01*
Y107000D02*
X127000D01*
X72000Y131000D02*
Y137500D01*
X194374Y9157D02*
Y48528D01*
X171539D02*
X196343D01*
X171539Y9157D02*
X196343D01*
X171539D02*
Y48528D01*
X196343Y9157D02*
Y48528D01*
X171736Y24000D02*
X194374D01*
X221374Y9157D02*
Y48528D01*
X198539D02*
X223342D01*
X198539Y9157D02*
X223342D01*
X198539D02*
Y48528D01*
X223342Y9157D02*
Y48528D01*
X198736Y24000D02*
X221374D01*
X248374Y9157D02*
Y48528D01*
X225539D02*
X250342D01*
X225539Y9157D02*
X250342D01*
X225539D02*
Y48528D01*
X250342Y9157D02*
Y48528D01*
X225736Y24000D02*
X248374D01*
X275874Y9157D02*
Y48528D01*
X253039D02*
X277842D01*
X253039Y9157D02*
X277842D01*
X253039D02*
Y48528D01*
X277842Y9157D02*
Y48528D01*
X253236Y24000D02*
X275874D01*
X302874Y9157D02*
Y48528D01*
X280039D02*
X304842D01*
X280039Y9157D02*
X304842D01*
X280039D02*
Y48528D01*
X304842Y9157D02*
Y48528D01*
X280236Y24000D02*
X302874D01*
X329874Y9157D02*
Y48528D01*
X307039D02*
X331842D01*
X307039Y9157D02*
X331842D01*
X307039D02*
Y48528D01*
X331842Y9157D02*
Y48528D01*
X307236Y24000D02*
X329874D01*
X332126Y240972D02*
Y280343D01*
X330157Y240972D02*
X354961D01*
X330157Y280343D02*
X354961D01*
Y240972D02*
Y280343D01*
X330157Y240972D02*
Y280343D01*
X332126Y265500D02*
X354764D01*
X332626Y177472D02*
Y216843D01*
X330658Y177472D02*
X355461D01*
X330658Y216843D02*
X355461D01*
Y177472D02*
Y216843D01*
X330658Y177472D02*
Y216843D01*
X332626Y202000D02*
X355264D01*
X330063Y93000D02*
X334000D01*
X337937Y83000D02*
X339000Y84063D01*
X337937Y93000D02*
X339000Y91937D01*
X329000D02*
X330063Y93000D01*
X329000Y84063D02*
X330063Y83000D01*
X339000Y84063D02*
Y88000D01*
X329000Y84063D02*
Y88000D01*
X339000D02*
Y91937D01*
X329000Y88000D02*
Y91937D01*
X330063Y83000D02*
X334000D01*
X337937D01*
Y93000D02*
X339000Y94063D01*
X337937Y103000D02*
X339000Y101937D01*
X329000D02*
X330063Y103000D01*
X329000Y94063D02*
X330063Y93000D01*
X339000Y94063D02*
Y98000D01*
X329000Y94063D02*
Y98000D01*
X339000D02*
Y101937D01*
X329000Y98000D02*
Y101937D01*
X334000Y103000D02*
X337937D01*
X330063D02*
X334000D01*
X327937Y83000D02*
X329000Y84063D01*
X327937Y93000D02*
X329000Y91937D01*
X319000D02*
X320063Y93000D01*
X319000Y84063D02*
X320063Y83000D01*
X329000Y84063D02*
Y88000D01*
X319000Y84063D02*
Y88000D01*
X329000D02*
Y91937D01*
X319000Y88000D02*
Y91937D01*
X320063Y83000D02*
X324000D01*
X327937D01*
Y93000D02*
X329000Y94063D01*
X327937Y103000D02*
X329000Y101937D01*
X319000D02*
X320063Y103000D01*
X319000Y94063D02*
X320063Y93000D01*
X329000Y94063D02*
Y98000D01*
X319000Y94063D02*
Y98000D01*
X329000D02*
Y101937D01*
X319000Y98000D02*
Y101937D01*
X324000Y103000D02*
X327937D01*
X320063D02*
X324000D01*
X319000Y84063D02*
X320063Y83000D01*
X327937D02*
X329000Y84063D01*
X327937Y93000D02*
X329000Y91937D01*
X319000D02*
X320063Y93000D01*
Y83000D02*
X324000D01*
X320063Y93000D02*
X324000D01*
Y83000D02*
X327937D01*
X324000Y93000D02*
X327937D01*
X319000Y88000D02*
Y91937D01*
Y84063D02*
Y88000D01*
X329000Y84063D02*
X330063Y83000D01*
X337937D02*
X339000Y84063D01*
X337937Y93000D02*
X339000Y91937D01*
X329000D02*
X330063Y93000D01*
Y83000D02*
X334000D01*
X337937D01*
X334000Y93000D02*
X337937D01*
X339000Y84063D02*
Y88000D01*
Y91937D01*
X302500Y307500D02*
X309000D01*
X333000Y320280D02*
Y362500D01*
X293000Y320280D02*
X333000D01*
X293000D02*
Y362500D01*
X333000D01*
X313000Y320280D02*
Y362500D01*
X283000D02*
X293000D01*
X283000Y320280D02*
X293000D01*
X283000D02*
Y362500D01*
X302500Y310000D02*
X309000D01*
X293000Y307500D02*
Y320280D01*
Y307500D02*
X295500D01*
Y320000D01*
X311500Y307500D02*
Y312500D01*
X295500Y310000D02*
X311500D01*
X295500Y307500D02*
X311500D01*
X295500Y312500D02*
X311500D01*
X322500Y307500D02*
X329000D01*
X322500Y310000D02*
X329000D01*
X313000Y307500D02*
Y320280D01*
Y307500D02*
X315500D01*
Y320000D01*
X331500Y307500D02*
Y312500D01*
X315500Y310000D02*
X331500D01*
X315500Y307500D02*
X331500D01*
X315500Y312500D02*
X331500D01*
X246000Y307000D02*
X252500D01*
X276500Y319779D02*
Y362000D01*
X236500Y319779D02*
X276500D01*
X236500D02*
Y362000D01*
X276500D01*
X256500Y319779D02*
Y362000D01*
X226500D02*
X236500D01*
X226500Y319779D02*
X236500D01*
X226500D02*
Y362000D01*
X246000Y309500D02*
X252500D01*
X236500Y307000D02*
Y319779D01*
Y307000D02*
X239000D01*
Y319500D01*
X255000Y307000D02*
Y312000D01*
X239000Y309500D02*
X255000D01*
X239000Y307000D02*
X255000D01*
X239000Y312000D02*
X255000D01*
X266000Y307000D02*
X272500D01*
X266000Y309500D02*
X272500D01*
X256500Y307000D02*
Y319779D01*
Y307000D02*
X259000D01*
Y319500D01*
X275000Y307000D02*
Y312000D01*
X259000Y309500D02*
X275000D01*
X259000Y307000D02*
X275000D01*
X259000Y312000D02*
X275000D01*
X118000Y307000D02*
X124500D01*
X148500Y319779D02*
Y362000D01*
X108500Y319779D02*
X148500D01*
X108500D02*
Y362000D01*
X148500D01*
X128500Y319779D02*
Y362000D01*
X98500D02*
X108500D01*
X98500Y319779D02*
X108500D01*
X98500D02*
Y362000D01*
X118000Y309500D02*
X124500D01*
X108500Y307000D02*
Y319779D01*
Y307000D02*
X111000D01*
Y319500D01*
X127000Y307000D02*
Y312000D01*
X111000Y309500D02*
X127000D01*
X111000Y307000D02*
X127000D01*
X111000Y312000D02*
X127000D01*
X138000Y307000D02*
X144500D01*
X138000Y309500D02*
X144500D01*
X128500Y307000D02*
Y319779D01*
Y307000D02*
X131000D01*
Y319500D01*
X147000Y307000D02*
Y312000D01*
X131000Y309500D02*
X147000D01*
X131000Y307000D02*
X147000D01*
X131000Y312000D02*
X147000D01*
X62000Y307000D02*
X68500D01*
X92500Y319779D02*
Y362000D01*
X52500Y319779D02*
X92500D01*
X52500D02*
Y362000D01*
X92500D01*
X72500Y319779D02*
Y362000D01*
X42500D02*
X52500D01*
X42500Y319779D02*
X52500D01*
X42500D02*
Y362000D01*
X62000Y309500D02*
X68500D01*
X52500Y307000D02*
Y319779D01*
Y307000D02*
X55000D01*
Y319500D01*
X71000Y307000D02*
Y312000D01*
X55000Y309500D02*
X71000D01*
X55000Y307000D02*
X71000D01*
X55000Y312000D02*
X71000D01*
X82000Y307000D02*
X88500D01*
X82000Y309500D02*
X88500D01*
X72500Y307000D02*
Y319779D01*
Y307000D02*
X75000D01*
Y319500D01*
X91000Y307000D02*
Y312000D01*
X75000Y309500D02*
X91000D01*
X75000Y307000D02*
X91000D01*
X75000Y312000D02*
X91000D01*
X244399Y195063D02*
X246764Y195118D01*
X244338Y193450D02*
X246608Y193304D01*
X244288Y192144D02*
X244445Y196278D01*
X248500Y191750D02*
Y196750D01*
X243500D02*
X248500Y194250D01*
X243500Y191750D02*
X248500Y194250D01*
X243500Y191750D02*
Y196750D01*
X251000Y188000D02*
Y194250D01*
X241000D02*
X251000D01*
X241000Y188000D02*
Y194250D01*
X231000Y188000D02*
X236000D01*
X233500Y185500D02*
Y190500D01*
X206399Y195063D02*
X208764Y195118D01*
X206338Y193450D02*
X208608Y193304D01*
X206289Y192144D02*
X206445Y196278D01*
X210500Y191750D02*
Y196750D01*
X205500D02*
X210500Y194250D01*
X205500Y191750D02*
X210500Y194250D01*
X205500Y191750D02*
Y196750D01*
X213000Y188000D02*
Y194250D01*
X203000D02*
X213000D01*
X203000Y188000D02*
Y194250D01*
X193000Y188000D02*
X198000D01*
X195500Y185500D02*
Y190500D01*
X166899Y195063D02*
X169264Y195118D01*
X166838Y193450D02*
X169108Y193304D01*
X166788Y192144D02*
X166945Y196278D01*
X171000Y191750D02*
Y196750D01*
X166000D02*
X171000Y194250D01*
X166000Y191750D02*
X171000Y194250D01*
X166000Y191750D02*
Y196750D01*
X173500Y188000D02*
Y194250D01*
X163500D02*
X173500D01*
X163500Y188000D02*
Y194250D01*
X153500Y188000D02*
X158500D01*
X156000Y185500D02*
Y190500D01*
X300500Y226500D02*
Y302437D01*
X239500Y226500D02*
X300500D01*
X239500D02*
Y302437D01*
X300500D01*
X269500Y263500D02*
Y272500D01*
X253500Y289500D02*
X259500D01*
Y283000D02*
Y289500D01*
X279500D02*
X286500D01*
X279500Y283000D02*
Y289500D01*
X256000Y284000D02*
X269500Y270500D01*
X258500Y283000D02*
X259500D01*
X247500Y249500D02*
Y259500D01*
X291500Y250000D02*
Y259500D01*
X2000Y131500D02*
Y138000D01*
X14780Y107500D02*
X57000D01*
X14780D02*
Y147500D01*
X57000D01*
Y107500D02*
Y147500D01*
X14780Y127500D02*
X57000D01*
Y147500D02*
Y157500D01*
X14780Y147500D02*
Y157500D01*
X57000D01*
X4500Y131500D02*
Y138000D01*
X2000Y147500D02*
X14780D01*
X2000Y145000D02*
Y147500D01*
Y145000D02*
X14500D01*
X2000Y129000D02*
X7000D01*
X4500D02*
Y145000D01*
X2000Y129000D02*
Y145000D01*
X7000Y129000D02*
Y145000D01*
X2000Y111500D02*
Y118000D01*
X4500Y111500D02*
Y118000D01*
X2000Y127500D02*
X14780D01*
X2000Y125000D02*
Y127500D01*
Y125000D02*
X14500D01*
X2000Y109000D02*
X7000D01*
X4500D02*
Y125000D01*
X2000Y109000D02*
Y125000D01*
X7000Y109000D02*
Y125000D01*
X159500Y227000D02*
Y302937D01*
X98500Y227000D02*
X159500D01*
X98500D02*
Y302937D01*
X159500D01*
X128500Y264000D02*
Y273000D01*
X112500Y290000D02*
X118500D01*
Y283500D02*
Y290000D01*
X138500D02*
X145500D01*
X138500Y283500D02*
Y290000D01*
X115000Y284500D02*
X128500Y271000D01*
X117500Y283500D02*
X118500D01*
X106500Y250000D02*
Y260000D01*
X150500Y250500D02*
Y260000D01*
X224500Y296000D02*
Y371937D01*
X163500Y296000D02*
X224500D01*
X163500D02*
Y371937D01*
X224500D01*
X193500Y333000D02*
Y342000D01*
X177500Y359000D02*
X183500D01*
Y352500D02*
Y359000D01*
X203500D02*
X210500D01*
X203500Y352500D02*
Y359000D01*
X180000Y353500D02*
X193500Y340000D01*
X182500Y352500D02*
X183500D01*
X171500Y319000D02*
Y329000D01*
X215500Y319500D02*
Y329000D01*
X72000Y75000D02*
Y81500D01*
X84780Y51000D02*
X127000D01*
X84780D02*
Y91000D01*
X127000D01*
Y51000D02*
Y91000D01*
X84780Y71000D02*
X127000D01*
Y91000D02*
Y101000D01*
X84780Y91000D02*
Y101000D01*
X127000D01*
X74500Y75000D02*
Y81500D01*
X72000Y91000D02*
X84780D01*
X72000Y88500D02*
Y91000D01*
Y88500D02*
X84500D01*
X72000Y72500D02*
X77000D01*
X74500D02*
Y88500D01*
X72000Y72500D02*
Y88500D01*
X77000Y72500D02*
Y88500D01*
X72000Y55000D02*
Y61500D01*
X74500Y55000D02*
Y61500D01*
X72000Y71000D02*
X84780D01*
X72000Y68500D02*
Y71000D01*
Y68500D02*
X84500D01*
X72000Y52500D02*
X77000D01*
X74500D02*
Y68500D01*
X72000Y52500D02*
Y68500D01*
X77000Y52500D02*
Y68500D01*
X2000Y75500D02*
Y82000D01*
X14780Y51500D02*
X57000D01*
X14780D02*
Y91500D01*
X57000D01*
Y51500D02*
Y91500D01*
X14780Y71500D02*
X57000D01*
Y91500D02*
Y101500D01*
X14780Y91500D02*
Y101500D01*
X57000D01*
X4500Y75500D02*
Y82000D01*
X2000Y91500D02*
X14780D01*
X2000Y89000D02*
Y91500D01*
Y89000D02*
X14500D01*
X2000Y73000D02*
X7000D01*
X4500D02*
Y89000D01*
X2000Y73000D02*
Y89000D01*
X7000Y73000D02*
Y89000D01*
X2000Y55500D02*
Y62000D01*
X4500Y55500D02*
Y62000D01*
X2000Y71500D02*
X14780D01*
X2000Y69000D02*
Y71500D01*
Y69000D02*
X14500D01*
X2000Y53000D02*
X7000D01*
X4500D02*
Y69000D01*
X2000Y53000D02*
Y69000D01*
X7000Y53000D02*
Y69000D01*
X30519Y4857D02*
X33090D01*
X33947Y5143D01*
X34232Y5429D01*
X34518Y6000D01*
Y6857D01*
X34232Y7428D01*
X33947Y7714D01*
X33090Y7999D01*
X30519D01*
Y2001D01*
X37574Y7999D02*
X37003Y7714D01*
X36432Y7142D01*
X36146Y6571D01*
X35861Y5714D01*
Y4286D01*
X36146Y3429D01*
X36432Y2858D01*
X37003Y2286D01*
X37574Y2001D01*
X38717D01*
X39288Y2286D01*
X39860Y2858D01*
X40145Y3429D01*
X40431Y4286D01*
Y5714D01*
X40145Y6571D01*
X39860Y7142D01*
X39288Y7714D01*
X38717Y7999D01*
X37574D01*
X41831D02*
X43259Y2001D01*
X44687Y7999D02*
X43259Y2001D01*
X44687Y7999D02*
X46116Y2001D01*
X47544Y7999D02*
X46116Y2001D01*
X52457Y7999D02*
X48744D01*
Y2001D01*
X52457D01*
X48744Y5143D02*
X51029D01*
X53457Y7999D02*
Y2001D01*
Y7999D02*
X56028D01*
X56885Y7714D01*
X57170Y7428D01*
X57456Y6857D01*
Y6285D01*
X57170Y5714D01*
X56885Y5429D01*
X56028Y5143D01*
X53457D01*
X55456D02*
X57456Y2001D01*
X65226Y7999D02*
X64654Y7714D01*
X64083Y7142D01*
X63797Y6571D01*
X63512Y5714D01*
Y4286D01*
X63797Y3429D01*
X64083Y2858D01*
X64654Y2286D01*
X65226Y2001D01*
X66368D01*
X66940Y2286D01*
X67511Y2858D01*
X67797Y3429D01*
X68082Y4286D01*
Y5714D01*
X67797Y6571D01*
X67511Y7142D01*
X66940Y7714D01*
X66368Y7999D01*
X65226D01*
X69482D02*
Y2001D01*
Y7999D02*
X73481Y2001D01*
Y7999D02*
Y2001D01*
X96000Y7499D02*
Y1500D01*
X98971Y7499D02*
X98400Y7213D01*
X97828Y6642D01*
X97543Y6070D01*
X97257Y5213D01*
Y3785D01*
X97543Y2928D01*
X97828Y2357D01*
X98400Y1786D01*
X98971Y1500D01*
X100113D01*
X100685Y1786D01*
X101256Y2357D01*
X101542Y2928D01*
X101827Y3785D01*
Y5213D01*
X101542Y6070D01*
X101256Y6642D01*
X100685Y7213D01*
X100113Y7499D01*
X98971D01*
X106940Y5499D02*
X106655Y4642D01*
X106084Y4071D01*
X105227Y3785D01*
X104941D01*
X104084Y4071D01*
X103513Y4642D01*
X103227Y5499D01*
Y5785D01*
X103513Y6642D01*
X104084Y7213D01*
X104941Y7499D01*
X105227D01*
X106084Y7213D01*
X106655Y6642D01*
X106940Y5499D01*
Y4071D01*
X106655Y2643D01*
X106084Y1786D01*
X105227Y1500D01*
X104655D01*
X103798Y1786D01*
X103513Y2357D01*
X123500Y7499D02*
Y1500D01*
X126471Y7499D02*
X125900Y7213D01*
X125328Y6642D01*
X125042Y6070D01*
X124757Y5213D01*
Y3785D01*
X125042Y2928D01*
X125328Y2357D01*
X125900Y1786D01*
X126471Y1500D01*
X127613D01*
X128185Y1786D01*
X128756Y2357D01*
X129042Y2928D01*
X129327Y3785D01*
Y5213D01*
X129042Y6070D01*
X128756Y6642D01*
X128185Y7213D01*
X127613Y7499D01*
X126471D01*
X132155D02*
X131298Y7213D01*
X131013Y6642D01*
Y6070D01*
X131298Y5499D01*
X131870Y5213D01*
X133012Y4928D01*
X133869Y4642D01*
X134441Y4071D01*
X134726Y3500D01*
Y2643D01*
X134441Y2071D01*
X134155Y1786D01*
X133298Y1500D01*
X132155D01*
X131298Y1786D01*
X131013Y2071D01*
X130727Y2643D01*
Y3500D01*
X131013Y4071D01*
X131584Y4642D01*
X132441Y4928D01*
X133583Y5213D01*
X134155Y5499D01*
X134441Y6070D01*
Y6642D01*
X134155Y7213D01*
X133298Y7499D01*
X132155D01*
X151500Y7499D02*
Y1500D01*
X154471Y7499D02*
X153900Y7213D01*
X153328Y6642D01*
X153042Y6070D01*
X152757Y5213D01*
Y3785D01*
X153042Y2928D01*
X153328Y2357D01*
X153900Y1786D01*
X154471Y1500D01*
X155613D01*
X156185Y1786D01*
X156756Y2357D01*
X157042Y2928D01*
X157327Y3785D01*
Y5213D01*
X157042Y6070D01*
X156756Y6642D01*
X156185Y7213D01*
X155613Y7499D01*
X154471D01*
X162726D02*
X159870Y1500D01*
X158727Y7499D02*
X162726D01*
X69629Y48571D02*
X69344Y49142D01*
X68772Y49714D01*
X68201Y49999D01*
X67058D01*
X66487Y49714D01*
X65916Y49142D01*
X65630Y48571D01*
X65345Y47714D01*
Y46286D01*
X65630Y45429D01*
X65916Y44858D01*
X66487Y44286D01*
X67058Y44001D01*
X68201D01*
X68772Y44286D01*
X69344Y44858D01*
X69629Y45429D01*
Y46286D01*
X68201D02*
X69629D01*
X71000Y49999D02*
Y44001D01*
Y49999D02*
X75000Y44001D01*
Y49999D02*
Y44001D01*
X76656Y49999D02*
Y44001D01*
Y49999D02*
X78656D01*
X79513Y49714D01*
X80084Y49142D01*
X80370Y48571D01*
X80655Y47714D01*
Y46286D01*
X80370Y45429D01*
X80084Y44858D01*
X79513Y44286D01*
X78656Y44001D01*
X76656D01*
X52185Y277304D02*
X58184Y279589D01*
X52185Y281874D01*
X54185Y281017D02*
Y278161D01*
X56756Y271619D02*
X57327Y271905D01*
X57898Y272476D01*
X58184Y273047D01*
Y274190D01*
X57898Y274761D01*
X57327Y275333D01*
X56756Y275618D01*
X55898Y275904D01*
X54470D01*
X53613Y275618D01*
X53042Y275333D01*
X52471Y274761D01*
X52185Y274190D01*
Y273047D01*
X52471Y272476D01*
X53042Y271905D01*
X53613Y271619D01*
X32685Y276804D02*
X38684Y279089D01*
X32685Y281374D01*
X34685Y280517D02*
Y277660D01*
X37255Y271119D02*
X37827Y271405D01*
X38398Y271976D01*
X38684Y272547D01*
Y273690D01*
X38398Y274261D01*
X37827Y274833D01*
X37255Y275118D01*
X36399Y275404D01*
X34970D01*
X34113Y275118D01*
X33542Y274833D01*
X32971Y274261D01*
X32685Y273690D01*
Y272547D01*
X32971Y271976D01*
X33542Y271405D01*
X34113Y271119D01*
X75256Y200874D02*
Y195732D01*
X78684Y193961D02*
X72685Y191676D01*
X78684Y189391D02*
X72685Y191676D01*
X78684Y186906D02*
X78398Y187477D01*
X77827Y188048D01*
X77255Y188334D01*
X76398Y188619D01*
X74970D01*
X74113Y188334D01*
X73542Y188048D01*
X72971Y187477D01*
X72685Y186906D01*
Y185763D01*
X72971Y185192D01*
X73542Y184620D01*
X74113Y184335D01*
X74970Y184049D01*
X76398D01*
X77255Y184335D01*
X77827Y184620D01*
X78398Y185192D01*
X78684Y185763D01*
Y186906D01*
X16327Y198803D02*
X11185D01*
X13756Y201374D02*
Y196232D01*
X17184Y194461D02*
X11185Y192176D01*
X17184Y189891D02*
X11185Y192176D01*
X17184Y187406D02*
X16898Y187977D01*
X16327Y188548D01*
X15755Y188834D01*
X14898Y189120D01*
X13470D01*
X12613Y188834D01*
X12042Y188548D01*
X11471Y187977D01*
X11185Y187406D01*
Y186263D01*
X11471Y185692D01*
X12042Y185120D01*
X12613Y184835D01*
X13470Y184549D01*
X14898D01*
X15755Y184835D01*
X16327Y185120D01*
X16898Y185692D01*
X17184Y186263D01*
Y187406D01*
X48684Y251874D02*
X42685D01*
X48684Y247875D02*
X42685D01*
X45827Y251874D02*
Y247875D01*
X48684Y246218D02*
X42685D01*
Y242790D01*
X48684Y242133D02*
X42685D01*
X48684Y238134D02*
X44685Y242133D01*
X46113Y240705D02*
X42685Y238134D01*
X45256Y236791D02*
Y231650D01*
X45542Y229879D02*
Y227308D01*
X45827Y226451D01*
X46113Y226165D01*
X46684Y225880D01*
X47541D01*
X48112Y226165D01*
X48398Y226451D01*
X48684Y227308D01*
Y229879D01*
X42685D01*
X48684Y224537D02*
X42685D01*
X48684D02*
X42685Y222252D01*
X48684Y219967D02*
X42685Y222252D01*
X48684Y219967D02*
X42685D01*
X48684Y216539D02*
X48398Y217396D01*
X47541Y217967D01*
X46113Y218253D01*
X45256D01*
X43828Y217967D01*
X42971Y217396D01*
X42685Y216539D01*
Y215967D01*
X42971Y215110D01*
X43828Y214539D01*
X45256Y214253D01*
X46113D01*
X47541Y214539D01*
X48398Y215110D01*
X48684Y215967D01*
Y216539D01*
X47541Y212911D02*
X47827Y212340D01*
X48684Y211483D01*
X42685D01*
X342071Y100999D02*
X345214D01*
X343500Y98713D01*
X344356D01*
X344928Y98428D01*
X345214Y98142D01*
X345499Y97285D01*
Y96714D01*
X345214Y95857D01*
X344642Y95286D01*
X343785Y95000D01*
X342928D01*
X342071Y95286D01*
X341786Y95571D01*
X341500Y96143D01*
X347127Y95571D02*
X346842Y95286D01*
X347127Y95000D01*
X347413Y95286D01*
X347127Y95571D01*
X349298Y100999D02*
X352441D01*
X350727Y98713D01*
X351584D01*
X352155Y98428D01*
X352441Y98142D01*
X352726Y97285D01*
Y96714D01*
X352441Y95857D01*
X351869Y95286D01*
X351012Y95000D01*
X350155D01*
X349298Y95286D01*
X349013Y95571D01*
X348727Y96143D01*
X354069Y100999D02*
X356354Y95000D01*
X358639Y100999D02*
X356354Y95000D01*
X344928Y90999D02*
X342071D01*
X341786Y88428D01*
X342071Y88714D01*
X342928Y88999D01*
X343785D01*
X344642Y88714D01*
X345214Y88142D01*
X345499Y87285D01*
Y86714D01*
X345214Y85857D01*
X344642Y85286D01*
X343785Y85000D01*
X342928D01*
X342071Y85286D01*
X341786Y85571D01*
X341500Y86143D01*
X346842Y90999D02*
X349127Y85000D01*
X351412Y90999D02*
X349127Y85000D01*
X321501Y220500D02*
X327500Y222785D01*
X321501Y225070D02*
X327500Y222785D01*
X324929Y225842D02*
Y230983D01*
X322930Y237039D02*
X322358Y236754D01*
X321787Y236182D01*
X321501Y235611D01*
Y234468D01*
X321787Y233897D01*
X322358Y233326D01*
X322930Y233040D01*
X323786Y232754D01*
X325215D01*
X326072Y233040D01*
X326643Y233326D01*
X327214Y233897D01*
X327500Y234468D01*
Y235611D01*
X327214Y236182D01*
X326643Y236754D01*
X326072Y237039D01*
X325215D01*
Y235611D02*
Y237039D01*
X322001Y283000D02*
X328000Y285285D01*
X322001Y287570D02*
X328000Y285285D01*
X325429Y288342D02*
Y293483D01*
X323430Y299539D02*
X322858Y299254D01*
X322287Y298682D01*
X322001Y298111D01*
Y296968D01*
X322287Y296397D01*
X322858Y295826D01*
X323430Y295540D01*
X324287Y295254D01*
X325715D01*
X326572Y295540D01*
X327143Y295826D01*
X327714Y296397D01*
X328000Y296968D01*
Y298111D01*
X327714Y298682D01*
X327143Y299254D01*
X326572Y299539D01*
X325715D01*
Y298111D02*
Y299539D01*
X322001Y247000D02*
X328000D01*
X322001Y245000D02*
Y248999D01*
Y256426D02*
X328000D01*
X322001Y254427D02*
Y258426D01*
Y259140D02*
X328000Y263139D01*
X322001D02*
X328000Y259140D01*
X322001Y269195D02*
X328000D01*
X322001D02*
Y271766D01*
X322287Y272623D01*
X322573Y272908D01*
X323144Y273194D01*
X323715D01*
X324287Y272908D01*
X324572Y272623D01*
X324858Y271766D01*
Y269195D01*
Y271194D02*
X328000Y273194D01*
X322001Y274536D02*
X328000Y278536D01*
X322001D02*
X328000Y274536D01*
X321501Y184500D02*
X327500D01*
X321501Y182500D02*
Y186499D01*
Y193926D02*
X327500D01*
X321501Y191927D02*
Y195926D01*
Y196640D02*
X327500Y200639D01*
X321501D02*
X327500Y196640D01*
X321501Y206695D02*
X327500D01*
X321501D02*
Y209266D01*
X321787Y210123D01*
X322073Y210408D01*
X322644Y210694D01*
X323215D01*
X323786Y210408D01*
X324072Y210123D01*
X324358Y209266D01*
Y206695D01*
Y208694D02*
X327500Y210694D01*
X321501Y212036D02*
X327500Y216036D01*
X321501D02*
X327500Y212036D01*
X362001Y241500D02*
X368000D01*
X362001D02*
Y244071D01*
X362287Y244928D01*
X362573Y245214D01*
X363144Y245499D01*
X363715D01*
X364286Y245214D01*
X364572Y244928D01*
X364858Y244071D01*
Y241500D02*
Y244071D01*
X365143Y244928D01*
X365429Y245214D01*
X366000Y245499D01*
X366857D01*
X367429Y245214D01*
X367714Y244928D01*
X368000Y244071D01*
Y241500D01*
Y251412D02*
X362001Y249127D01*
X368000Y246842D01*
X366000Y247699D02*
Y250555D01*
X362001Y252812D02*
X368000D01*
X362001D02*
Y255383D01*
X362287Y256240D01*
X362573Y256525D01*
X363144Y256811D01*
X363715D01*
X364286Y256525D01*
X364572Y256240D01*
X364858Y255383D01*
Y252812D01*
Y254811D02*
X368000Y256811D01*
X363430Y262438D02*
X362858Y262153D01*
X362287Y261581D01*
X362001Y261010D01*
Y259868D01*
X362287Y259296D01*
X362858Y258725D01*
X363430Y258439D01*
X364286Y258154D01*
X365715D01*
X366572Y258439D01*
X367143Y258725D01*
X367714Y259296D01*
X368000Y259868D01*
Y261010D01*
X367714Y261581D01*
X367143Y262153D01*
X366572Y262438D01*
X362001Y265838D02*
X362287Y265266D01*
X362858Y264695D01*
X363430Y264409D01*
X364286Y264124D01*
X365715D01*
X366572Y264409D01*
X367143Y264695D01*
X367714Y265266D01*
X368000Y265838D01*
Y266980D01*
X367714Y267552D01*
X367143Y268123D01*
X366572Y268408D01*
X365715Y268694D01*
X364286D01*
X363430Y268408D01*
X362858Y268123D01*
X362287Y267552D01*
X362001Y266980D01*
Y265838D01*
Y270094D02*
X368000D01*
X362001D02*
Y272093D01*
X362287Y272950D01*
X362858Y273522D01*
X363430Y273807D01*
X364286Y274093D01*
X365715D01*
X366572Y273807D01*
X367143Y273522D01*
X367714Y272950D01*
X368000Y272093D01*
Y270094D01*
X362001Y279149D02*
Y275436D01*
X368000D01*
Y279149D01*
X364858Y275436D02*
Y277721D01*
X363430Y285148D02*
X363144D01*
X362573Y285433D01*
X362287Y285719D01*
X362001Y286290D01*
Y287433D01*
X362287Y288004D01*
X362573Y288290D01*
X363144Y288576D01*
X363715D01*
X364286Y288290D01*
X365143Y287719D01*
X368000Y284862D01*
Y288861D01*
X362501Y178000D02*
X368500D01*
X362501D02*
Y180571D01*
X362787Y181428D01*
X363073Y181713D01*
X363644Y181999D01*
X364215D01*
X364787Y181713D01*
X365072Y181428D01*
X365358Y180571D01*
Y178000D02*
Y180571D01*
X365644Y181428D01*
X365929Y181713D01*
X366500Y181999D01*
X367357D01*
X367929Y181713D01*
X368214Y181428D01*
X368500Y180571D01*
Y178000D01*
Y187912D02*
X362501Y185627D01*
X368500Y183342D01*
X366500Y184199D02*
Y187055D01*
X362501Y189312D02*
X368500D01*
X362501D02*
Y191883D01*
X362787Y192740D01*
X363073Y193025D01*
X363644Y193311D01*
X364215D01*
X364787Y193025D01*
X365072Y192740D01*
X365358Y191883D01*
Y189312D01*
Y191311D02*
X368500Y193311D01*
X363930Y198938D02*
X363358Y198653D01*
X362787Y198081D01*
X362501Y197510D01*
Y196368D01*
X362787Y195796D01*
X363358Y195225D01*
X363930Y194939D01*
X364787Y194654D01*
X366215D01*
X367072Y194939D01*
X367643Y195225D01*
X368214Y195796D01*
X368500Y196368D01*
Y197510D01*
X368214Y198081D01*
X367643Y198653D01*
X367072Y198938D01*
X362501Y202338D02*
X362787Y201766D01*
X363358Y201195D01*
X363930Y200909D01*
X364787Y200624D01*
X366215D01*
X367072Y200909D01*
X367643Y201195D01*
X368214Y201766D01*
X368500Y202338D01*
Y203480D01*
X368214Y204052D01*
X367643Y204623D01*
X367072Y204908D01*
X366215Y205194D01*
X364787D01*
X363930Y204908D01*
X363358Y204623D01*
X362787Y204052D01*
X362501Y203480D01*
Y202338D01*
Y206594D02*
X368500D01*
X362501D02*
Y208593D01*
X362787Y209450D01*
X363358Y210022D01*
X363930Y210307D01*
X364787Y210593D01*
X366215D01*
X367072Y210307D01*
X367643Y210022D01*
X368214Y209450D01*
X368500Y208593D01*
Y206594D01*
X362501Y215649D02*
Y211936D01*
X368500D01*
Y215649D01*
X365358Y211936D02*
Y214221D01*
X363644Y221362D02*
X363358Y221933D01*
X362501Y222790D01*
X368500D01*
X314500Y7499D02*
Y1500D01*
X317471Y7499D02*
X316899Y7213D01*
X316328Y6642D01*
X316042Y6070D01*
X315757Y5213D01*
Y3785D01*
X316042Y2928D01*
X316328Y2357D01*
X316899Y1786D01*
X317471Y1500D01*
X318613D01*
X319185Y1786D01*
X319756Y2357D01*
X320042Y2928D01*
X320327Y3785D01*
Y5213D01*
X320042Y6070D01*
X319756Y6642D01*
X319185Y7213D01*
X318613Y7499D01*
X317471D01*
X321727Y6356D02*
X322298Y6642D01*
X323155Y7499D01*
Y1500D01*
X287000Y7499D02*
Y1500D01*
X289971Y7499D02*
X289400Y7213D01*
X288828Y6642D01*
X288543Y6070D01*
X288257Y5213D01*
Y3785D01*
X288543Y2928D01*
X288828Y2357D01*
X289400Y1786D01*
X289971Y1500D01*
X291113D01*
X291685Y1786D01*
X292256Y2357D01*
X292542Y2928D01*
X292827Y3785D01*
Y5213D01*
X292542Y6070D01*
X292256Y6642D01*
X291685Y7213D01*
X291113Y7499D01*
X289971D01*
X294513Y6070D02*
Y6356D01*
X294798Y6927D01*
X295084Y7213D01*
X295655Y7499D01*
X296798D01*
X297369Y7213D01*
X297655Y6927D01*
X297940Y6356D01*
Y5785D01*
X297655Y5213D01*
X297084Y4357D01*
X294227Y1500D01*
X298226D01*
X261000Y7499D02*
Y1500D01*
X263971Y7499D02*
X263400Y7213D01*
X262828Y6642D01*
X262543Y6070D01*
X262257Y5213D01*
Y3785D01*
X262543Y2928D01*
X262828Y2357D01*
X263400Y1786D01*
X263971Y1500D01*
X265113D01*
X265685Y1786D01*
X266256Y2357D01*
X266542Y2928D01*
X266827Y3785D01*
Y5213D01*
X266542Y6070D01*
X266256Y6642D01*
X265685Y7213D01*
X265113Y7499D01*
X263971D01*
X268798D02*
X271940D01*
X270227Y5213D01*
X271084D01*
X271655Y4928D01*
X271940Y4642D01*
X272226Y3785D01*
Y3214D01*
X271940Y2357D01*
X271369Y1786D01*
X270512Y1500D01*
X269655D01*
X268798Y1786D01*
X268513Y2071D01*
X268227Y2643D01*
X233500Y7499D02*
Y1500D01*
X236471Y7499D02*
X235899Y7213D01*
X235328Y6642D01*
X235043Y6070D01*
X234757Y5213D01*
Y3785D01*
X235043Y2928D01*
X235328Y2357D01*
X235899Y1786D01*
X236471Y1500D01*
X237613D01*
X238185Y1786D01*
X238756Y2357D01*
X239042Y2928D01*
X239327Y3785D01*
Y5213D01*
X239042Y6070D01*
X238756Y6642D01*
X238185Y7213D01*
X237613Y7499D01*
X236471D01*
X243584D02*
X240727Y3500D01*
X245012D01*
X243584Y7499D02*
Y1500D01*
X205500Y7499D02*
Y1500D01*
X208471Y7499D02*
X207899Y7213D01*
X207328Y6642D01*
X207043Y6070D01*
X206757Y5213D01*
Y3785D01*
X207043Y2928D01*
X207328Y2357D01*
X207899Y1786D01*
X208471Y1500D01*
X209613D01*
X210185Y1786D01*
X210756Y2357D01*
X211042Y2928D01*
X211327Y3785D01*
Y5213D01*
X211042Y6070D01*
X210756Y6642D01*
X210185Y7213D01*
X209613Y7499D01*
X208471D01*
X216155D02*
X213298D01*
X213013Y4928D01*
X213298Y5213D01*
X214155Y5499D01*
X215012D01*
X215869Y5213D01*
X216441Y4642D01*
X216726Y3785D01*
Y3214D01*
X216441Y2357D01*
X215869Y1786D01*
X215012Y1500D01*
X214155D01*
X213298Y1786D01*
X213013Y2071D01*
X212727Y2643D01*
X179500Y7499D02*
Y1500D01*
X182471Y7499D02*
X181899Y7213D01*
X181328Y6642D01*
X181043Y6070D01*
X180757Y5213D01*
Y3785D01*
X181043Y2928D01*
X181328Y2357D01*
X181899Y1786D01*
X182471Y1500D01*
X183613D01*
X184185Y1786D01*
X184756Y2357D01*
X185042Y2928D01*
X185327Y3785D01*
Y5213D01*
X185042Y6070D01*
X184756Y6642D01*
X184185Y7213D01*
X183613Y7499D01*
X182471D01*
X190155Y6642D02*
X189869Y7213D01*
X189012Y7499D01*
X188441D01*
X187584Y7213D01*
X187013Y6356D01*
X186727Y4928D01*
Y3500D01*
X187013Y2357D01*
X187584Y1786D01*
X188441Y1500D01*
X188727D01*
X189584Y1786D01*
X190155Y2357D01*
X190440Y3214D01*
Y3500D01*
X190155Y4357D01*
X189584Y4928D01*
X188727Y5213D01*
X188441D01*
X187584Y4928D01*
X187013Y4357D01*
X186727Y3500D01*
X338499Y40642D02*
X337928Y41213D01*
X337071Y41499D01*
X335928D01*
X335071Y41213D01*
X334500Y40642D01*
Y40070D01*
X334786Y39499D01*
X335071Y39213D01*
X335643Y38928D01*
X337356Y38357D01*
X337928Y38071D01*
X338213Y37785D01*
X338499Y37214D01*
Y36357D01*
X337928Y35786D01*
X337071Y35500D01*
X335928D01*
X335071Y35786D01*
X334500Y36357D01*
X338285Y20070D02*
X337999Y20642D01*
X337428Y21213D01*
X336857Y21499D01*
X335714D01*
X335143Y21213D01*
X334571Y20642D01*
X334286Y20070D01*
X334000Y19214D01*
Y17785D01*
X334286Y16928D01*
X334571Y16357D01*
X335143Y15786D01*
X335714Y15500D01*
X336857D01*
X337428Y15786D01*
X337999Y16357D01*
X338285Y16928D01*
Y17785D01*
X336857D02*
X338285D01*
X334000Y31999D02*
X336285Y26000D01*
X338570Y31999D02*
X336285Y26000D01*
X295499Y280286D02*
X290500D01*
X295499Y280048D02*
X290976Y277191D01*
X295023Y280048D02*
X290500Y277191D01*
X295499D02*
X290500D01*
X295499Y281000D02*
Y280048D01*
Y277905D02*
Y276477D01*
X290500Y281000D02*
Y279572D01*
X295499Y274192D02*
X295261Y274906D01*
X294785Y275382D01*
X294309Y275620D01*
X293356Y275858D01*
X292642D01*
X291690Y275620D01*
X291214Y275382D01*
X290738Y274906D01*
X290500Y274192D01*
Y273716D01*
X290738Y273002D01*
X291214Y272526D01*
X291690Y272288D01*
X292642Y272049D01*
X293356D01*
X294309Y272288D01*
X294785Y272526D01*
X295261Y273002D01*
X295499Y273716D01*
Y274192D01*
X295261Y274668D01*
X294785Y275144D01*
X294309Y275382D01*
X293356Y275620D01*
X292642D01*
X291690Y275382D01*
X291214Y275144D01*
X290738Y274668D01*
X290500Y274192D01*
Y273716D02*
X290738Y273240D01*
X291214Y272764D01*
X291690Y272526D01*
X292642Y272288D01*
X293356D01*
X294309Y272526D01*
X294785Y272764D01*
X295261Y273240D01*
X295499Y273716D01*
X249999Y280286D02*
X245000D01*
X249999Y280048D02*
X245476Y277191D01*
X249523Y280048D02*
X245000Y277191D01*
X249999D02*
X245000D01*
X249999Y281000D02*
Y280048D01*
Y277905D02*
Y276477D01*
X245000Y281000D02*
Y279572D01*
X249285Y272526D02*
X248571Y272288D01*
X249999D01*
X249285Y272526D01*
X249761Y273002D01*
X249999Y273716D01*
Y274192D01*
X249761Y274906D01*
X249285Y275382D01*
X248809Y275620D01*
X248095Y275858D01*
X246904D01*
X246190Y275620D01*
X245714Y275382D01*
X245238Y274906D01*
X245000Y274192D01*
Y273716D01*
X245238Y273002D01*
X245714Y272526D01*
X246190Y272288D01*
X249999Y274192D02*
X249761Y274668D01*
X249285Y275144D01*
X248809Y275382D01*
X248095Y275620D01*
X246904D01*
X246190Y275382D01*
X245714Y275144D01*
X245238Y274668D01*
X245000Y274192D01*
X271285Y252667D02*
X270571Y252429D01*
X271999D01*
X271285Y252667D01*
X271761Y253144D01*
X271999Y253858D01*
Y254334D01*
X271761Y255048D01*
X271285Y255524D01*
X270809Y255762D01*
X270095Y256000D01*
X268904D01*
X268190Y255762D01*
X267714Y255524D01*
X267238Y255048D01*
X267000Y254334D01*
Y253858D01*
X267238Y253144D01*
X267714Y252667D01*
X268190Y252429D01*
X271999Y254334D02*
X271761Y254810D01*
X271285Y255286D01*
X270809Y255524D01*
X270095Y255762D01*
X268904D01*
X268190Y255524D01*
X267714Y255286D01*
X267238Y254810D01*
X267000Y254334D01*
X271999Y250049D02*
X271761Y250763D01*
X271285Y251239D01*
X270809Y251477D01*
X269857Y251715D01*
X269142D01*
X268190Y251477D01*
X267714Y251239D01*
X267238Y250763D01*
X267000Y250049D01*
Y249573D01*
X267238Y248859D01*
X267714Y248383D01*
X268190Y248145D01*
X269142Y247906D01*
X269857D01*
X270809Y248145D01*
X271285Y248383D01*
X271761Y248859D01*
X271999Y249573D01*
Y250049D01*
X271761Y250525D01*
X271285Y251001D01*
X270809Y251239D01*
X269857Y251477D01*
X269142D01*
X268190Y251239D01*
X267714Y251001D01*
X267238Y250525D01*
X267000Y250049D01*
Y249573D02*
X267238Y249097D01*
X267714Y248621D01*
X268190Y248383D01*
X269142Y248145D01*
X269857D01*
X270809Y248383D01*
X271285Y248621D01*
X271761Y249097D01*
X271999Y249573D01*
Y246502D02*
X267000D01*
X271999Y246264D02*
X267714Y244836D01*
X271999Y246502D02*
X267000Y244836D01*
X271999Y243169D02*
X267000Y244836D01*
X271999Y243169D02*
X267000D01*
X271999Y242931D02*
X267000D01*
X271999Y247216D02*
Y246264D01*
Y243169D02*
Y242217D01*
X267000Y247216D02*
Y245788D01*
Y243883D02*
Y242217D01*
X154499Y280786D02*
X149500D01*
X154499Y280548D02*
X149976Y277691D01*
X154023Y280548D02*
X149500Y277691D01*
X154499D02*
X149500D01*
X154499Y281500D02*
Y280548D01*
Y278405D02*
Y276977D01*
X149500Y281500D02*
Y280072D01*
X154499Y274692D02*
X154261Y275406D01*
X153785Y275882D01*
X153309Y276120D01*
X152357Y276358D01*
X151642D01*
X150690Y276120D01*
X150214Y275882D01*
X149738Y275406D01*
X149500Y274692D01*
Y274216D01*
X149738Y273502D01*
X150214Y273026D01*
X150690Y272788D01*
X151642Y272550D01*
X152357D01*
X153309Y272788D01*
X153785Y273026D01*
X154261Y273502D01*
X154499Y274216D01*
Y274692D01*
X154261Y275168D01*
X153785Y275644D01*
X153309Y275882D01*
X152357Y276120D01*
X151642D01*
X150690Y275882D01*
X150214Y275644D01*
X149738Y275168D01*
X149500Y274692D01*
Y274216D02*
X149738Y273740D01*
X150214Y273264D01*
X150690Y273026D01*
X151642Y272788D01*
X152357D01*
X153309Y273026D01*
X153785Y273264D01*
X154261Y273740D01*
X154499Y274216D01*
X108999Y280786D02*
X104000D01*
X108999Y280548D02*
X104476Y277691D01*
X108523Y280548D02*
X104000Y277691D01*
X108999D02*
X104000D01*
X108999Y281500D02*
Y280548D01*
Y278405D02*
Y276977D01*
X104000Y281500D02*
Y280072D01*
X108285Y273026D02*
X107571Y272788D01*
X108999D01*
X108285Y273026D01*
X108761Y273502D01*
X108999Y274216D01*
Y274692D01*
X108761Y275406D01*
X108285Y275882D01*
X107809Y276120D01*
X107095Y276358D01*
X105904D01*
X105190Y276120D01*
X104714Y275882D01*
X104238Y275406D01*
X104000Y274692D01*
Y274216D01*
X104238Y273502D01*
X104714Y273026D01*
X105190Y272788D01*
X108999Y274692D02*
X108761Y275168D01*
X108285Y275644D01*
X107809Y275882D01*
X107095Y276120D01*
X105904D01*
X105190Y275882D01*
X104714Y275644D01*
X104238Y275168D01*
X104000Y274692D01*
X130285Y253167D02*
X129571Y252929D01*
X130999D01*
X130285Y253167D01*
X130761Y253643D01*
X130999Y254358D01*
Y254834D01*
X130761Y255548D01*
X130285Y256024D01*
X129809Y256262D01*
X129095Y256500D01*
X127904D01*
X127190Y256262D01*
X126714Y256024D01*
X126238Y255548D01*
X126000Y254834D01*
Y254358D01*
X126238Y253643D01*
X126714Y253167D01*
X127190Y252929D01*
X130999Y254834D02*
X130761Y255310D01*
X130285Y255786D01*
X129809Y256024D01*
X129095Y256262D01*
X127904D01*
X127190Y256024D01*
X126714Y255786D01*
X126238Y255310D01*
X126000Y254834D01*
X130999Y250549D02*
X130761Y251263D01*
X130285Y251739D01*
X129809Y251977D01*
X128857Y252215D01*
X128142D01*
X127190Y251977D01*
X126714Y251739D01*
X126238Y251263D01*
X126000Y250549D01*
Y250073D01*
X126238Y249359D01*
X126714Y248883D01*
X127190Y248644D01*
X128142Y248407D01*
X128857D01*
X129809Y248644D01*
X130285Y248883D01*
X130761Y249359D01*
X130999Y250073D01*
Y250549D01*
X130761Y251025D01*
X130285Y251501D01*
X129809Y251739D01*
X128857Y251977D01*
X128142D01*
X127190Y251739D01*
X126714Y251501D01*
X126238Y251025D01*
X126000Y250549D01*
Y250073D02*
X126238Y249597D01*
X126714Y249121D01*
X127190Y248883D01*
X128142Y248644D01*
X128857D01*
X129809Y248883D01*
X130285Y249121D01*
X130761Y249597D01*
X130999Y250073D01*
Y247002D02*
X126000D01*
X130999Y246764D02*
X126714Y245336D01*
X130999Y247002D02*
X126000Y245336D01*
X130999Y243669D02*
X126000Y245336D01*
X130999Y243669D02*
X126000D01*
X130999Y243431D02*
X126000D01*
X130999Y247716D02*
Y246764D01*
Y243669D02*
Y242717D01*
X126000Y247716D02*
Y246288D01*
Y244384D02*
Y242717D01*
X219499Y349786D02*
X214500D01*
X219499Y349548D02*
X214976Y346691D01*
X219023Y349548D02*
X214500Y346691D01*
X219499D02*
X214500D01*
X219499Y350500D02*
Y349548D01*
Y347405D02*
Y345977D01*
X214500Y350500D02*
Y349072D01*
X219499Y343692D02*
X219261Y344406D01*
X218785Y344882D01*
X218309Y345120D01*
X217356Y345358D01*
X216642D01*
X215690Y345120D01*
X215214Y344882D01*
X214738Y344406D01*
X214500Y343692D01*
Y343216D01*
X214738Y342502D01*
X215214Y342026D01*
X215690Y341788D01*
X216642Y341549D01*
X217356D01*
X218309Y341788D01*
X218785Y342026D01*
X219261Y342502D01*
X219499Y343216D01*
Y343692D01*
X219261Y344168D01*
X218785Y344644D01*
X218309Y344882D01*
X217356Y345120D01*
X216642D01*
X215690Y344882D01*
X215214Y344644D01*
X214738Y344168D01*
X214500Y343692D01*
Y343216D02*
X214738Y342740D01*
X215214Y342264D01*
X215690Y342026D01*
X216642Y341788D01*
X217356D01*
X218309Y342026D01*
X218785Y342264D01*
X219261Y342740D01*
X219499Y343216D01*
X173999Y349786D02*
X169000D01*
X173999Y349548D02*
X169476Y346691D01*
X173523Y349548D02*
X169000Y346691D01*
X173999D02*
X169000D01*
X173999Y350500D02*
Y349548D01*
Y347405D02*
Y345977D01*
X169000Y350500D02*
Y349072D01*
X173285Y342026D02*
X172571Y341788D01*
X173999D01*
X173285Y342026D01*
X173761Y342502D01*
X173999Y343216D01*
Y343692D01*
X173761Y344406D01*
X173285Y344882D01*
X172809Y345120D01*
X172095Y345358D01*
X170904D01*
X170190Y345120D01*
X169714Y344882D01*
X169238Y344406D01*
X169000Y343692D01*
Y343216D01*
X169238Y342502D01*
X169714Y342026D01*
X170190Y341788D01*
X173999Y343692D02*
X173761Y344168D01*
X173285Y344644D01*
X172809Y344882D01*
X172095Y345120D01*
X170904D01*
X170190Y344882D01*
X169714Y344644D01*
X169238Y344168D01*
X169000Y343692D01*
X195285Y322167D02*
X194571Y321929D01*
X195999D01*
X195285Y322167D01*
X195761Y322643D01*
X195999Y323358D01*
Y323834D01*
X195761Y324548D01*
X195285Y325024D01*
X194809Y325262D01*
X194095Y325500D01*
X192904D01*
X192190Y325262D01*
X191714Y325024D01*
X191238Y324548D01*
X191000Y323834D01*
Y323358D01*
X191238Y322643D01*
X191714Y322167D01*
X192190Y321929D01*
X195999Y323834D02*
X195761Y324310D01*
X195285Y324786D01*
X194809Y325024D01*
X194095Y325262D01*
X192904D01*
X192190Y325024D01*
X191714Y324786D01*
X191238Y324310D01*
X191000Y323834D01*
X195999Y319549D02*
X195761Y320263D01*
X195285Y320739D01*
X194809Y320977D01*
X193857Y321215D01*
X193142D01*
X192190Y320977D01*
X191714Y320739D01*
X191238Y320263D01*
X191000Y319549D01*
Y319073D01*
X191238Y318359D01*
X191714Y317883D01*
X192190Y317645D01*
X193142Y317407D01*
X193857D01*
X194809Y317645D01*
X195285Y317883D01*
X195761Y318359D01*
X195999Y319073D01*
Y319549D01*
X195761Y320025D01*
X195285Y320501D01*
X194809Y320739D01*
X193857Y320977D01*
X193142D01*
X192190Y320739D01*
X191714Y320501D01*
X191238Y320025D01*
X191000Y319549D01*
Y319073D02*
X191238Y318597D01*
X191714Y318121D01*
X192190Y317883D01*
X193142Y317645D01*
X193857D01*
X194809Y317883D01*
X195285Y318121D01*
X195761Y318597D01*
X195999Y319073D01*
Y316002D02*
X191000D01*
X195999Y315764D02*
X191714Y314336D01*
X195999Y316002D02*
X191000Y314336D01*
X195999Y312669D02*
X191000Y314336D01*
X195999Y312669D02*
X191000D01*
X195999Y312431D02*
X191000D01*
X195999Y316716D02*
Y315764D01*
Y312669D02*
Y311717D01*
X191000Y316716D02*
Y315288D01*
Y313384D02*
Y311717D01*
X60200Y146199D02*
Y140200D01*
Y146199D02*
X62771D01*
X63628Y145913D01*
X63914Y145627D01*
X64199Y145056D01*
Y144485D01*
X63914Y143913D01*
X63628Y143628D01*
X62771Y143342D01*
X60200D01*
X62200D02*
X64199Y140200D01*
X69541Y146199D02*
X66684Y140200D01*
X65542Y146199D02*
X69541D01*
X176727Y87470D02*
X176442Y88041D01*
X175870Y88612D01*
X175299Y88898D01*
X174156D01*
X173585Y88612D01*
X173014Y88041D01*
X172728Y87470D01*
X172442Y86613D01*
Y85184D01*
X172728Y84328D01*
X173014Y83756D01*
X173585Y83185D01*
X174156Y82899D01*
X175299D01*
X175870Y83185D01*
X176442Y83756D01*
X176727Y84328D01*
X178413Y87755D02*
X178984Y88041D01*
X179841Y88898D01*
Y82899D01*
X191030Y218999D02*
Y214715D01*
X191315Y213858D01*
X191887Y213286D01*
X192744Y213001D01*
X193315D01*
X194172Y213286D01*
X194743Y213858D01*
X195029Y214715D01*
Y218999D01*
X199542D02*
X196686Y215000D01*
X200970D01*
X199542Y218999D02*
Y213001D01*
X227001Y258972D02*
X232999D01*
X227001D02*
Y261543D01*
X227286Y262400D01*
X227572Y262686D01*
X228143Y262971D01*
X228715D01*
X229286Y262686D01*
X229572Y262400D01*
X229857Y261543D01*
Y258972D01*
Y260972D02*
X232999Y262971D01*
X227858Y267742D02*
X227286Y267456D01*
X227001Y266599D01*
Y266028D01*
X227286Y265171D01*
X228143Y264600D01*
X229572Y264314D01*
X231000D01*
X232142Y264600D01*
X232714Y265171D01*
X232999Y266028D01*
Y266314D01*
X232714Y267171D01*
X232142Y267742D01*
X231285Y268028D01*
X231000D01*
X230143Y267742D01*
X229572Y267171D01*
X229286Y266314D01*
Y266028D01*
X229572Y265171D01*
X230143Y264600D01*
X231000Y264314D01*
X153501Y94830D02*
X159499D01*
X153501D02*
Y97400D01*
X153786Y98257D01*
X154072Y98543D01*
X154643Y98829D01*
X155215D01*
X155786Y98543D01*
X156071Y98257D01*
X156357Y97400D01*
Y94830D01*
Y96829D02*
X159499Y98829D01*
X153501Y103599D02*
Y100743D01*
X156071Y100457D01*
X155786Y100743D01*
X155500Y101600D01*
Y102456D01*
X155786Y103314D01*
X156357Y103885D01*
X157214Y104170D01*
X157785D01*
X158642Y103885D01*
X159214Y103314D01*
X159499Y102456D01*
Y101600D01*
X159214Y100743D01*
X158928Y100457D01*
X158357Y100171D01*
X228229Y203785D02*
X227658Y203499D01*
X227087Y202928D01*
X226801Y202357D01*
X226515Y201500D01*
Y200072D01*
X226801Y199215D01*
X227087Y198643D01*
X227658Y198072D01*
X228229Y197786D01*
X229372D01*
X229943Y198072D01*
X230515Y198643D01*
X230800Y199215D01*
X231086Y200072D01*
Y201500D01*
X230800Y202357D01*
X230515Y202928D01*
X229943Y203499D01*
X229372Y203785D01*
X228229D01*
X229086Y198929D02*
X230800Y197215D01*
X233057Y203785D02*
X236199D01*
X234485Y201500D01*
X235342D01*
X235913Y201214D01*
X236199Y200928D01*
X236485Y200072D01*
Y199500D01*
X236199Y198643D01*
X235628Y198072D01*
X234771Y197786D01*
X233914D01*
X233057Y198072D01*
X232771Y198358D01*
X232486Y198929D01*
X327360Y366859D02*
X327931Y366287D01*
X328788Y366002D01*
X329931D01*
X330788Y366287D01*
X331359Y366859D01*
Y367430D01*
X331073Y368001D01*
X330788Y368287D01*
X330216Y368572D01*
X328502Y369144D01*
X327931Y369429D01*
X327645Y369715D01*
X327360Y370286D01*
Y371143D01*
X327931Y371715D01*
X328788Y372000D01*
X329931D01*
X330788Y371715D01*
X331359Y371143D01*
X326017Y369144D02*
X323446D01*
X322589Y368858D01*
X322304Y368572D01*
X322018Y368001D01*
Y367144D01*
X322304Y366573D01*
X322589Y366287D01*
X323446Y366002D01*
X326017D01*
Y372000D01*
X316105D02*
X318390Y366002D01*
X320675Y372000D01*
X319818Y370001D02*
X316962D01*
X314705Y366002D02*
Y372000D01*
Y366002D02*
X312135D01*
X311278Y366287D01*
X310992Y366573D01*
X310706Y367144D01*
Y367716D01*
X310992Y368287D01*
X311278Y368572D01*
X312135Y368858D01*
X314705D01*
X312706D02*
X310706Y372000D01*
X305650Y366002D02*
X309364D01*
Y372000D01*
X305650D01*
X309364Y368858D02*
X307078D01*
X229972Y178499D02*
Y172501D01*
Y178499D02*
X231972D01*
X232829Y178214D01*
X233400Y177642D01*
X233686Y177071D01*
X233972Y176214D01*
Y174786D01*
X233686Y173929D01*
X233400Y173358D01*
X232829Y172786D01*
X231972Y172501D01*
X229972D01*
X238742Y177642D02*
X238456Y178214D01*
X237599Y178499D01*
X237028D01*
X236171Y178214D01*
X235600Y177357D01*
X235314Y175928D01*
Y174500D01*
X235600Y173358D01*
X236171Y172786D01*
X237028Y172501D01*
X237314D01*
X238171Y172786D01*
X238742Y173358D01*
X239028Y174215D01*
Y174500D01*
X238742Y175357D01*
X238171Y175928D01*
X237314Y176214D01*
X237028D01*
X236171Y175928D01*
X235600Y175357D01*
X235314Y174500D01*
X294830Y222999D02*
Y217001D01*
Y222999D02*
X296829D01*
X297686Y222714D01*
X298257Y222142D01*
X298543Y221571D01*
X298829Y220714D01*
Y219286D01*
X298543Y218429D01*
X298257Y217858D01*
X297686Y217286D01*
X296829Y217001D01*
X294830D01*
X303599Y222999D02*
X300743D01*
X300457Y220428D01*
X300743Y220714D01*
X301600Y221000D01*
X302456D01*
X303313Y220714D01*
X303885Y220143D01*
X304170Y219286D01*
Y218715D01*
X303885Y217858D01*
X303313Y217286D01*
X302456Y217001D01*
X301600D01*
X300743Y217286D01*
X300457Y217572D01*
X300171Y218143D01*
X154173Y221999D02*
Y217715D01*
X154458Y216858D01*
X155029Y216286D01*
X155886Y216001D01*
X156458D01*
X157315Y216286D01*
X157886Y216858D01*
X158172Y217715D01*
Y221999D01*
X160400D02*
X163542D01*
X161828Y219714D01*
X162685D01*
X163256Y219428D01*
X163542Y219143D01*
X163828Y218286D01*
Y217715D01*
X163542Y216858D01*
X162971Y216286D01*
X162114Y216001D01*
X161257D01*
X160400Y216286D01*
X160114Y216572D01*
X159828Y217143D01*
X355172Y47999D02*
Y43715D01*
X355458Y42858D01*
X356029Y42286D01*
X356886Y42001D01*
X357458D01*
X358315Y42286D01*
X358886Y42858D01*
X359172Y43715D01*
Y47999D01*
X361114Y46571D02*
Y46857D01*
X361400Y47428D01*
X361685Y47714D01*
X362257Y47999D01*
X363399D01*
X363971Y47714D01*
X364256Y47428D01*
X364542Y46857D01*
Y46285D01*
X364256Y45714D01*
X363685Y44857D01*
X360828Y42001D01*
X364827D01*
X109458Y164999D02*
Y160715D01*
X109744Y159858D01*
X110315Y159286D01*
X111172Y159001D01*
X111743D01*
X112600Y159286D01*
X113171Y159858D01*
X113457Y160715D01*
Y164999D01*
X115114Y163857D02*
X115685Y164142D01*
X116542Y164999D01*
Y159001D01*
X192001Y232687D02*
X197999D01*
X192001D02*
Y235258D01*
X192286Y236115D01*
X192572Y236400D01*
X193143Y236686D01*
X193715D01*
X194286Y236400D01*
X194571Y236115D01*
X194857Y235258D01*
Y232687D01*
Y234686D02*
X197999Y236686D01*
X192001Y240885D02*
X196000Y238029D01*
Y242313D01*
X192001Y240885D02*
X197999D01*
X144501Y94830D02*
X150499D01*
X144501D02*
Y97400D01*
X144786Y98257D01*
X145072Y98543D01*
X145643Y98829D01*
X146215D01*
X146786Y98543D01*
X147072Y98257D01*
X147357Y97400D01*
Y94830D01*
Y96829D02*
X150499Y98829D01*
X144501Y100743D02*
Y103885D01*
X146786Y102171D01*
Y103028D01*
X147072Y103599D01*
X147357Y103885D01*
X148214Y104170D01*
X148785D01*
X149642Y103885D01*
X150214Y103314D01*
X150499Y102456D01*
Y101600D01*
X150214Y100743D01*
X149928Y100457D01*
X149357Y100171D01*
X154330Y212999D02*
Y207001D01*
Y212999D02*
X156901D01*
X157757Y212714D01*
X158043Y212428D01*
X158329Y211857D01*
Y211285D01*
X158043Y210714D01*
X157757Y210429D01*
X156901Y210143D01*
X154330D01*
X156329D02*
X158329Y207001D01*
X159957Y211571D02*
Y211857D01*
X160243Y212428D01*
X160528Y212714D01*
X161100Y212999D01*
X162242D01*
X162813Y212714D01*
X163099Y212428D01*
X163385Y211857D01*
Y211285D01*
X163099Y210714D01*
X162528Y209857D01*
X159671Y207001D01*
X163670D01*
X134001Y95115D02*
X139999D01*
X134001D02*
Y97686D01*
X134286Y98543D01*
X134572Y98829D01*
X135143Y99114D01*
X135714D01*
X136286Y98829D01*
X136572Y98543D01*
X136857Y97686D01*
Y95115D01*
Y97115D02*
X139999Y99114D01*
X135143Y100457D02*
X134858Y101028D01*
X134001Y101885D01*
X139999D01*
X160715Y260729D02*
X161001Y260158D01*
X161572Y259587D01*
X162143Y259301D01*
X163000Y259015D01*
X164428D01*
X165285Y259301D01*
X165857Y259587D01*
X166428Y260158D01*
X166714Y260729D01*
Y261872D01*
X166428Y262443D01*
X165857Y263015D01*
X165285Y263300D01*
X164428Y263586D01*
X163000D01*
X162143Y263300D01*
X161572Y263015D01*
X161001Y262443D01*
X160715Y261872D01*
Y260729D01*
X165571Y261586D02*
X167285Y263300D01*
X162143Y265271D02*
X161858D01*
X161286Y265557D01*
X161001Y265843D01*
X160715Y266414D01*
Y267556D01*
X161001Y268128D01*
X161286Y268413D01*
X161858Y268699D01*
X162429D01*
X163000Y268413D01*
X163857Y267842D01*
X166714Y264985D01*
Y268985D01*
X98015Y185785D02*
X97443Y185499D01*
X96872Y184928D01*
X96586Y184357D01*
X96301Y183500D01*
Y182071D01*
X96586Y181215D01*
X96872Y180643D01*
X97443Y180072D01*
X98015Y179786D01*
X99157D01*
X99729Y180072D01*
X100300Y180643D01*
X100586Y181215D01*
X100871Y182071D01*
Y183500D01*
X100586Y184357D01*
X100300Y184928D01*
X99729Y185499D01*
X99157Y185785D01*
X98015D01*
X98872Y180929D02*
X100586Y179215D01*
X102271Y184642D02*
X102842Y184928D01*
X103699Y185785D01*
Y179786D01*
X89525Y365929D02*
Y365643D01*
X89240Y365072D01*
X88954Y364786D01*
X88383Y364501D01*
X87240D01*
X86669Y364786D01*
X86383Y365072D01*
X86097Y365643D01*
Y366215D01*
X86383Y366786D01*
X86954Y367643D01*
X89811Y370499D01*
X85812D01*
X84184Y365929D02*
Y365643D01*
X83898Y365072D01*
X83612Y364786D01*
X83041Y364501D01*
X81898D01*
X81327Y364786D01*
X81041Y365072D01*
X80756Y365643D01*
Y366215D01*
X81041Y366786D01*
X81613Y367643D01*
X84469Y370499D01*
X80470D01*
X77413Y364501D02*
X78271Y364786D01*
X78842Y365643D01*
X79128Y367072D01*
Y367929D01*
X78842Y369357D01*
X78271Y370214D01*
X77413Y370499D01*
X76842D01*
X75985Y370214D01*
X75414Y369357D01*
X75128Y367929D01*
Y367072D01*
X75414Y365643D01*
X75985Y364786D01*
X76842Y364501D01*
X77413D01*
X73786D02*
X71500Y370499D01*
X69215Y364501D02*
X71500Y370499D01*
X63874D02*
X66159Y364501D01*
X68444Y370499D01*
X67587Y368500D02*
X64731D01*
X58189Y365929D02*
X58475Y365358D01*
X59046Y364786D01*
X59617Y364501D01*
X60760D01*
X61331Y364786D01*
X61903Y365358D01*
X62188Y365929D01*
X62474Y366786D01*
Y368214D01*
X62188Y369071D01*
X61903Y369642D01*
X61331Y370214D01*
X60760Y370499D01*
X59617D01*
X59046Y370214D01*
X58475Y369642D01*
X58189Y369071D01*
X5773Y48499D02*
X2916D01*
X2631Y45928D01*
X2916Y46214D01*
X3773Y46500D01*
X4630D01*
X5487Y46214D01*
X6058Y45643D01*
X6344Y44786D01*
Y44215D01*
X6058Y43358D01*
X5487Y42786D01*
X4630Y42501D01*
X3773D01*
X2916Y42786D01*
X2631Y43072D01*
X2345Y43643D01*
X7687Y48499D02*
X9972Y42501D01*
X12257Y48499D02*
X9972Y42501D01*
X13028Y48499D02*
Y42501D01*
Y48499D02*
X15028D01*
X15885Y48214D01*
X16456Y47642D01*
X16742Y47071D01*
X17028Y46214D01*
Y44786D01*
X16742Y43929D01*
X16456Y43358D01*
X15885Y42786D01*
X15028Y42501D01*
X13028D01*
X22655Y47071D02*
X22369Y47642D01*
X21798Y48214D01*
X21227Y48499D01*
X20084D01*
X19513Y48214D01*
X18941Y47642D01*
X18656Y47071D01*
X18370Y46214D01*
Y44786D01*
X18656Y43929D01*
X18941Y43358D01*
X19513Y42786D01*
X20084Y42501D01*
X21227D01*
X21798Y42786D01*
X22369Y43358D01*
X22655Y43929D01*
X269589Y366359D02*
X270160Y365787D01*
X271017Y365502D01*
X272160D01*
X273017Y365787D01*
X273588Y366359D01*
Y366930D01*
X273302Y367501D01*
X273017Y367787D01*
X272445Y368073D01*
X270731Y368644D01*
X270160Y368929D01*
X269875Y369215D01*
X269589Y369786D01*
Y370643D01*
X270160Y371215D01*
X271017Y371500D01*
X272160D01*
X273017Y371215D01*
X273588Y370643D01*
X264533Y365502D02*
X268246D01*
Y371500D01*
X264533D01*
X268246Y368358D02*
X265961D01*
X263533Y365502D02*
X262105Y371500D01*
X260677Y365502D02*
X262105Y371500D01*
X260677Y365502D02*
X259248Y371500D01*
X257820Y365502D02*
X259248Y371500D01*
X256620Y365502D02*
Y371500D01*
X255363Y365502D02*
Y371500D01*
Y365502D02*
X251364Y371500D01*
Y365502D02*
Y371500D01*
X245423Y366930D02*
X245708Y366359D01*
X246280Y365787D01*
X246851Y365502D01*
X247993D01*
X248565Y365787D01*
X249136Y366359D01*
X249422Y366930D01*
X249707Y367787D01*
Y369215D01*
X249422Y370072D01*
X249136Y370643D01*
X248565Y371215D01*
X247993Y371500D01*
X246851D01*
X246280Y371215D01*
X245708Y370643D01*
X245423Y370072D01*
Y369215D01*
X246851D02*
X245423D01*
X142398Y370499D02*
X144683Y364501D01*
X146969Y370499D01*
X146112Y368500D02*
X143255D01*
X140998Y364501D02*
Y370499D01*
X137571D01*
X132343D02*
X134628Y364501D01*
X136914Y370499D01*
X136057Y368500D02*
X133200D01*
X130944Y364501D02*
Y370499D01*
Y364501D02*
X128373D01*
X127516Y364786D01*
X127230Y365072D01*
X126944Y365643D01*
Y366215D01*
X127230Y366786D01*
X127516Y367072D01*
X128373Y367357D01*
X130944D01*
X128944D02*
X126944Y370499D01*
X125602Y364501D02*
Y370499D01*
Y364501D02*
X123317Y370499D01*
X121031Y364501D02*
X123317Y370499D01*
X121031Y364501D02*
Y370499D01*
X3086Y340499D02*
Y334501D01*
Y340499D02*
X6800D01*
X3086Y337643D02*
X5372D01*
X7485Y339357D02*
X8057Y339642D01*
X8914Y340499D01*
Y334501D01*
X191187Y178499D02*
Y172501D01*
Y178499D02*
X193186D01*
X194043Y178214D01*
X194615Y177642D01*
X194900Y177071D01*
X195186Y176214D01*
Y174786D01*
X194900Y173929D01*
X194615Y173358D01*
X194043Y172786D01*
X193186Y172501D01*
X191187D01*
X199385Y178499D02*
X196528Y174500D01*
X200813D01*
X199385Y178499D02*
Y172501D01*
X210830Y292499D02*
Y286501D01*
Y292499D02*
X212829D01*
X213686Y292214D01*
X214257Y291642D01*
X214543Y291071D01*
X214829Y290214D01*
Y288786D01*
X214543Y287929D01*
X214257Y287358D01*
X213686Y286786D01*
X212829Y286501D01*
X210830D01*
X216743Y292499D02*
X219885D01*
X218171Y290214D01*
X219028D01*
X219599Y289929D01*
X219885Y289643D01*
X220170Y288786D01*
Y288215D01*
X219885Y287358D01*
X219314Y286786D01*
X218457Y286501D01*
X217600D01*
X216743Y286786D01*
X216457Y287072D01*
X216171Y287643D01*
X150330Y178499D02*
Y172501D01*
Y178499D02*
X152329D01*
X153186Y178214D01*
X153757Y177642D01*
X154043Y177071D01*
X154329Y176214D01*
Y174786D01*
X154043Y173929D01*
X153757Y173358D01*
X153186Y172786D01*
X152329Y172501D01*
X150330D01*
X155957Y177071D02*
Y177357D01*
X156243Y177928D01*
X156528Y178214D01*
X157100Y178499D01*
X158242D01*
X158814Y178214D01*
X159099Y177928D01*
X159385Y177357D01*
Y176785D01*
X159099Y176214D01*
X158528Y175357D01*
X155671Y172501D01*
X159670D01*
X102115Y223999D02*
Y218001D01*
Y223999D02*
X104115D01*
X104972Y223714D01*
X105543Y223142D01*
X105828Y222571D01*
X106114Y221714D01*
Y220286D01*
X105828Y219429D01*
X105543Y218858D01*
X104972Y218286D01*
X104115Y218001D01*
X102115D01*
X107457Y222857D02*
X108028Y223142D01*
X108885Y223999D01*
Y218001D01*
D12*
X201874Y222000D02*
X201136Y222426D01*
Y221574D01*
X201874Y222000D01*
X232350Y205185D02*
X231612Y205611D01*
Y204759D01*
X232350Y205185D01*
X166374Y221500D02*
X165636Y221926D01*
Y221074D01*
X166374Y221500D01*
X186634Y281815D02*
X185896Y282241D01*
Y281389D01*
X186634Y281815D01*
X119374Y165500D02*
X118636Y165926D01*
Y165074D01*
X119374Y165500D01*
X98177Y211142D02*
X97439Y211568D01*
Y210716D01*
X98177Y211142D01*
D13*
X206579Y230504D02*
X206134Y231427D01*
X205135Y231655D01*
X204333Y231016D01*
Y229992D01*
X205135Y229352D01*
X206134Y229580D01*
X206579Y230504D01*
X171079Y230004D02*
X170634Y230927D01*
X169635Y231155D01*
X168833Y230516D01*
Y229491D01*
X169635Y228852D01*
X170634Y229081D01*
X171079Y230004D01*
X124079Y174004D02*
X123634Y174927D01*
X122635Y175155D01*
X121834Y174516D01*
Y173492D01*
X122635Y172852D01*
X123634Y173081D01*
X124079Y174004D01*
D14*
X162122Y50976D02*
Y72433D01*
Y142079D01*
Y163221D01*
Y50976D02*
X362713D01*
X162122Y163221D02*
X362713D01*
Y50976D02*
Y93221D01*
Y119642D01*
Y163221D01*
X162122D02*
X362713D01*
Y50976D02*
Y163221D01*
X162122Y50976D02*
Y163221D01*
Y50976D02*
X362713D01*
X6315Y299803D02*
X85055D01*
Y165945D02*
Y299803D01*
X6315Y165945D02*
X85055D01*
X6315D02*
Y299803D01*
D15*
X63500Y106500D02*
Y108500D01*
Y124500D02*
Y126400D01*
X60500Y108500D02*
X63500D01*
X60500D02*
Y124500D01*
X66500D01*
Y108500D02*
Y124500D01*
X63500Y108500D02*
X66500D01*
X137500Y210500D02*
X139500D01*
X119600D02*
X121500D01*
X137500Y207500D02*
Y210500D01*
X121500Y207500D02*
X137500D01*
X121500D02*
Y213500D01*
X137500D01*
Y210500D02*
Y213500D01*
X194500Y253500D02*
Y255500D01*
Y271500D02*
Y273400D01*
X191500Y255500D02*
X194500D01*
X191500D02*
Y271500D01*
X197500D01*
Y255500D02*
Y271500D01*
X194500Y255500D02*
X197500D01*
X230000Y246500D02*
Y248500D01*
Y228600D02*
Y230500D01*
Y246500D02*
X233000D01*
Y230500D02*
Y246500D01*
X227000Y230500D02*
X233000D01*
X227000D02*
Y246500D01*
X230000D01*
X156500Y116000D02*
Y118000D01*
Y134000D02*
Y135900D01*
X153500Y118000D02*
X156500D01*
X153500D02*
Y134000D01*
X159500D01*
Y118000D02*
Y134000D01*
X156500Y118000D02*
X159500D01*
X147000Y116000D02*
Y118000D01*
Y134000D02*
Y135900D01*
X144000Y118000D02*
X147000D01*
X144000D02*
Y134000D01*
X150000D01*
Y118000D02*
Y134000D01*
X147000Y118000D02*
X150000D01*
X137000Y116000D02*
Y118000D01*
Y134000D02*
Y135900D01*
X134000Y118000D02*
X137000D01*
X134000D02*
Y134000D01*
X140000D01*
Y118000D02*
Y134000D01*
X137000Y118000D02*
X140000D01*
X280000Y216000D02*
Y224000D01*
X265000Y216000D02*
Y220000D01*
Y216000D02*
X283000D01*
Y224000D01*
X265000D02*
X283000D01*
X265000Y220000D02*
Y224000D01*
X283000Y220000D02*
X283900D01*
X264100D02*
X265000D01*
X195000Y285500D02*
Y293500D01*
X180000Y285500D02*
Y289500D01*
Y285500D02*
X198000D01*
Y293500D01*
X180000D02*
X198000D01*
X180000Y289500D02*
Y293500D01*
X198000Y289500D02*
X198900D01*
X179100D02*
X180000D01*
X135500Y217000D02*
Y225000D01*
X120500Y217000D02*
Y221000D01*
Y217000D02*
X138500D01*
Y225000D01*
X120500D02*
X138500D01*
X120500Y221000D02*
Y225000D01*
X138500Y221000D02*
X139400D01*
X119600D02*
X120500D01*
D16*
X3094Y312158D02*
X34591D01*
X3094Y331842D02*
X34591D01*
X3094Y312158D02*
Y322000D01*
Y331842D01*
X34591Y312158D02*
Y331842D01*
D17*
X281500Y220000D02*
D03*
X196500Y289500D02*
D03*
X137000Y221000D02*
D03*
M02*
