G04*
G04 #@! TF.GenerationSoftware,Altium Limited,Altium Designer,20.0.13 (296)*
G04*
G04 Layer_Color=255*
%FSLAX25Y25*%
%MOIN*%
G70*
G01*
G75*
%ADD33R,0.05118X0.05906*%
%ADD34R,0.05118X0.09843*%
%ADD36C,0.11811*%
%ADD37C,0.07874*%
%ADD38R,0.07874X0.07874*%
%ADD39O,0.09843X0.07874*%
%ADD40O,0.13780X0.07874*%
%ADD41R,0.13780X0.07874*%
%ADD42O,0.07874X0.07874*%
%ADD43O,0.07874X0.07874*%
%ADD44C,0.09843*%
%ADD45O,0.07874X0.09843*%
%ADD46C,0.10000*%
%ADD47C,0.22835*%
D33*
X183500Y75000D02*
D03*
X176020D02*
D03*
D34*
X206480Y255504D02*
D03*
X216520D02*
D03*
Y218496D02*
D03*
X206480D02*
D03*
X170980Y255004D02*
D03*
X181020D02*
D03*
Y217996D02*
D03*
X170980D02*
D03*
X123980Y199004D02*
D03*
X134020D02*
D03*
Y161996D02*
D03*
X123980D02*
D03*
D36*
X354839Y155347D02*
D03*
Y58850D02*
D03*
X169996D02*
D03*
Y155347D02*
D03*
X91000Y137000D02*
D03*
X121000D02*
D03*
X91000Y117000D02*
D03*
X121000D02*
D03*
X15370Y175000D02*
D03*
X76000D02*
D03*
X35842Y290748D02*
D03*
X55528D02*
D03*
X323000Y356500D02*
D03*
Y326500D02*
D03*
X303000Y356500D02*
D03*
Y326500D02*
D03*
X266500Y356000D02*
D03*
Y326000D02*
D03*
X246500Y356000D02*
D03*
Y326000D02*
D03*
X138500Y356000D02*
D03*
Y326000D02*
D03*
X118500Y356000D02*
D03*
Y326000D02*
D03*
X82500Y356000D02*
D03*
Y326000D02*
D03*
X62500Y356000D02*
D03*
Y326000D02*
D03*
X51000Y117500D02*
D03*
X21000D02*
D03*
X51000Y137500D02*
D03*
X21000D02*
D03*
X121000Y61000D02*
D03*
X91000D02*
D03*
X121000Y81000D02*
D03*
X91000D02*
D03*
X51000Y61500D02*
D03*
X21000D02*
D03*
X51000Y81500D02*
D03*
X21000D02*
D03*
D37*
X183500Y57000D02*
D03*
X193500D02*
D03*
X203500D02*
D03*
X213500D02*
D03*
X223500D02*
D03*
X233500D02*
D03*
X243500D02*
D03*
X253500D02*
D03*
X263500D02*
D03*
X273500D02*
D03*
X283500D02*
D03*
X293500D02*
D03*
X303500D02*
D03*
X313500D02*
D03*
X323500D02*
D03*
X183500Y157000D02*
D03*
X193500D02*
D03*
X203500D02*
D03*
X213500D02*
D03*
X223500D02*
D03*
X233500D02*
D03*
X243500D02*
D03*
X253500D02*
D03*
X263500D02*
D03*
X273500D02*
D03*
X283500D02*
D03*
X293500D02*
D03*
X303500D02*
D03*
X313500D02*
D03*
X63500Y131500D02*
D03*
Y101500D02*
D03*
X114500Y210500D02*
D03*
X144500D02*
D03*
X194500Y278500D02*
D03*
Y248500D02*
D03*
X230000Y223500D02*
D03*
Y253500D02*
D03*
X156500Y141000D02*
D03*
Y111000D02*
D03*
X147000Y141000D02*
D03*
Y111000D02*
D03*
X137000Y141000D02*
D03*
Y111000D02*
D03*
X251500Y210500D02*
D03*
X243000Y220000D02*
D03*
X234500Y210500D02*
D03*
X259000Y220000D02*
D03*
X289000D02*
D03*
X174000Y289500D02*
D03*
X204000D02*
D03*
X166500Y276500D02*
D03*
X175000Y267000D02*
D03*
X183500Y276500D02*
D03*
X114500Y221000D02*
D03*
X144500D02*
D03*
X103000Y191500D02*
D03*
X112500Y200000D02*
D03*
X103000Y208500D02*
D03*
D38*
X323500Y157000D02*
D03*
D39*
X50000Y25000D02*
D03*
Y15000D02*
D03*
D40*
X103000Y39000D02*
D03*
Y29000D02*
D03*
X130500Y39000D02*
D03*
Y29000D02*
D03*
X158500Y39000D02*
D03*
Y29000D02*
D03*
X186500Y39000D02*
D03*
Y29000D02*
D03*
X213500Y39000D02*
D03*
Y29000D02*
D03*
X240500Y39000D02*
D03*
Y29000D02*
D03*
X268000Y39000D02*
D03*
Y29000D02*
D03*
X295000Y39000D02*
D03*
Y29000D02*
D03*
X322000Y39000D02*
D03*
Y29000D02*
D03*
X340000Y250500D02*
D03*
Y260500D02*
D03*
X340500Y187000D02*
D03*
Y197000D02*
D03*
X343000Y287000D02*
D03*
Y224000D02*
D03*
D41*
X103000Y19000D02*
D03*
X130500Y19000D02*
D03*
X158500Y19000D02*
D03*
X186500D02*
D03*
X213500D02*
D03*
X240500D02*
D03*
X268000D02*
D03*
X295000D02*
D03*
X322000D02*
D03*
X340000Y270500D02*
D03*
X340500Y207000D02*
D03*
X343000Y297000D02*
D03*
Y234000D02*
D03*
D42*
X334000Y98000D02*
D03*
X324000D02*
D03*
D43*
Y88000D02*
D03*
X334000D02*
D03*
D44*
X9000Y322000D02*
D03*
X28685D02*
D03*
D45*
X251000Y188000D02*
D03*
X241000D02*
D03*
X213000D02*
D03*
X203000D02*
D03*
X173500D02*
D03*
X163500D02*
D03*
D46*
X292500Y290500D02*
D03*
X247500D02*
D03*
X269500Y234500D02*
D03*
X292500Y242500D02*
D03*
X247500D02*
D03*
X151500Y291000D02*
D03*
X106500D02*
D03*
X128500Y235000D02*
D03*
X151500Y243000D02*
D03*
X106500D02*
D03*
X216500Y360000D02*
D03*
X171500D02*
D03*
X193500Y304000D02*
D03*
X216500Y312000D02*
D03*
X171500D02*
D03*
D47*
X19500Y355000D02*
D03*
X20000Y20000D02*
D03*
X355500D02*
D03*
Y355000D02*
D03*
M02*
