G04*
G04 #@! TF.GenerationSoftware,Altium Limited,Altium Designer,20.0.13 (296)*
G04*
G04 Layer_Color=16711935*
%FSLAX25Y25*%
%MOIN*%
G70*
G01*
G75*
%ADD20C,0.12611*%
%ADD21C,0.08674*%
%ADD22R,0.08674X0.08674*%
%ADD23O,0.10642X0.08674*%
%ADD24O,0.14580X0.08674*%
%ADD25R,0.14580X0.08674*%
%ADD26O,0.08674X0.08674*%
%ADD27O,0.08674X0.08674*%
%ADD28C,0.10642*%
%ADD29O,0.08674X0.10642*%
%ADD30C,0.10800*%
%ADD31C,0.23635*%
%ADD32C,0.04737*%
D20*
X354839Y155347D02*
D03*
Y58850D02*
D03*
X169996D02*
D03*
Y155347D02*
D03*
X91000Y137000D02*
D03*
X121000D02*
D03*
X91000Y117000D02*
D03*
X121000D02*
D03*
X15370Y175000D02*
D03*
X76000D02*
D03*
X35842Y290748D02*
D03*
X55528D02*
D03*
X323000Y356500D02*
D03*
Y326500D02*
D03*
X303000Y356500D02*
D03*
Y326500D02*
D03*
X266500Y356000D02*
D03*
Y326000D02*
D03*
X246500Y356000D02*
D03*
Y326000D02*
D03*
X138500Y356000D02*
D03*
Y326000D02*
D03*
X118500Y356000D02*
D03*
Y326000D02*
D03*
X82500Y356000D02*
D03*
Y326000D02*
D03*
X62500Y356000D02*
D03*
Y326000D02*
D03*
X51000Y117500D02*
D03*
X21000D02*
D03*
X51000Y137500D02*
D03*
X21000D02*
D03*
X121000Y61000D02*
D03*
X91000D02*
D03*
X121000Y81000D02*
D03*
X91000D02*
D03*
X51000Y61500D02*
D03*
X21000D02*
D03*
X51000Y81500D02*
D03*
X21000D02*
D03*
D21*
X183500Y57000D02*
D03*
X193500D02*
D03*
X203500D02*
D03*
X213500D02*
D03*
X223500D02*
D03*
X233500D02*
D03*
X243500D02*
D03*
X253500D02*
D03*
X263500D02*
D03*
X273500D02*
D03*
X283500D02*
D03*
X293500D02*
D03*
X303500D02*
D03*
X313500D02*
D03*
X323500D02*
D03*
X183500Y157000D02*
D03*
X193500D02*
D03*
X203500D02*
D03*
X213500D02*
D03*
X223500D02*
D03*
X233500D02*
D03*
X243500D02*
D03*
X253500D02*
D03*
X263500D02*
D03*
X273500D02*
D03*
X283500D02*
D03*
X293500D02*
D03*
X303500D02*
D03*
X313500D02*
D03*
X63500Y131500D02*
D03*
Y101500D02*
D03*
X114500Y210500D02*
D03*
X144500D02*
D03*
X194500Y278500D02*
D03*
Y248500D02*
D03*
X230000Y223500D02*
D03*
Y253500D02*
D03*
X156500Y141000D02*
D03*
Y111000D02*
D03*
X147000Y141000D02*
D03*
Y111000D02*
D03*
X137000Y141000D02*
D03*
Y111000D02*
D03*
X251500Y210500D02*
D03*
X243000Y220000D02*
D03*
X234500Y210500D02*
D03*
X259000Y220000D02*
D03*
X289000D02*
D03*
X174000Y289500D02*
D03*
X204000D02*
D03*
X166500Y276500D02*
D03*
X175000Y267000D02*
D03*
X183500Y276500D02*
D03*
X114500Y221000D02*
D03*
X144500D02*
D03*
X103000Y191500D02*
D03*
X112500Y200000D02*
D03*
X103000Y208500D02*
D03*
D22*
X323500Y157000D02*
D03*
D23*
X50000Y25000D02*
D03*
Y15000D02*
D03*
D24*
X103000Y39000D02*
D03*
Y29000D02*
D03*
X130500Y39000D02*
D03*
Y29000D02*
D03*
X158500Y39000D02*
D03*
Y29000D02*
D03*
X186500Y39000D02*
D03*
Y29000D02*
D03*
X213500Y39000D02*
D03*
Y29000D02*
D03*
X240500Y39000D02*
D03*
Y29000D02*
D03*
X268000Y39000D02*
D03*
Y29000D02*
D03*
X295000Y39000D02*
D03*
Y29000D02*
D03*
X322000Y39000D02*
D03*
Y29000D02*
D03*
X340000Y250500D02*
D03*
Y260500D02*
D03*
X340500Y187000D02*
D03*
Y197000D02*
D03*
X343000Y287000D02*
D03*
Y224000D02*
D03*
D25*
X103000Y19000D02*
D03*
X130500Y19000D02*
D03*
X158500Y19000D02*
D03*
X186500D02*
D03*
X213500D02*
D03*
X240500D02*
D03*
X268000D02*
D03*
X295000D02*
D03*
X322000D02*
D03*
X340000Y270500D02*
D03*
X340500Y207000D02*
D03*
X343000Y297000D02*
D03*
Y234000D02*
D03*
D26*
X334000Y98000D02*
D03*
X324000D02*
D03*
D27*
Y88000D02*
D03*
X334000D02*
D03*
D28*
X9000Y322000D02*
D03*
X28685D02*
D03*
D29*
X251000Y188000D02*
D03*
X241000D02*
D03*
X213000D02*
D03*
X203000D02*
D03*
X173500D02*
D03*
X163500D02*
D03*
D30*
X292500Y290500D02*
D03*
X247500D02*
D03*
X269500Y234500D02*
D03*
X292500Y242500D02*
D03*
X247500D02*
D03*
X151500Y291000D02*
D03*
X106500D02*
D03*
X128500Y235000D02*
D03*
X151500Y243000D02*
D03*
X106500D02*
D03*
X216500Y360000D02*
D03*
X171500D02*
D03*
X193500Y304000D02*
D03*
X216500Y312000D02*
D03*
X171500D02*
D03*
D31*
X19500Y355000D02*
D03*
X20000Y20000D02*
D03*
X355500D02*
D03*
Y355000D02*
D03*
D32*
X25624Y348875D02*
D03*
X13375D02*
D03*
X10839Y355000D02*
D03*
X13375Y361124D02*
D03*
X25821Y361223D02*
D03*
X28358Y355098D02*
D03*
X19500Y346339D02*
D03*
Y363661D02*
D03*
X26125Y13875D02*
D03*
X13875D02*
D03*
X11339Y20000D02*
D03*
X13875Y26125D02*
D03*
X26321Y26223D02*
D03*
X28858Y20098D02*
D03*
X20000Y11339D02*
D03*
Y28661D02*
D03*
X361625Y13875D02*
D03*
X349376D02*
D03*
X346839Y20000D02*
D03*
X349376Y26125D02*
D03*
X361821Y26223D02*
D03*
X364358Y20098D02*
D03*
X355500Y11339D02*
D03*
Y28661D02*
D03*
X361625Y348875D02*
D03*
X349376D02*
D03*
X346839Y355000D02*
D03*
X349376Y361124D02*
D03*
X361821Y361223D02*
D03*
X364358Y355098D02*
D03*
X355500Y346339D02*
D03*
Y363661D02*
D03*
M02*
