G04*
G04 #@! TF.GenerationSoftware,Altium Limited,Altium Designer,20.0.13 (296)*
G04*
G04 Layer_Color=16711935*
%FSLAX25Y25*%
%MOIN*%
G70*
G01*
G75*
%ADD19C,0.10642*%
%ADD20C,0.08674*%
%ADD21C,0.12611*%
%ADD22O,0.08674X0.10642*%
%ADD23R,0.08674X0.08674*%
%ADD24C,0.10800*%
%ADD25R,0.14580X0.08674*%
%ADD26O,0.14580X0.08674*%
%ADD27C,0.23635*%
%ADD28C,0.04737*%
D19*
X116000Y425000D02*
D03*
X135685D02*
D03*
D20*
X221500Y314000D02*
D03*
X251500D02*
D03*
X301500Y381500D02*
D03*
Y351500D02*
D03*
X337000Y326500D02*
D03*
Y356500D02*
D03*
X263500Y244000D02*
D03*
Y214000D02*
D03*
X254000Y244000D02*
D03*
Y214000D02*
D03*
X244000Y244000D02*
D03*
Y214000D02*
D03*
X290583Y155500D02*
D03*
X300583D02*
D03*
X310583D02*
D03*
X320583D02*
D03*
X330583D02*
D03*
X340583D02*
D03*
X350583D02*
D03*
X360583D02*
D03*
X370583D02*
D03*
X380583D02*
D03*
X390583D02*
D03*
X400583D02*
D03*
X410583D02*
D03*
X420583D02*
D03*
X430583D02*
D03*
X290583Y255500D02*
D03*
X300583D02*
D03*
X310583D02*
D03*
X320583D02*
D03*
X330583D02*
D03*
X340583D02*
D03*
X350583D02*
D03*
X360583D02*
D03*
X370583D02*
D03*
X380583D02*
D03*
X390583D02*
D03*
X400583D02*
D03*
X410583D02*
D03*
X420583D02*
D03*
X358500Y313500D02*
D03*
X350000Y323000D02*
D03*
X341500Y313500D02*
D03*
X366000Y323000D02*
D03*
X396000D02*
D03*
X281000Y392500D02*
D03*
X311000D02*
D03*
X273500Y379500D02*
D03*
X282000Y370000D02*
D03*
X290500Y379500D02*
D03*
X221500Y325500D02*
D03*
X251500D02*
D03*
X210000Y294500D02*
D03*
X219500Y303000D02*
D03*
X210000Y311500D02*
D03*
X290500Y187500D02*
D03*
X350500D02*
D03*
X341000D02*
D03*
X330000D02*
D03*
X320500D02*
D03*
X310000D02*
D03*
X300500D02*
D03*
X310000Y232500D02*
D03*
X320500D02*
D03*
X380500D02*
D03*
X370500D02*
D03*
D21*
X401000Y426500D02*
D03*
Y456500D02*
D03*
X421000Y426500D02*
D03*
Y456500D02*
D03*
X345500Y426500D02*
D03*
Y456500D02*
D03*
X365500Y426500D02*
D03*
Y456500D02*
D03*
X225000Y427000D02*
D03*
Y457000D02*
D03*
X245000Y427000D02*
D03*
Y457000D02*
D03*
X170000Y427000D02*
D03*
Y457000D02*
D03*
X190000Y427000D02*
D03*
Y457000D02*
D03*
X189959Y262134D02*
D03*
X119093D02*
D03*
X142715Y400716D02*
D03*
X166337D02*
D03*
X461921Y253847D02*
D03*
Y157350D02*
D03*
X277079D02*
D03*
Y253847D02*
D03*
X228000Y207500D02*
D03*
X198000D02*
D03*
X228000Y227500D02*
D03*
X198000D02*
D03*
X158000Y208000D02*
D03*
X128000D02*
D03*
X158000Y228000D02*
D03*
X128000D02*
D03*
X228000Y151500D02*
D03*
X198000D02*
D03*
X228000Y171500D02*
D03*
X198000D02*
D03*
X158000Y152000D02*
D03*
X128000D02*
D03*
X158000Y172000D02*
D03*
X128000D02*
D03*
D22*
X358000Y287500D02*
D03*
X348000D02*
D03*
X320000D02*
D03*
X310000D02*
D03*
X280500D02*
D03*
X270500D02*
D03*
D23*
X430583Y255500D02*
D03*
D24*
X399500Y393500D02*
D03*
X354500D02*
D03*
X376500Y337500D02*
D03*
X399500Y345500D02*
D03*
X354500D02*
D03*
X258500Y396500D02*
D03*
X213500D02*
D03*
X235500Y340500D02*
D03*
X258500Y348500D02*
D03*
X213500D02*
D03*
X323500Y463000D02*
D03*
X278500D02*
D03*
X300500Y407000D02*
D03*
X323500Y415000D02*
D03*
X278500D02*
D03*
D25*
X447000Y393000D02*
D03*
Y334500D02*
D03*
Y369000D02*
D03*
X446500Y310000D02*
D03*
X295500Y117000D02*
D03*
X322000D02*
D03*
X348000D02*
D03*
X375500D02*
D03*
X402000D02*
D03*
X429000D02*
D03*
D26*
X447000Y383000D02*
D03*
Y324500D02*
D03*
Y359000D02*
D03*
Y349000D02*
D03*
X446500Y300000D02*
D03*
Y290000D02*
D03*
X295500Y127000D02*
D03*
Y137000D02*
D03*
X322000Y127000D02*
D03*
Y137000D02*
D03*
X348000Y127000D02*
D03*
Y137000D02*
D03*
X375500Y127000D02*
D03*
Y137000D02*
D03*
X402000Y127000D02*
D03*
Y137000D02*
D03*
X429000Y127000D02*
D03*
Y137000D02*
D03*
D27*
X126500Y458000D02*
D03*
X127000Y123000D02*
D03*
X462500D02*
D03*
Y458000D02*
D03*
D28*
X132624Y451875D02*
D03*
X120376D02*
D03*
X117839Y458000D02*
D03*
X120376Y464124D02*
D03*
X132821Y464223D02*
D03*
X135358Y458098D02*
D03*
X126500Y449339D02*
D03*
Y466661D02*
D03*
X133124Y116876D02*
D03*
X120876D02*
D03*
X118339Y123000D02*
D03*
X120876Y129124D02*
D03*
X133321Y129223D02*
D03*
X135858Y123098D02*
D03*
X127000Y114339D02*
D03*
Y131661D02*
D03*
X468624Y116876D02*
D03*
X456376D02*
D03*
X453839Y123000D02*
D03*
X456376Y129124D02*
D03*
X468821Y129223D02*
D03*
X471358Y123098D02*
D03*
X462500Y114339D02*
D03*
Y131661D02*
D03*
X468624Y451875D02*
D03*
X456376D02*
D03*
X453839Y458000D02*
D03*
X456376Y464124D02*
D03*
X468821Y464223D02*
D03*
X471358Y458098D02*
D03*
X462500Y449339D02*
D03*
Y466661D02*
D03*
M02*
