M48
;Layer_Color=9474304
;FILE_FORMAT=2:4
INCH,TZ
;TYPE=PLATED
T1F00S00C0.0157
T2F00S00C0.0276
T3F00S00C0.0315
T4F00S00C0.0354
T5F00S00C0.0394
T6F00S00C0.0402
T7F00S00C0.0520
T8F00S00C0.0591
T9F00S00C0.1260
;TYPE=NON_PLATED
T10F00S00C0.1181
%
T01
X12088Y11688
X11834Y12300
X12088Y12912
X12700Y13166
X13332Y12922
X13586Y12310
X13312Y11688
X12700Y11434
X45638Y11688
X45384Y12300
X45638Y12912
X46250Y13166
Y11434
X46862Y11688
X47136Y12310
X46882Y12922
X13262Y45188
X12650Y44934
X12038Y45188
X11784Y45800
X12038Y46412
X12650Y46666
X13282Y46422
X13536Y45810
X45384Y45800
X45638Y45188
X46250Y44934
X46862Y45188
X46250Y46666
X45638Y46412
X46882Y46422
X47136Y45810
T02
X22150Y32550
X25150
X28100Y39250
X31100
X36600Y32300
X39600
T03
X32050Y18750
X33000
X34100
X35050
X37050Y23250
X38050
X32050
X31000
Y18750
X30050
X29050
X26350Y21400
X25400
X24400
Y24400
X25400
X26350
X21950Y30300
X21000Y29450
Y31150
X13569Y42500
X11600
X27350Y37950
X29050
X30150Y38150
Y35150
X28200Y37000
X25150Y31400
X22150
X34150Y31350
X35850
X35000Y32300
X33700Y32650
Y35650
T04
X32000Y28750
X34800
X35800
X31000
X28050
X27050
T05
X29550Y11700
Y12700
Y13700
X32200
Y12700
Y11700
X34800
Y12700
Y13700
X37550
Y12700
Y11700
X40200
Y12700
Y13700
X42900
Y12700
Y11700
X44650Y29000
Y30000
Y31000
X18996Y26213
X11909
X14271Y40072
X16634
X44700Y39300
Y38300
Y36900
Y35900
Y34900
Y33450
Y32450
T06
X29058Y15550
X30058
X31058
X32058
X33058
X34058
X35058
X36058
X37058
X38058
X39058
X40058
X41058
X42058
X43058
Y25550
X42058
X41058
X40058
X39058
X38058
X37058
X36058
X35058
X34058
X33058
X32058
X31058
X30058
X29058
T07
X21350Y34850
X23550Y34050
X25850Y34850
Y39650
X27850Y41500
X30050Y40700
X27850Y46300
X21350Y39650
X32350Y41500
Y46300
X35450Y39350
X39950
Y34550
X37650Y33750
X35450Y34550
T08
X12800Y15200
X15800
X19800Y15150
X22800
Y17150
X19800
Y20750
Y22750
X22800
Y20750
X15800Y20800
Y22800
Y17200
X12800
Y20800
Y22800
X17000Y42700
X19000
Y45700
X17000
X22500
X24500
Y42700
X22500
X34550Y42650
X36550
Y45650
X34550
X40100
X42100
Y42650
X40100
T09
X12700Y12300
X46250
X12650Y45800
X46250
T10
X46192Y15735
Y25385
X27708
Y15735
M30
