G04*
G04 #@! TF.GenerationSoftware,Altium Limited,Altium Designer,20.0.13 (296)*
G04*
G04 Layer_Physical_Order=2*
G04 Layer_Color=16711680*
%FSLAX25Y25*%
%MOIN*%
G70*
G01*
G75*
%ADD30C,0.03937*%
%ADD31C,0.09843*%
%ADD32C,0.07874*%
%ADD33C,0.11811*%
%ADD34O,0.07874X0.09843*%
%ADD35R,0.07874X0.07874*%
%ADD36C,0.10000*%
%ADD37R,0.13780X0.07874*%
%ADD38O,0.13780X0.07874*%
%ADD39C,0.22835*%
%ADD40C,0.03937*%
D30*
X220747Y324747D02*
X221500Y325500D01*
X213681Y324747D02*
X220747D01*
X213500Y324565D02*
X213681Y324747D01*
X210000Y311500D02*
X210277Y311777D01*
Y321342D01*
X213500Y324565D01*
X189959Y262134D02*
Y275000D01*
X209459Y294500D02*
X210000D01*
X189959Y275000D02*
X209459Y294500D01*
X210000D02*
X233500D01*
X242000Y303000D01*
X270500D01*
X320000Y277000D02*
Y287500D01*
X316500Y273500D02*
X320000Y277000D01*
X307000Y273500D02*
X316500D01*
X300583Y267083D02*
X307000Y273500D01*
X300583Y255500D02*
Y267083D01*
X290583Y255500D02*
Y268417D01*
X280500Y278500D02*
X290583Y268417D01*
X280500Y278500D02*
Y287500D01*
X469500Y328500D02*
Y383000D01*
Y269306D02*
Y328500D01*
X447000Y334500D02*
X463500D01*
X469500Y328500D01*
X447000Y393000D02*
X459500D01*
X469500Y383000D01*
X399500Y327565D02*
Y345500D01*
X396000Y324065D02*
X399500Y327565D01*
X396000Y323000D02*
Y324065D01*
X354500Y345500D02*
X355471Y344529D01*
Y333529D02*
Y344529D01*
Y333529D02*
X366000Y323000D01*
X337000Y326500D02*
X337753Y325747D01*
X346188D01*
X348935Y323000D01*
X350000D01*
X276500Y303000D02*
X348000D01*
X270500D02*
X276500D01*
X273500Y306000D02*
X276500Y303000D01*
X273500Y306000D02*
Y379500D01*
X270500Y303000D02*
X273500Y306000D01*
X348000Y303000D02*
X358500Y313500D01*
X281000Y392500D02*
X289747Y383753D01*
Y380253D02*
Y383753D01*
Y380253D02*
X290500Y379500D01*
X311000Y392500D02*
X311753Y393253D01*
X317753D01*
X323500Y399000D01*
Y415000D01*
X278500Y396065D02*
Y415000D01*
Y396065D02*
X281000Y393565D01*
Y392500D02*
Y393565D01*
X350583Y255500D02*
Y255583D01*
X418500Y323500D01*
Y333453D01*
X444047Y369000D02*
X447000D01*
X410500Y335453D02*
X444047Y369000D01*
X410500Y325417D02*
Y335453D01*
X340583Y255500D02*
X410500Y325417D01*
X418500Y333453D02*
X444047Y359000D01*
X425937Y330890D02*
X444047Y349000D01*
X360583Y255500D02*
X425937Y320854D01*
Y330890D01*
X444047Y359000D02*
X447000D01*
X444047Y349000D02*
X447000D01*
X390583Y255500D02*
Y270083D01*
X430500Y310000D01*
X446500D01*
X400583Y255500D02*
Y269583D01*
X431000Y300000D01*
X446500D01*
X410583Y269083D02*
X431500Y290000D01*
X410583Y255500D02*
Y269083D01*
X431500Y290000D02*
X446500D01*
X228000Y171500D02*
Y207500D01*
X420583Y155500D02*
Y255500D01*
X198000Y171500D02*
X228000D01*
X420500Y255583D02*
Y262500D01*
X425000Y267000D01*
X198000Y227500D02*
X228000D01*
X420500Y255583D02*
X420583Y255500D01*
X425000Y267000D02*
X467194D01*
X469500Y269306D01*
X359829Y154747D02*
X360583Y155500D01*
X359829Y149329D02*
Y154747D01*
X355500Y145000D02*
X359829Y149329D01*
X306453Y145000D02*
X355500D01*
X295500Y137000D02*
X298453D01*
X306453Y145000D01*
X362500Y139250D02*
Y142500D01*
X348000Y137000D02*
X360250D01*
X362500Y139250D01*
Y142500D02*
X365165Y145165D01*
X377165D01*
X379829Y147829D01*
Y154747D02*
X380583Y155500D01*
X379829Y147829D02*
Y154747D01*
X390583Y142083D02*
Y155500D01*
X386253Y137753D02*
X390583Y142083D01*
X375500Y137000D02*
X376253Y137753D01*
X386253D01*
X400583Y155500D02*
X401291Y154791D01*
Y137709D02*
Y154791D01*
Y137709D02*
X402000Y137000D01*
X416500Y117000D02*
X429000D01*
X402000D02*
X416500D01*
Y143500D02*
X419829Y146829D01*
X416500Y117000D02*
Y143500D01*
X419829Y154747D02*
X420583Y155500D01*
X419829Y146829D02*
Y154747D01*
X375500Y117000D02*
X402000D01*
X348000D02*
X375500D01*
X322000D02*
X348000D01*
X295500D02*
X322000D01*
X262500D02*
X295500D01*
X228000Y151500D02*
X262500Y117000D01*
X128000Y152000D02*
X158000D01*
X128000Y172000D02*
X158000D01*
X128000Y208000D02*
X158000D01*
X128000Y228000D02*
X158000D01*
Y208000D02*
Y228000D01*
Y172000D02*
Y208000D01*
Y152000D02*
Y172000D01*
X128000Y228000D02*
Y251325D01*
Y208000D02*
Y228000D01*
Y172000D02*
Y208000D01*
Y152000D02*
Y172000D01*
X119093Y260232D02*
Y262134D01*
Y260232D02*
X128000Y251325D01*
X198000Y151500D02*
X228000D01*
X198000Y207500D02*
X228000D01*
Y227500D01*
Y151500D02*
Y171500D01*
X198000Y227500D02*
Y253472D01*
Y207500D02*
Y227500D01*
Y171500D02*
Y207500D01*
Y151500D02*
Y171500D01*
X189959Y261513D02*
X198000Y253472D01*
X189959Y261513D02*
Y262134D01*
X258500Y348500D02*
X259000Y348000D01*
Y333000D02*
Y348000D01*
X251500Y325500D02*
X259000Y333000D01*
X220435Y325500D02*
X221500D01*
X213500Y324565D02*
Y348500D01*
X365500Y456500D02*
Y467000D01*
Y426500D02*
Y456500D01*
X362000Y470500D02*
X365500Y467000D01*
X331423Y470500D02*
X362000D01*
X323500Y463000D02*
X323923D01*
X331423Y470500D01*
X345500Y426500D02*
Y456500D01*
X303500Y426500D02*
X345500D01*
X300500Y423500D02*
X303500Y426500D01*
X300500Y407000D02*
Y423500D01*
X421000Y426500D02*
Y456500D01*
Y415000D02*
Y426500D01*
X399500Y393500D02*
X421000Y415000D01*
X401000Y425000D02*
Y426500D01*
X376500Y400500D02*
X401000Y425000D01*
X376500Y337500D02*
Y400500D01*
X401000Y426500D02*
Y456500D01*
X245000Y427000D02*
Y457000D01*
Y410000D02*
Y427000D01*
Y410000D02*
X258500Y396500D01*
X190000Y427000D02*
X225000D01*
X190000D02*
Y457000D01*
X225000Y427000D02*
Y457000D01*
X190000D02*
X225000D01*
X190000Y408000D02*
Y427000D01*
X182717Y400716D02*
X190000Y408000D01*
X166337Y400716D02*
X182717D01*
X170000Y427000D02*
Y457000D01*
X135685Y425000D02*
X136685Y426000D01*
X169000D01*
X170000Y427000D01*
X124784Y400716D02*
X142715D01*
X116000Y409500D02*
X124784Y400716D01*
X116000Y409500D02*
Y425000D01*
D31*
D03*
X135685D02*
D03*
D32*
X221500Y314000D02*
D03*
X251500D02*
D03*
X301500Y381500D02*
D03*
Y351500D02*
D03*
X337000Y326500D02*
D03*
Y356500D02*
D03*
X263500Y244000D02*
D03*
Y214000D02*
D03*
X254000Y244000D02*
D03*
Y214000D02*
D03*
X244000Y244000D02*
D03*
Y214000D02*
D03*
X290583Y155500D02*
D03*
X300583D02*
D03*
X310583D02*
D03*
X320583D02*
D03*
X330583D02*
D03*
X340583D02*
D03*
X350583D02*
D03*
X360583D02*
D03*
X370583D02*
D03*
X380583D02*
D03*
X390583D02*
D03*
X400583D02*
D03*
X410583D02*
D03*
X420583D02*
D03*
X430583D02*
D03*
X290583Y255500D02*
D03*
X300583D02*
D03*
X310583D02*
D03*
X320583D02*
D03*
X330583D02*
D03*
X340583D02*
D03*
X350583D02*
D03*
X360583D02*
D03*
X370583D02*
D03*
X380583D02*
D03*
X390583D02*
D03*
X400583D02*
D03*
X410583D02*
D03*
X420583D02*
D03*
X358500Y313500D02*
D03*
X350000Y323000D02*
D03*
X341500Y313500D02*
D03*
X366000Y323000D02*
D03*
X396000D02*
D03*
X281000Y392500D02*
D03*
X311000D02*
D03*
X273500Y379500D02*
D03*
X282000Y370000D02*
D03*
X290500Y379500D02*
D03*
X221500Y325500D02*
D03*
X251500D02*
D03*
X210000Y294500D02*
D03*
X219500Y303000D02*
D03*
X210000Y311500D02*
D03*
X290500Y187500D02*
D03*
X350500D02*
D03*
X341000D02*
D03*
X330000D02*
D03*
X320500D02*
D03*
X310000D02*
D03*
X300500D02*
D03*
X310000Y232500D02*
D03*
X320500D02*
D03*
X380500D02*
D03*
X370500D02*
D03*
D33*
X401000Y426500D02*
D03*
Y456500D02*
D03*
X421000Y426500D02*
D03*
Y456500D02*
D03*
X345500Y426500D02*
D03*
Y456500D02*
D03*
X365500Y426500D02*
D03*
Y456500D02*
D03*
X225000Y427000D02*
D03*
Y457000D02*
D03*
X245000Y427000D02*
D03*
Y457000D02*
D03*
X170000Y427000D02*
D03*
Y457000D02*
D03*
X190000Y427000D02*
D03*
Y457000D02*
D03*
X189959Y262134D02*
D03*
X119093D02*
D03*
X142715Y400716D02*
D03*
X166337D02*
D03*
X461921Y253847D02*
D03*
Y157350D02*
D03*
X277079D02*
D03*
Y253847D02*
D03*
X228000Y207500D02*
D03*
X198000D02*
D03*
X228000Y227500D02*
D03*
X198000D02*
D03*
X158000Y208000D02*
D03*
X128000D02*
D03*
X158000Y228000D02*
D03*
X128000D02*
D03*
X228000Y151500D02*
D03*
X198000D02*
D03*
X228000Y171500D02*
D03*
X198000D02*
D03*
X158000Y152000D02*
D03*
X128000D02*
D03*
X158000Y172000D02*
D03*
X128000D02*
D03*
D34*
X358000Y287500D02*
D03*
X348000D02*
D03*
X320000D02*
D03*
X310000D02*
D03*
X280500D02*
D03*
X270500D02*
D03*
D35*
X430583Y255500D02*
D03*
D36*
X399500Y393500D02*
D03*
X354500D02*
D03*
X376500Y337500D02*
D03*
X399500Y345500D02*
D03*
X354500D02*
D03*
X258500Y396500D02*
D03*
X213500D02*
D03*
X235500Y340500D02*
D03*
X258500Y348500D02*
D03*
X213500D02*
D03*
X323500Y463000D02*
D03*
X278500D02*
D03*
X300500Y407000D02*
D03*
X323500Y415000D02*
D03*
X278500D02*
D03*
D37*
X447000Y393000D02*
D03*
Y334500D02*
D03*
Y369000D02*
D03*
X446500Y310000D02*
D03*
X295500Y117000D02*
D03*
X322000D02*
D03*
X348000D02*
D03*
X375500D02*
D03*
X402000D02*
D03*
X429000D02*
D03*
D38*
X447000Y383000D02*
D03*
Y324500D02*
D03*
Y359000D02*
D03*
Y349000D02*
D03*
X446500Y300000D02*
D03*
Y290000D02*
D03*
X295500Y127000D02*
D03*
Y137000D02*
D03*
X322000Y127000D02*
D03*
Y137000D02*
D03*
X348000Y127000D02*
D03*
Y137000D02*
D03*
X375500Y127000D02*
D03*
Y137000D02*
D03*
X402000Y127000D02*
D03*
Y137000D02*
D03*
X429000Y127000D02*
D03*
Y137000D02*
D03*
D39*
X126500Y458000D02*
D03*
X127000Y123000D02*
D03*
X462500D02*
D03*
Y458000D02*
D03*
D40*
X132624Y451875D02*
D03*
X120376D02*
D03*
X117839Y458000D02*
D03*
X120376Y464124D02*
D03*
X132821Y464223D02*
D03*
X135358Y458098D02*
D03*
X126500Y449339D02*
D03*
Y466661D02*
D03*
X133124Y116876D02*
D03*
X120876D02*
D03*
X118339Y123000D02*
D03*
X120876Y129124D02*
D03*
X133321Y129223D02*
D03*
X135858Y123098D02*
D03*
X127000Y114339D02*
D03*
Y131661D02*
D03*
X468624Y116876D02*
D03*
X456376D02*
D03*
X453839Y123000D02*
D03*
X456376Y129124D02*
D03*
X468821Y129223D02*
D03*
X471358Y123098D02*
D03*
X462500Y114339D02*
D03*
Y131661D02*
D03*
X468624Y451875D02*
D03*
X456376D02*
D03*
X453839Y458000D02*
D03*
X456376Y464124D02*
D03*
X468821Y464223D02*
D03*
X471358Y458098D02*
D03*
X462500Y449339D02*
D03*
Y466661D02*
D03*
M02*
